<svg xmlns="http://www.w3.org/2000/svg" viewBox="0 0 243 494"><defs><style>.cls-1{fill:#fc9;}.cls-2{fill:#66c;}.cls-3{fill:#c6c;}.cls-4{fill:#9c6;}.cls-5{fill:#f93;}.cls-6{fill:#ff9;}</style></defs><title>Asset 1</title><g id="Layer_2" data-name="Layer 2"><g id="Layer_1-2" data-name="Layer 1"><rect class="cls-1" x="104" y="237" width="23" height="257"/><path class="cls-2" d="M121.5,0A121.5,121.5,0,1,0,243,121.5,121.5,121.5,0,0,0,121.5,0ZM121,218.5A97.5,97.5,0,1,1,218.5,121,97.5,97.5,0,0,1,121,218.5Z"/><path class="cls-3" d="M121,23.5A97.5,97.5,0,1,0,218.5,121,97.5,97.5,0,0,0,121,23.5Zm.5,171a73,73,0,1,1,73-73A73,73,0,0,1,121.5,194.5Z"/><path class="cls-4" d="M121.5,48.5a73,73,0,1,0,73,73A73,73,0,0,0,121.5,48.5Zm.5,117A44.5,44.5,0,1,1,166.5,121,44.5,44.5,0,0,1,122,165.5Z"/><circle class="cls-5" cx="122" cy="121" r="44.5"/><polygon class="cls-6" points="122 87.16 133.12 109.69 157.99 113.31 140 130.85 144.25 155.62 122 143.92 99.75 155.62 104 130.85 86.01 113.31 110.88 109.69 122 87.16"/></g></g></svg>