<svg xmlns="http://www.w3.org/2000/svg" viewBox="0 0 359.88 386.5"><defs><style>.cls-1{fill:#fc9;}.cls-2{fill:#f60;}.cls-2,.cls-3,.cls-4,.cls-5,.cls-6,.cls-7{stroke:#fc9;}.cls-2,.cls-3,.cls-4,.cls-5,.cls-6,.cls-7,.cls-8{stroke-miterlimit:10;}.cls-3{fill:#c9f;}.cls-4{fill:#33f;}.cls-5{fill:#ff9;}.cls-6{fill:#f9f;}.cls-7{fill:#9cf;}.cls-8{fill:#fc3;stroke:#f33;}.cls-9{fill:#fff;}</style></defs><title>Asset 2</title><g id="Layer_2" data-name="Layer 2"><g id="cakes"><rect class="cls-1" x="0.5" y="275.97" width="357.17" height="110.03" rx="30.18"/><path d="M327.5,276.47a29.71,29.71,0,0,1,29.67,29.68v49.67A29.71,29.71,0,0,1,327.5,385.5H30.68A29.71,29.71,0,0,1,1,355.82V306.15a29.71,29.71,0,0,1,29.68-29.68H327.5m0-1H30.68A30.76,30.76,0,0,0,0,306.15v49.67A30.76,30.76,0,0,0,30.68,386.5H327.5a30.76,30.76,0,0,0,30.67-30.68V306.15a30.76,30.76,0,0,0-30.67-30.68Z"/><rect class="cls-1" x="22.39" y="172.75" width="306.38" height="102.22" rx="35.19"/><path d="M293.58,173.25a34.73,34.73,0,0,1,34.69,34.69v31.84a34.73,34.73,0,0,1-34.69,34.69h-236a34.74,34.74,0,0,1-34.7-34.69V207.94a34.74,34.74,0,0,1,34.7-34.69h236m0-1h-236a35.8,35.8,0,0,0-35.7,35.69v31.84a35.8,35.8,0,0,0,35.7,35.69h236a35.79,35.79,0,0,0,35.69-35.69V207.94a35.79,35.79,0,0,0-35.69-35.69Z"/><rect class="cls-1" x="57.42" y="79.07" width="220.56" height="92.68" rx="43.6"/><path d="M234.38,79.57a43.15,43.15,0,0,1,43.1,43.1v5.48a43.16,43.16,0,0,1-43.1,43.1H101a43.16,43.16,0,0,1-43.1-43.1v-5.48A43.15,43.15,0,0,1,101,79.57H234.38m0-1H101a44.23,44.23,0,0,0-44.1,44.1v5.48a44.24,44.24,0,0,0,44.1,44.1H234.38a44.24,44.24,0,0,0,44.1-44.1v-5.48a44.23,44.23,0,0,0-44.1-44.1Z"/></g><g id="frosting"><polygon class="cls-2" points="4.12 289.06 49.48 318.64 129.17 290.88 214.99 320.37 295.56 296.95 358.61 316.03 359.38 298.55 350.3 283.98 344.49 280.34 336.72 277 21.45 276.13 12.7 279.6 4.12 289.06"/><polygon class="cls-3" points="4.12 288.83 49.48 318.41 129.17 290.65 214.99 320.14 295.56 296.72 358.61 315.81 359.38 298.32 350.3 283.75 344.49 280.11 336.72 276.77 21.45 275.9 12.7 279.37 4.12 288.83"/><polygon class="cls-4" points="30.64 185.87 68.58 214.98 135.23 187.66 207.01 216.69 274.39 193.64 327.13 212.42 327.77 195.21 320.18 180.87 315.32 177.28 308.82 174 45.14 173.15 37.81 176.56 30.64 185.87"/><polygon class="cls-5" points="70.06 90.76 95.44 117.15 140.03 92.38 188.05 118.69 233.14 97.8 268.42 114.82 268.85 99.23 263.77 86.23 260.52 82.98 256.17 80 79.76 79.23 74.86 82.32 70.06 90.76"/><polygon class="cls-6" points="28.64 185.42 66.58 214.53 133.23 187.21 205.01 216.24 272.39 193.19 325.13 211.97 325.77 194.76 318.18 180.42 313.32 176.83 306.82 173.55 43.14 172.7 35.81 176.11 28.64 185.42"/><polygon class="cls-7" points="70.06 90.63 95.44 117.01 140.03 92.25 188.05 118.56 233.14 97.67 268.42 114.69 268.85 99.1 263.77 86.1 260.52 82.84 256.17 79.87 79.76 79.09 74.86 82.19 70.06 90.63"/></g><g id="candle"><path class="cls-8" d="M176.57,26.56c3.44,0,4.78.38,5.3-1.27H169.13C170.37,27.34,172.8,26.56,176.57,26.56Z"/><path class="cls-8" d="M182.2,18.09c0-4.18-2.72-9.33-4.22-12.32A16.79,16.79,0,0,0,174.29.5c-2.92,0,0,2.9-1.94,6s-4.22,7.53-4.22,12.32c0,3.37.33,5.31,1,6.43h12.74C182.23,24.14,182.2,22,182.2,18.09Z"/><path class="cls-9" d="M166.88,77.2V25.79h2a3.94,3.94,0,0,0,3.55,1.41c.53,0,1.11,0,1.74-.06s1.53-.08,2.41-.08l1.61,0,1.06,0c1.34,0,2.43-.11,3-1.31h1.25V77.2Z"/><path d="M183,26.29V76.7H167.38V26.29h1.24a4.59,4.59,0,0,0,3.8,1.41c.55,0,1.14,0,1.76-.06s1.53-.08,2.39-.08l1.59,0,1.08,0c1,0,2.49,0,3.27-1.31H183m1-1h-2.09c-.36,1.13-1.1,1.31-2.63,1.31-.71,0-1.58,0-2.67,0-1.63,0-3,.14-4.15.14-1.5,0-2.58-.25-3.29-1.41h-2.75V77.7H184V25.29Z"/></g></g></svg>