<svg xmlns="http://www.w3.org/2000/svg" viewBox="0 0 412.56 412.21"><defs><style>.cls-1{fill:#824b19;stroke-width:3px;}.cls-1,.cls-3{stroke:#000;stroke-miterlimit:10;}.cls-2{fill:#d3a5cc;}.cls-3{fill:#fff;stroke-width:2px;}.cls-4{fill:#33c;}.cls-5{fill:#c66;}.cls-6{fill:#d8ff2e;}.cls-7{fill:#01a200;}</style></defs><title>Asset 1</title><g id="Layer_2" data-name="Layer 2"><g id="Layer_1-2" data-name="Layer 1"><path class="cls-1" d="M187.39,2.32l-2,.19Z"/><path class="cls-1" d="M293.12,83.88c0-.12,0-.24,0-.36C293.12,83.64,293.11,83.76,293.12,83.88Z"/><path class="cls-1" d="M173.51,4l-2,.33Z"/><path class="cls-1" d="M178.14,3.35l-2.06.29Z"/><path class="cls-1" d="M192,2l-1.91.14Z"/><path class="cls-1" d="M168.86,4.82c-.66.12-1.32.23-2,.36C167.54,5.05,168.2,4.94,168.86,4.82Z"/><path class="cls-1" d="M299.79,77.09l.45-.13Z"/><path class="cls-1" d="M300.09,117.59A1.48,1.48,0,0,0,300,117,1.48,1.48,0,0,1,300.09,117.59Z"/><path class="cls-1" d="M311.36,75.62Z"/><path class="cls-1" d="M196.64,1.7l-1.72.09Z"/><path class="cls-1" d="M201.28,1.55l-1.13,0Z"/><path class="cls-1" d="M182.76,2.78l-2,.24Z"/><path class="cls-1" d="M126.6,17.27l-2,.85Z"/><path class="cls-1" d="M164.13,5.73l-1.82.37Z"/><path class="cls-1" d="M122.16,19.19l-1.9.85Z"/><path class="cls-1" d="M131,15.49l-2.07.82Z"/><path class="cls-1" d="M111.81,24.14l-1.46.77Z"/><path class="cls-1" d="M117.55,21.31l-1.58.75Z"/><path class="cls-1" d="M135.44,13.83l-2.1.77Z"/><path class="cls-1" d="M139.88,12.27l-2.11.73Z"/><path class="cls-1" d="M153.33,8.24c-.63.16-1.25.34-1.88.51C152.08,8.58,152.7,8.4,153.33,8.24Z"/><path class="cls-1" d="M158.76,6.9l-1.82.44Z"/><path class="cls-1" d="M148.82,9.48c-.68.19-1.35.4-2,.6C147.47,9.88,148.14,9.67,148.82,9.48Z"/><path class="cls-1" d="M144.34,10.82l-2.09.67Z"/><path class="cls-1" d="M299.26,77.26q-.35.1-.69.24Q298.92,77.36,299.26,77.26Z"/><path class="cls-1" d="M296.56,78.41l-.33.21Z"/><path class="cls-1" d="M107.59,26.38l-1.74,1Z"/><path class="cls-1" d="M295.29,79.28l-.27.24Z"/><path class="cls-1" d="M297.29,78l-.36.19Z"/><path class="cls-1" d="M295.59,79.05l.3-.22Z"/><path class="cls-1" d="M295.83,91.57a1.43,1.43,0,0,0-.17-1.14v0A1.43,1.43,0,0,1,295.83,91.57Z"/><path class="cls-1" d="M298.08,77.68l-.39.17Z"/><path class="cls-1" d="M299.32,124.68c.07.23.15.46.23.69C299.47,125.14,299.39,124.91,299.32,124.68Z"/><path class="cls-1" d="M299,123.55c.05.21.1.42.16.64C299.12,124,299.07,123.76,299,123.55Z"/><path class="cls-1" d="M298.82,122a5.81,5.81,0,0,1,0-.59A5.81,5.81,0,0,0,298.82,122Z"/><path class="cls-1" d="M299.82,118.41a5.35,5.35,0,0,0-.49.78A5.35,5.35,0,0,1,299.82,118.41Z"/><path class="cls-1" d="M299.74,125.86c.09.24.2.49.31.73C299.94,126.35,299.83,126.1,299.74,125.86Z"/><path class="cls-1" d="M285.74,107.6a1.48,1.48,0,0,0,.13.55A1.48,1.48,0,0,1,285.74,107.6Z"/><path class="cls-1" d="M293.48,86c0,.13.07.27.12.4C293.55,86.26,293.52,86.12,293.48,86Z"/><path class="cls-1" d="M293.8,86.92c.05.13.1.27.16.41C293.9,87.19,293.85,87.05,293.8,86.92Z"/><path class="cls-1" d="M293.26,85.12c0,.13.05.26.08.39C293.31,85.38,293.29,85.25,293.26,85.12Z"/><path class="cls-1" d="M294.51,80l.24-.25Z"/><path class="cls-1" d="M293.14,84.29c0,.13,0,.25,0,.38C293.16,84.54,293.15,84.42,293.14,84.29Z"/><path class="cls-1" d="M294.22,87.91l.2.4Z"/><path class="cls-1" d="M294.79,89l.19.35Z"/><path class="cls-1" d="M294.28,80.29l-.2.27Z"/><path class="cls-1" d="M293.89,80.85l-.16.29Z"/><path class="cls-1" d="M293.58,81.46c-.05.1-.09.2-.13.3C293.49,81.66,293.53,81.56,293.58,81.46Z"/><path class="cls-1" d="M293.19,82.79c0,.11,0,.22-.05.34C293.15,83,293.17,82.9,293.19,82.79Z"/><path class="cls-1" d="M293.34,82.1l-.09.33Z"/><path class="cls-1" d="M87,39.26l-1.69,1.21Z"/><path class="cls-1" d="M186,409.7c1.19.12,2.38.24,3.57.33C188.38,409.94,187.19,409.82,186,409.7Z"/><path class="cls-1" d="M196.94,410.49c1,.05,2.05.09,3.08.12C199,410.58,198,410.54,196.94,410.49Z"/><path class="cls-1" d="M191.58,410.18l3.21.21Z"/><path class="cls-1" d="M202.23,410.67l3,0Z"/><path class="cls-1" d="M276.25,398.59l1.85-.68Z"/><path class="cls-1" d="M285.16,395.14l1.91-.8Z"/><path class="cls-1" d="M280.72,396.92c.63-.24,1.27-.49,1.9-.75C282,396.43,281.35,396.68,280.72,396.92Z"/><path class="cls-1" d="M163.75,406.3c1,.21,2,.41,3,.6C165.78,406.71,164.76,406.51,163.75,406.3Z"/><path class="cls-1" d="M179.19,408.93c1.73.23,3.45.43,5.18.62C182.64,409.36,180.92,409.16,179.19,408.93Z"/><path class="cls-1" d="M158.64,405.16c1,.23,2,.45,2.92.66C160.59,405.61,159.61,405.39,158.64,405.16Z"/><path class="cls-1" d="M174,408.18c1.48.24,3,.45,4.45.65C177,408.63,175.51,408.42,174,408.18Z"/><path class="cls-1" d="M168.88,407.31c1.1.2,2.21.38,3.31.57C171.09,407.69,170,407.51,168.88,407.31Z"/><path class="cls-1" d="M325.08,373l1.66-1.19Z"/><path class="cls-1" d="M153.53,403.89l2.89.73Z"/><path class="cls-1" d="M329.16,370.06l1.55-1.17Z"/><path class="cls-1" d="M321,375.87c.57-.39,1.14-.77,1.71-1.17C322.14,375.1,321.57,375.48,321,375.87Z"/><path class="cls-1" d="M405,192.79a31.27,31.27,0,0,1-18.44,0c-1-.3-1.92-.65-2.85-1a31.4,31.4,0,0,1-5.26-2.86,32.39,32.39,0,0,1-3.52-2.76,31,31,0,0,1-8.86-31.81c-6.93,1.43-13.55,3-15.55,3.65a2.42,2.42,0,0,1-.76.12,2.46,2.46,0,0,1-1.09-.26l-20.24-10.2a8.57,8.57,0,0,1-2.78.44c-8.73,0-21.72-11.21-26.22-20.39-2.05-4.17-2.19-7.59-.42-9.88a.33.33,0,0,0,.05-.26.47.47,0,0,0-.22-.31l-12.92-7.58a2.43,2.43,0,0,1-.8-3.42l9.67-14.78a.42.42,0,0,0,0-.47c-2.75-4.17-3.41-7.66-2-10.35,2-3.72,7.91-5.68,18-6a31,31,0,0,1,8.81-37.83,206.19,206.19,0,0,0-182.8-22.44A201.89,201.89,0,0,0,24.43,113.71,206.74,206.74,0,0,0,11.59,267a200.69,200.69,0,0,0,38.74,70.81c38.63,45.7,95.54,71.9,156.12,71.9a204.64,204.64,0,0,0,68.9-11.86A202.94,202.94,0,0,0,403.11,258.74,204.19,204.19,0,0,0,409.55,191c-.56.27-1.11.53-1.69.78A30,30,0,0,1,405,192.79Z"/><path class="cls-1" d="M333.33,366.84l1.29-1Z"/><path class="cls-1" d="M316.9,378.57l1.7-1.1Z"/><path class="cls-1" d="M103.41,28.73l-1.81,1.06Z"/><path class="cls-1" d="M289.6,393.24l1.86-.83Z"/><path class="cls-1" d="M312.75,381.16l1.65-1Z"/><path class="cls-1" d="M294.05,391.21c.59-.28,1.18-.55,1.76-.84C295.23,390.66,294.64,390.93,294.05,391.21Z"/><path class="cls-1" d="M304.35,386l.41-.23Z"/><path class="cls-1" d="M308.57,383.64l1.46-.86Z"/><path class="cls-1" d="M298.63,389c.49-.25,1-.49,1.48-.75C299.62,388.49,299.12,388.73,298.63,389Z"/><path class="cls-1" d="M70.5,359.81c.79.7,1.59,1.38,2.39,2.07C72.09,361.19,71.29,360.51,70.5,359.81Z"/><path class="cls-1" d="M66.44,356.13c.77.72,1.54,1.43,2.32,2.13C68,357.56,67.21,356.85,66.44,356.13Z"/><path class="cls-1" d="M62.43,352.31l2.3,2.23Z"/><path class="cls-1" d="M74.63,363.35c.83.7,1.67,1.37,2.51,2C76.3,364.72,75.46,364.05,74.63,363.35Z"/><path class="cls-1" d="M83.11,370.05Q85,371.49,87,372.88,85.05,371.49,83.11,370.05Z"/><path class="cls-1" d="M78.86,45.41c-.43.34-.87.67-1.3,1C78,46.08,78.43,45.75,78.86,45.41Z"/><path class="cls-1" d="M78.84,366.76c.91.73,1.83,1.43,2.76,2.14C80.67,368.19,79.75,367.49,78.84,366.76Z"/><path class="cls-1" d="M99.26,31.19l-1.82,1.12Z"/><path class="cls-1" d="M95.16,33.76c-.61.38-1.21.78-1.8,1.17C94,34.54,94.55,34.14,95.16,33.76Z"/><path class="cls-1" d="M298.85,122.45c0,.21,0,.41.08.62C298.9,122.86,298.87,122.66,298.85,122.45Z"/><path class="cls-1" d="M91.08,36.45c-.58.39-1.17.79-1.75,1.2C89.91,37.24,90.5,36.84,91.08,36.45Z"/><path class="cls-1" d="M83,42.22l-1.56,1.17Z"/><path class="cls-1" d="M107.5,385.65c.87.48,1.75,1,2.63,1.41C109.25,386.6,108.37,386.13,107.5,385.65Z"/><path class="cls-1" d="M126.57,394.79c1.35.57,2.72,1.11,4.08,1.65C129.29,395.9,127.92,395.36,126.57,394.79Z"/><path class="cls-1" d="M121.74,392.7q1.5.68,3,1.32Q123.24,393.38,121.74,392.7Z"/><path class="cls-1" d="M117,390.49l2.78,1.3Z"/><path class="cls-1" d="M131.44,396.75c1.62.63,3.24,1.23,4.88,1.82C134.68,398,133.06,397.38,131.44,396.75Z"/><path class="cls-1" d="M138.05,399.17l3.23,1.1Z"/><path class="cls-1" d="M143.32,400.92c1,.31,2,.63,3,.92C145.29,401.55,144.31,401.23,143.32,400.92Z"/><path class="cls-1" d="M98.15,380.24l2.69,1.64Z"/><path class="cls-1" d="M87.45,373.2c1.44,1,2.91,2,4.38,3C90.36,375.22,88.89,374.22,87.45,373.2Z"/><path class="cls-1" d="M93.39,377.22c1,.63,1.93,1.27,2.91,1.88C95.32,378.49,94.35,377.85,93.39,377.22Z"/><path class="cls-1" d="M102.82,383c.88.51,1.75,1,2.63,1.5C104.57,384,103.7,383.54,102.82,383Z"/><path class="cls-1" d="M112.2,388.14l2.68,1.34Z"/><path class="cls-1" d="M148.44,402.48l2.89.82Z"/><path class="cls-1" d="M360.19,154.55l.81-.18Z"/><path class="cls-1" d="M223.27,2.25c1,.08,2,.16,2.95.26C225.24,2.41,224.25,2.33,223.27,2.25Z"/><path class="cls-1" d="M228.44,2.75l2.85.32Z"/><path class="cls-1" d="M218,1.87c1.06.06,2.12.12,3.17.2C220.1,2,219,1.93,218,1.87Z"/><path class="cls-1" d="M212.24,1.61c1.28,0,2.55.08,3.83.15C214.79,1.69,213.52,1.65,212.24,1.61Z"/><path class="cls-1" d="M233.55,3.37l2.79.39Z"/><path class="cls-1" d="M298.93,120.42c0,.19-.07.38-.09.57C298.86,120.8,298.9,120.61,298.93,120.42Z"/><path class="cls-1" d="M238.63,4.11l2.75.46Z"/><path class="cls-1" d="M65.92,56.54A200.79,200.79,0,0,0,51.59,71.43,200.79,200.79,0,0,1,65.92,56.54Z"/><path class="cls-1" d="M21.35,117.74q3.2-6.75,6.9-13.3Q24.55,111,21.35,117.74Z"/><path class="cls-1" d="M33.41,95.83A200.69,200.69,0,0,1,45.08,79.3,200.69,200.69,0,0,0,33.41,95.83Z"/><path class="cls-1" d="M45.08,79.3c2.1-2.67,4.26-5.3,6.51-7.87C49.34,74,47.18,76.63,45.08,79.3Z"/><path class="cls-1" d="M73.78,49.54l0,0q-4,3.4-7.84,7,3.81-3.57,7.84-7Z"/><path class="cls-1" d="M280.26,15.28l2.49,1Z"/><path class="cls-1" d="M294.45,21.34c.81.38,1.61.78,2.41,1.17C296.06,22.12,295.26,21.72,294.45,21.34Z"/><path class="cls-1" d="M289.78,19.21c.8.35,1.61.72,2.41,1.09C291.39,19.93,290.58,19.56,289.78,19.21Z"/><path class="cls-1" d="M308.17,28.47l2.76,1.61Z"/><path class="cls-1" d="M285.05,17.19c.81.33,1.63.67,2.44,1C286.68,17.86,285.86,17.52,285.05,17.19Z"/><path class="cls-1" d="M299.08,23.6l2.42,1.25Z"/><path class="cls-1" d="M303.65,26c.83.44,1.66.9,2.49,1.36C305.31,26.88,304.48,26.42,303.65,26Z"/><path class="cls-1" d="M12.11,140.78c1.05-3.14,2.16-6.25,3.36-9.33C14.27,134.53,13.16,137.64,12.11,140.78Z"/><path class="cls-1" d="M258.62,8.31c1.22.31,2.43.65,3.65,1C261.05,9,259.84,8.62,258.62,8.31Z"/><path class="cls-1" d="M253.66,7.07c1,.23,1.94.48,2.91.72C255.6,7.55,254.63,7.3,253.66,7.07Z"/><path class="cls-1" d="M275.4,13.49l2.57.92Z"/><path class="cls-1" d="M270.4,11.78l2.76.91Z"/><path class="cls-1" d="M264.6,10c1.24.36,2.48.73,3.71,1.12C267.08,10.71,265.84,10.34,264.6,10Z"/><path class="cls-1" d="M248.68,6l2.78.62Z"/><path class="cls-1" d="M242.37,407.59l2-.36Z"/><path class="cls-1" d="M233.07,409l1.66-.23Z"/><path class="cls-1" d="M247,406.71l2-.4Z"/><path class="cls-1" d="M237.72,408.35c.63-.09,1.25-.2,1.88-.3C239,408.15,238.35,408.26,237.72,408.35Z"/><path class="cls-1" d="M261.18,403.36l1.59-.43Z"/><path class="cls-1" d="M256.35,404.62l1.85-.46Z"/><path class="cls-1" d="M251.66,405.73l2-.44Z"/><path class="cls-1" d="M212.47,410.62l1.92-.06Z"/><path class="cls-1" d="M411.06,205.75c0-3.87-.12-7.74-.34-11.61C410.94,198,411.06,201.88,411.06,205.75Z"/><path class="cls-1" d="M6.78,159.82q1.65-7.23,3.83-14.33Q8.44,152.58,6.78,159.82Z"/><path class="cls-1" d="M228.41,409.56l.67-.08Z"/><path class="cls-1" d="M222.27,410.11l1.49-.11Z"/><path class="cls-1" d="M217.27,410.43l1.81-.1Z"/><path class="cls-1" d="M1.52,203.81c0,3.29,0,6.58.11,9.87C1.51,210.39,1.48,207.1,1.52,203.81Z"/><path class="cls-1" d="M6.76,252.88C6.09,250,5.49,247,5,244.1,5.49,247,6.09,250,6.76,252.88Z"/><path class="cls-1" d="M3.28,179.23q1-7.33,2.45-14.59Q4.25,171.9,3.28,179.23Z"/><path class="cls-1" d="M1.52,203.81c0-3.28.16-6.57.35-9.85C1.68,197.24,1.56,200.53,1.52,203.81Z"/><path class="cls-1" d="M23.87,299.88q-2.31-4.51-4.38-9.12Q21.56,295.37,23.87,299.88Z"/><path class="cls-1" d="M1.87,194c.3-4.92.77-9.84,1.41-14.73Q2.32,186.57,1.87,194Z"/><path class="cls-1" d="M271.76,400.15c.56-.18,1.11-.38,1.66-.57C272.87,399.77,272.32,400,271.76,400.15Z"/><path class="cls-1" d="M207.73,410.71l2,0Z"/><path class="cls-1" d="M267.26,401.6l.71-.23Z"/><path class="cls-1" d="M57,346.74q-1.28-1.35-2.52-2.73Q55.7,345.39,57,346.74Z"/><path class="cls-1" d="M49.57,338.47c1.2,1.42,2.42,2.81,3.65,4.19C52,341.28,50.77,339.89,49.57,338.47Z"/><path class="cls-1" d="M58.47,348.3c.77.81,1.55,1.61,2.33,2.4C60,349.91,59.24,349.11,58.47,348.3Z"/><path class="cls-1" d="M243.67,5l2.74.53Z"/><path class="cls-1" d="M303.27,76.31c-.18,0-.35,0-.52.09C302.92,76.36,303.09,76.34,303.27,76.31Z"/><path class="cls-1" d="M302.22,76.5l-.5.1Z"/><path class="cls-1" d="M305.48,76l-.56.07Z"/><path class="cls-1" d="M304.35,76.14l-.53.08Z"/><path class="cls-1" d="M300.27,127.07c.13.27.28.55.42.83C300.55,127.62,300.4,127.34,300.27,127.07Z"/><path class="cls-1" d="M301.22,76.71l-.49.12Z"/><path class="cls-1" d="M309,75.71l-.57,0Z"/><polygon class="cls-1" points="328.4 146.49 328.48 146.53 328.48 146.53 328.4 146.49"/><path class="cls-1" d="M310.23,75.65l-.58,0Z"/><path class="cls-1" d="M300.91,128.31c.46.83,1,1.67,1.56,2.51C301.89,130,301.37,129.14,300.91,128.31Z"/><path class="cls-1" d="M306.62,75.88l-.56.06Z"/><path class="cls-1" d="M307.8,75.79l-.57,0Z"/><path class="cls-1" d="M305.92,135.15c.21.24.42.47.64.7C306.34,135.62,306.13,135.39,305.92,135.15Z"/><path class="cls-1" d="M312.09,140.92c.87.69,1.77,1.34,2.66,1.94C313.86,142.26,313,141.61,312.09,140.92Z"/><path class="cls-1" d="M310.78,139.86c.29.24.58.48.88.71C311.36,140.34,311.07,140.1,310.78,139.86Z"/><path class="cls-1" d="M315.19,143.14c.31.2.61.4.91.58C315.8,143.54,315.5,143.34,315.19,143.14Z"/><path class="cls-1" d="M309.51,138.74l.77.68Z"/><path class="cls-1" d="M299.22,119.48a5.71,5.71,0,0,0-.21.58A5.71,5.71,0,0,1,299.22,119.48Z"/><path class="cls-1" d="M316.63,144c.27.16.54.32.82.47C317.17,144.35,316.9,144.19,316.63,144Z"/><path class="cls-1" d="M328.51,146.54h0a6.44,6.44,0,0,1-.66.25A7,7,0,0,0,328.51,146.54Z"/><path class="cls-1" d="M308.26,137.58c.24.23.48.46.73.68C308.74,138,308.5,137.81,308.26,137.58Z"/><path class="cls-1" d="M304.82,133.89l.62.73Z"/><path class="cls-1" d="M303.77,132.59l.61.77Z"/><path class="cls-1" d="M307.75,137.07l-.68-.69Z"/><path class="cls-1" d="M302.77,131.24c.2.29.4.57.62.85C303.17,131.81,303,131.53,302.77,131.24Z"/><path class="cls-1" d="M362.24,154.1l-.77.17Z"/><path class="cls-1" d="M351.94,156.52l1.44-.38Z"/><path class="cls-1" d="M350.69,156.87l1.1-.31Z"/><path class="cls-1" d="M353.57,156.1l1.61-.4Z"/><path class="cls-1" d="M356.61,155.36l.68-.16Z"/><path class="cls-1" d="M357.76,155.1l.69-.16Z"/><path class="cls-1" d="M320.55,36.13h0l-2-1.34Z"/><path class="cls-1" d="M355.53,155.62l.82-.2Z"/><path class="cls-1" d="M211,1.56c-1.69,0-3.39-.06-5.09-.06C207.59,1.5,209.29,1.52,211,1.56Z"/><path class="cls-1" d="M326.85,147a7,7,0,0,0,.91-.18A7,7,0,0,1,326.85,147Z"/><path class="cls-1" d="M312.63,31.08q2.17,1.32,4.31,2.68Q314.81,32.4,312.63,31.08Z"/><path class="cls-1" d="M363.45,153.84l-.67.15Z"/><path class="cls-1" d="M364.93,153.53l-.81.17Z"/><path class="cls-1" d="M366.23,153.26l-.77.16Z"/><path class="cls-1" d="M322,146.45c.25.08.49.14.73.2C322.46,146.59,322.22,146.53,322,146.45Z"/><path class="cls-1" d="M323.23,146.78a6.37,6.37,0,0,0,.74.13A6.37,6.37,0,0,1,323.23,146.78Z"/><path class="cls-1" d="M320.68,146l.74.26Z"/><path class="cls-1" d="M324.44,147c.27,0,.53,0,.78,0C325,147,324.71,147,324.44,147Z"/><path class="cls-1" d="M359,154.83l.77-.18Z"/><path class="cls-1" d="M326.61,147a8.14,8.14,0,0,1-1,.06h.06A7.3,7.3,0,0,0,326.61,147Z"/><path class="cls-1" d="M349.43,157.05h0Z"/><path class="cls-1" d="M349.83,157.09h0Z"/><path class="cls-1" d="M318,144.79l.78.4Z"/><path class="cls-1" d="M350.57,156.91l-.35.11h0Z"/><path class="cls-1" d="M319.35,145.45l.76.33Z"/></g><g id="frosting"><path class="cls-2" d="M348.8,213.68A144.49,144.49,0,1,1,291.18,98.21c11.35,8.55-.78,13.51,7.62,25,3.75,5.13,4.6,25.68,28,33C349.14,163.18,348.8,188.62,348.8,213.68Z"/></g><g id="donut_hole" data-name="donut hole"><circle class="cls-3" cx="199.8" cy="213.18" r="34"/></g><g id="sprinkles"><g id="blue"><path class="cls-4" d="M196.79,106.88l3.63,8.21c.78,1.76,3.37.24,2.59-1.51l-3.63-8.21c-.78-1.76-3.37-.24-2.59,1.51Z"/></g><g id="blue-2" data-name="blue"><path class="cls-4" d="M140.8,321.2l13.52,8.06a1.5,1.5,0,0,0,1.51-2.59l-13.52-8.06a1.5,1.5,0,0,0-1.51,2.59Z"/></g><g id="blue-3" data-name="blue"><path class="cls-4" d="M317.3,215.17l4.54,10.22c.78,1.76,3.37.24,2.59-1.51l-4.54-10.22c-.78-1.76-3.37-.24-2.59,1.51Z"/></g><g id="blue-4" data-name="blue"><path class="cls-4" d="M118.61,166v8.34a1.5,1.5,0,0,0,3,0V166a1.5,1.5,0,0,0-3,0Z"/></g><g id="red"><path class="cls-5" d="M282.13,171v5a1.5,1.5,0,0,0,3,0v-5a1.5,1.5,0,0,0-3,0Z"/></g><g id="re"><path class="cls-5" d="M289,267l-9.68,15.22c-1,1.64,1.55,3.14,2.59,1.52l9.68-15.23c1-1.63-1.55-3.14-2.59-1.51Z"/></g><g id="red-2" data-name="red"><path class="cls-5" d="M102.62,245.79l5,3.33c1.61,1.07,3.12-1.52,1.52-2.59l-5-3.34c-1.61-1.07-3.12,1.53-1.51,2.6Z"/></g><g id="red-3" data-name="red"><path class="cls-5" d="M245.5,92.58a42.76,42.76,0,0,1-6.43,19.34c-1,1.65,1.57,3.15,2.59,1.52a46.06,46.06,0,0,0,6.84-20.86c.16-1.92-2.84-1.91-3,0Z"/></g><g id="yellow"><path class="cls-6" d="M200.4,297l5.14,9.95c.88,1.71,3.47.2,2.59-1.52L203,295.48c-.88-1.72-3.47-.2-2.59,1.51Z"/></g><g id="yellow-2" data-name="yellow"><path class="cls-6" d="M263.77,136v1.67a1.5,1.5,0,0,0,3,0V136a1.5,1.5,0,0,0-3,0Z"/></g><g id="yellow-3" data-name="yellow"><path class="cls-6" d="M132.37,127.94l4.12,18.55c.42,1.88,3.31,1.08,2.89-.8l-4.11-18.55c-.42-1.89-3.32-1.09-2.9.8Z"/></g><g id="yellow-4" data-name="yellow"><path class="cls-6" d="M288.63,242.58h15a1.5,1.5,0,0,0,0-3h-15a1.5,1.5,0,0,0,0,3Z"/></g><g id="yellow-5" data-name="yellow"><path class="cls-6" d="M250.26,332.69h11.68a1.5,1.5,0,0,0,0-3H250.26a1.5,1.5,0,0,0,0,3Z"/></g><g id="yellow-6" data-name="yellow"><path class="cls-6" d="M109.75,280.67A28.06,28.06,0,0,1,124,288.9c1.33,1.41,3.45-.72,2.12-2.12a31,31,0,0,0-15.59-9c-1.87-.44-2.67,2.45-.79,2.9Z"/></g><g id="green"><path class="cls-7" d="M266.57,207.35a32.8,32.8,0,0,0,15.91-1.2c1.82-.6,1-3.5-.8-2.89a29.6,29.6,0,0,1-14.31,1.2c-1.89-.31-2.71,2.58-.8,2.89Z"/></g><g id="green-2" data-name="green"><path class="cls-7" d="M175.28,153.07a17.87,17.87,0,0,0,7.52,10.82c1.6,1.08,3.1-1.51,1.51-2.59a14.74,14.74,0,0,1-6.13-9c-.44-1.88-3.34-1.08-2.9.8Z"/></g><g id="green-3" data-name="green"><path class="cls-7" d="M73.38,177.51h8.35a1.5,1.5,0,0,0,0-3H73.38a1.5,1.5,0,0,0,0,3Z"/></g><g id="green-4" data-name="green"><path class="cls-7" d="M170.16,267.61h8.35a1.5,1.5,0,0,0,0-3h-8.35a1.5,1.5,0,0,0,0,3Z"/></g></g></g></svg>