<svg xmlns="http://www.w3.org/2000/svg" viewBox="0 0 582 769"><defs><style>.cls-1{fill:#630;}.cls-2{fill:#fff;}.cls-3{fill:#c33;}</style></defs><title>Asset 1</title><g id="Layer_2" data-name="Layer 2"><g id="choco"><rect class="cls-1" x="15.5" y="118.5" width="343" height="395" rx="11.5"/><path d="M347,119a11,11,0,0,1,11,11V502a11,11,0,0,1-11,11H27a11,11,0,0,1-11-11V130a11,11,0,0,1,11-11H347m0-1H27a12,12,0,0,0-12,12V502a12,12,0,0,0,12,12H347a12,12,0,0,0,12-12V130a12,12,0,0,0-12-12Z"/><rect class="cls-1" x="49.5" y="145.5" width="75" height="86" rx="9.5"/><path d="M115,148a7,7,0,0,1,7,7v67a7,7,0,0,1-7,7H59a7,7,0,0,1-7-7V155a7,7,0,0,1,7-7h56m0-5H59a12,12,0,0,0-12,12v67a12,12,0,0,0,12,12h56a12,12,0,0,0,12-12V155a12,12,0,0,0-12-12Z"/><rect class="cls-1" x="149.5" y="145.5" width="75" height="86" rx="9.5"/><path d="M215,148a7,7,0,0,1,7,7v67a7,7,0,0,1-7,7H159a7,7,0,0,1-7-7V155a7,7,0,0,1,7-7h56m0-5H159a12,12,0,0,0-12,12v67a12,12,0,0,0,12,12h56a12,12,0,0,0,12-12V155a12,12,0,0,0-12-12Z"/><rect class="cls-1" x="257.5" y="145.5" width="75" height="86" rx="9.5"/><path d="M323,148a7,7,0,0,1,7,7v67a7,7,0,0,1-7,7H267a7,7,0,0,1-7-7V155a7,7,0,0,1,7-7h56m0-5H267a12,12,0,0,0-12,12v67a12,12,0,0,0,12,12h56a12,12,0,0,0,12-12V155a12,12,0,0,0-12-12Z"/><rect class="cls-1" x="266.5" y="261.5" width="75" height="86" rx="9.5"/><path d="M332,264a7,7,0,0,1,7,7v67a7,7,0,0,1-7,7H276a7,7,0,0,1-7-7V271a7,7,0,0,1,7-7h56m0-5H276a12,12,0,0,0-12,12v67a12,12,0,0,0,12,12h56a12,12,0,0,0,12-12V271a12,12,0,0,0-12-12Z"/><rect class="cls-1" x="266.5" y="380.5" width="75" height="86" rx="9.5"/><path d="M332,383a7,7,0,0,1,7,7v67a7,7,0,0,1-7,7H276a7,7,0,0,1-7-7V390a7,7,0,0,1,7-7h56m0-5H276a12,12,0,0,0-12,12v67a12,12,0,0,0,12,12h56a12,12,0,0,0,12-12V390a12,12,0,0,0-12-12Z"/><rect class="cls-1" x="161.5" y="261.5" width="75" height="86" rx="9.5"/><path d="M227,264a7,7,0,0,1,7,7v67a7,7,0,0,1-7,7H171a7,7,0,0,1-7-7V271a7,7,0,0,1,7-7h56m0-5H171a12,12,0,0,0-12,12v67a12,12,0,0,0,12,12h56a12,12,0,0,0,12-12V271a12,12,0,0,0-12-12Z"/><rect class="cls-1" x="49.5" y="261.5" width="75" height="86" rx="9.5"/><path d="M115,264a7,7,0,0,1,7,7v67a7,7,0,0,1-7,7H59a7,7,0,0,1-7-7V271a7,7,0,0,1,7-7h56m0-5H59a12,12,0,0,0-12,12v67a12,12,0,0,0,12,12h56a12,12,0,0,0,12-12V271a12,12,0,0,0-12-12Z"/><rect class="cls-1" x="166.5" y="377.5" width="75" height="86" rx="9.5"/><path d="M232,380a7,7,0,0,1,7,7v67a7,7,0,0,1-7,7H176a7,7,0,0,1-7-7V387a7,7,0,0,1,7-7h56m0-5H176a12,12,0,0,0-12,12v67a12,12,0,0,0,12,12h56a12,12,0,0,0,12-12V387a12,12,0,0,0-12-12Z"/></g><g id="white"><rect class="cls-2" x="370" width="212" height="237" rx="12"/></g><g id="box"><path class="cls-3" d="M12,768.5A11.51,11.51,0,0,1,.5,757V260.08l372,235.61V757A11.51,11.51,0,0,1,361,768.5Z"/><path d="M1,261,372,496V757a11,11,0,0,1-11,11H12A11,11,0,0,1,1,757V261m-1-1.82V757a12,12,0,0,0,12,12H361a12,12,0,0,0,12-12V495.41L0,259.17Z"/></g></g></svg>