<svg xmlns="http://www.w3.org/2000/svg" viewBox="0 0 223 364" id="el_Hk7gzEIUr3Q"><style>@-webkit-keyframes el_SkcxfVLIB2Q_Animation{4.44%{opacity: 1;}51.11%{opacity: 0;}96.67%{opacity: 1;}0%{opacity: 1;}100%{opacity: 1;}}@keyframes el_SkcxfVLIB2Q_Animation{4.44%{opacity: 1;}51.11%{opacity: 0;}96.67%{opacity: 1;}0%{opacity: 1;}100%{opacity: 1;}}#el_Hk7gzEIUr3Q *{-webkit-animation-duration: 3s;animation-duration: 3s;-webkit-animation-iteration-count: infinite;animation-iteration-count: infinite;-webkit-animation-timing-function: cubic-bezier(0, 0, 1, 1);animation-timing-function: cubic-bezier(0, 0, 1, 1);}#el_B1Igf4U8Bh7{fill: #030;}#el_ByPeGE8IrhQ{fill: #fff;}#el_B1OxMEI8SnX{fill: #115611;}#el_SkcxfVLIB2Q{fill: #3c3;-webkit-animation-name: el_SkcxfVLIB2Q_Animation;animation-name: el_SkcxfVLIB2Q_Animation;opacity: 1;}#el_SyRlz48LH37{fill: #f9c;}#el_B1JZGELUrnX{fill: #f9c;}#el_H1WZzNU8S2m{fill: #3c3;}#el_rkm-zVIIShm{fill: #3c3;}#el_SJVZMVILBh7{fill: #fff;}#el_B1BbGVULH37{fill: #fff;}#el_HyIZfVU8S37{fill: #fff;}#el_rJv-MN8IShQ{fill: #fff;}#el_Hk_bGV8IHhQ{fill: #630;}</style><defs/><title>Asset 1</title><g id="el_SyEgz4I8BnX" data-name="Layer 2"><g id="el_HJHxzN8ISnX" data-name="Layer 1"><path d="M112,363.5c-33.29,0-61.6-18.35-81.87-53.06C11,277.72.5,232.11.5,182c0-46.48,15.16-79.08,37.92-113.73,3.35-5.1,6.52-10.16,9.59-15C66.49,23.77,81.09.5,112,.5c28.28,0,41.26,20.21,57.69,45.79,3.75,5.83,7.62,11.87,11.9,18C202.84,94.74,222.5,130.07,222.5,182c0,50.23-10.35,95.85-29.13,128.44C173.36,345.15,145.23,363.5,112,363.5Z" id="el_B1Igf4U8Bh7"/><path d="M112,1c28,0,40.92,20.1,57.27,45.56,3.75,5.84,7.63,11.88,11.91,18C202.38,95,222,130.21,222,182c0,50.15-10.32,95.68-29.06,128.19C173,344.74,145,363,112,363s-61.26-18.26-81.44-52.81C11.5,277.54,1,232,1,182c0-46.36,15.13-78.88,37.84-113.45,3.35-5.11,6.53-10.17,9.6-15.06C66.84,24.16,81.37,1,112,1m0-1C75.54,0,61.16,32.74,38,68,16.6,100.58,0,133.73,0,182,0,282.52,41.86,364,112,364s111-81.48,111-182c0-50.26-18-85.06-41-118S147.07,0,112,0Z" id="el_ByPeGE8IrhQ"/><path d="M111.91,344.33c-27.28,0-50.48-16.36-67.1-47.31-15.68-29.2-24.31-69.9-24.31-114.61,0-41.47,12.44-70.56,31.11-101.47,2.75-4.55,5.36-9.07,7.88-13.43,15.15-26.27,27.12-47,52.42-47,23.15,0,33.79,18,47.26,40.82,3.07,5.21,6.25,10.59,9.76,16.06,17.44,27.17,33.57,58.7,33.57,105,0,44.83-8.49,85.53-23.9,114.61C162.2,328,139.14,344.33,111.91,344.33Z" id="el_B1OxMEI8SnX"/><path d="M111.91,21c22.86,0,33.44,17.91,46.83,40.57,3.07,5.22,6.26,10.6,9.77,16.08C185.91,104.76,202,136.21,202,182.41c0,44.75-8.47,85.37-23.84,114.38-16.31,30.77-39.22,47-66.25,47s-50.13-16.27-66.66-47.05C29.61,267.66,21,227,21,182.41,21,141.05,33.41,112,52,81.2c2.75-4.56,5.36-9.07,7.88-13.44C75,41.63,86.9,21,111.91,21m0-1C82,20,70.19,49.22,51.18,80.68,33.62,109.75,20,139.33,20,182.41c0,89.7,34.35,162.42,91.91,162.42S203,272.11,203,182.41c0-44.85-14.79-75.91-33.65-105.3S140.69,20,111.91,20Z" id="el_HJYezVIIHhQ"/><path d="M113.91,344.33c-27.28,0-50.48-16.36-67.1-47.31-15.68-29.2-24.31-69.9-24.31-114.61,0-41.47,12.44-70.56,31.11-101.47,2.75-4.55,5.36-9.07,7.88-13.43,15.15-26.27,27.12-47,52.42-47,23.15,0,33.79,18,47.26,40.82,3.07,5.21,6.25,10.59,9.76,16.06,17.44,27.17,33.57,58.7,33.57,105,0,44.83-8.49,85.53-23.9,114.61C164.2,328,141.14,344.33,113.91,344.33Z" id="el_SkcxfVLIB2Q"/><path d="M113.91,21c22.86,0,33.44,17.91,46.83,40.57,3.07,5.22,6.26,10.6,9.77,16.08C187.91,104.76,204,136.21,204,182.41c0,44.75-8.47,85.37-23.84,114.38-16.31,30.77-39.22,47-66.25,47s-50.13-16.27-66.66-47.05C31.61,267.66,23,227,23,182.41,23,141.05,35.41,112,54,81.2c2.75-4.56,5.36-9.07,7.88-13.44C77,41.63,88.9,21,113.91,21m0-1C84,20,72.19,49.22,53.18,80.68,35.62,109.75,22,139.33,22,182.41c0,89.7,34.35,162.42,91.91,162.42S205,272.11,205,182.41c0-44.85-14.79-75.91-33.65-105.3S142.69,20,113.91,20Z" id="el_rkjlzEU8Bh7"/><g id="el_rJheGN8IH3m"><path d="M96.94,91c4.45,5.74,10.84,10.77,18.48,10.47,6.86-.26,12.55-4.51,15.92-10.3a1.5,1.5,0,0,0-2.59-1.51c-3.18,5.45-8.76,9.39-15.29,8.71-6.1-.63-10.79-4.84-14.4-9.49-1.18-1.53-3.29.61-2.12,2.12Z" id="el_S1axMNLUBnm"/><circle cx="159.5" cy="97.5" r="3.5" id="el_SyRlz48LH37"/><circle cx="67.5" cy="97.5" r="3.5" id="el_B1JZGELUrnX"/><circle cx="140" cy="79" r="11.5" id="el_Hkg-fVLUS27"/><path d="M140,68a11,11,0,1,1-11,11,11,11,0,0,1,11-11m0-1a12,12,0,1,0,12,12,12,12,0,0,0-12-12Z" id="el_H1WZzNU8S2m"/><circle cx="87.03" cy="79" r="11.5" id="el_B1GWfEULBhX"/><path d="M87,68A11,11,0,1,1,76,79,11,11,0,0,1,87,68m0-1A12,12,0,1,0,99,79,12,12,0,0,0,87,67Z" id="el_rkm-zVIIShm"/><circle cx="144.97" cy="73.21" r="1.24" id="el_SJVZMVILBh7"/><circle cx="91.17" cy="73.21" r="1.24" id="el_B1BbGVULH37"/><circle cx="140.22" cy="78.78" r="4.78" id="el_HyIZfVU8S37"/><circle cx="86.74" cy="79.29" r="4.26" id="el_rJv-MN8IShQ"/></g><path d="M120,296.5C88.29,296.5,62.5,264,62.5,224a87.18,87.18,0,0,1,6.41-33.29c8.21-20,23.21-42.34,38.24-47.23a23.31,23.31,0,0,0,3.18-1.27c1.13-.53,1.51-.71,4.67-.71,2,0,2.15.07,2.58.27a11,11,0,0,0,2.31.72c15.65,3.54,39.23,25.25,47.55,40.53a85.87,85.87,0,0,1,10.06,41C177.5,264,151.71,296.5,120,296.5Z" id="el_Hk_bGV8IHhQ"/><path d="M115,142c1.88,0,2,.06,2.38.22a11.35,11.35,0,0,0,2.4.76c15.53,3.52,38.95,25.09,47.22,40.28A85.4,85.4,0,0,1,177,224c0,39.7-25.57,72-57,72s-57-32.3-57-72a87.83,87.83,0,0,1,6.37-33.1c8.16-19.87,23.06-42.1,37.94-47a24.77,24.77,0,0,0,3.24-1.28c1.08-.52,1.4-.67,4.45-.67m0-1c-5,0-3.34.48-8,2-16.11,5.25-31.08,29.31-38.56,47.52A88.4,88.4,0,0,0,62,224c0,40.32,26,73,58,73s58-32.68,58-73a86.46,86.46,0,0,0-10.12-41.22C159.28,167,135.55,145.52,120,142c-3.36-.76-1.47-1-5-1Z" id="el_SJFZMVLIHhX"/></g></g></svg>