<svg xmlns="http://www.w3.org/2000/svg" viewBox="0 0 582 600" id="el_S1F-PMOI2m"><style>@-webkit-keyframes el_rk0ebDfuI27_H15uGdI2m_Animation{0%{-webkit-transform: translate(370px, 237px) translate(-370px, -237px) translate(0px, 0px);transform: translate(370px, 237px) translate(-370px, -237px) translate(0px, 0px);}33.33%{-webkit-transform: translate(370px, 237px) translate(-370px, -237px) translate(-130px, 0px);transform: translate(370px, 237px) translate(-370px, -237px) translate(-130px, 0px);}60%{-webkit-transform: translate(370px, 237px) translate(-370px, -237px) translate(-130px, 115px);transform: translate(370px, 237px) translate(-370px, -237px) translate(-130px, 115px);}72.22%{-webkit-transform: translate(370px, 237px) translate(-370px, -237px) translate(-220px, 115px);transform: translate(370px, 237px) translate(-370px, -237px) translate(-220px, 115px);}100%{-webkit-transform: translate(370px, 237px) translate(-370px, -237px) translate(-220px, 115px);transform: translate(370px, 237px) translate(-370px, -237px) translate(-220px, 115px);}}@keyframes el_rk0ebDfuI27_H15uGdI2m_Animation{0%{-webkit-transform: translate(370px, 237px) translate(-370px, -237px) translate(0px, 0px);transform: translate(370px, 237px) translate(-370px, -237px) translate(0px, 0px);}33.33%{-webkit-transform: translate(370px, 237px) translate(-370px, -237px) translate(-130px, 0px);transform: translate(370px, 237px) translate(-370px, -237px) translate(-130px, 0px);}60%{-webkit-transform: translate(370px, 237px) translate(-370px, -237px) translate(-130px, 115px);transform: translate(370px, 237px) translate(-370px, -237px) translate(-130px, 115px);}72.22%{-webkit-transform: translate(370px, 237px) translate(-370px, -237px) translate(-220px, 115px);transform: translate(370px, 237px) translate(-370px, -237px) translate(-220px, 115px);}100%{-webkit-transform: translate(370px, 237px) translate(-370px, -237px) translate(-220px, 115px);transform: translate(370px, 237px) translate(-370px, -237px) translate(-220px, 115px);}}#el_S1F-PMOI2m *{-webkit-animation-duration: 3s;animation-duration: 3s;-webkit-animation-iteration-count: infinite;animation-iteration-count: infinite;-webkit-animation-timing-function: cubic-bezier(0, 0, 1, 1);animation-timing-function: cubic-bezier(0, 0, 1, 1);}#el_SJ3WDf_L2m{fill: #630;}#el_rkRZPM_Un7{fill: #630;}#el_Hkex-wMOIhQ{fill: #630;}#el_HyGl-wGuUh7{fill: #630;}#el_S1Eg-wf_Ih7{fill: #630;}#el_ByIe-vf_I3X{fill: #630;}#el_HJOx-vGOIhX{fill: #630;}#el_Bkql-vM_L2m{fill: #630;}#el_H12xWwG_UnQ{fill: #630;}#el_HJy-bPMuL3X{fill: #fff;}#el_HJZbbvGdU3X{fill: #c33;}#el_rk0ebDfuI27_H15uGdI2m{-webkit-animation-name: el_rk0ebDfuI27_H15uGdI2m_Animation;animation-name: el_rk0ebDfuI27_H15uGdI2m_Animation;}</style><defs/><title>Asset 1</title><g id="el_SyqZPfOU2Q" data-name="Layer 2"><g id="el_SJo-wzO8h7"><rect x="15.5" y="118.5" width="343" height="395" rx="11.5" id="el_SJ3WDf_L2m"/><path d="M347,119a11,11,0,0,1,11,11V502a11,11,0,0,1-11,11H27a11,11,0,0,1-11-11V130a11,11,0,0,1,11-11H347m0-1H27a12,12,0,0,0-12,12V502a12,12,0,0,0,12,12H347a12,12,0,0,0,12-12V130a12,12,0,0,0-12-12Z" id="el_S1aZwMdLn7"/><rect x="49.5" y="145.5" width="75" height="86" rx="9.5" id="el_rkRZPM_Un7"/><path d="M115,148a7,7,0,0,1,7,7v67a7,7,0,0,1-7,7H59a7,7,0,0,1-7-7V155a7,7,0,0,1,7-7h56m0-5H59a12,12,0,0,0-12,12v67a12,12,0,0,0,12,12h56a12,12,0,0,0,12-12V155a12,12,0,0,0-12-12Z" id="el_Hyyl-DzdU2X"/><rect x="149.5" y="145.5" width="75" height="86" rx="9.5" id="el_Hkex-wMOIhQ"/><path d="M215,148a7,7,0,0,1,7,7v67a7,7,0,0,1-7,7H159a7,7,0,0,1-7-7V155a7,7,0,0,1,7-7h56m0-5H159a12,12,0,0,0-12,12v67a12,12,0,0,0,12,12h56a12,12,0,0,0,12-12V155a12,12,0,0,0-12-12Z" id="el_B1blbDMd83Q"/><rect x="257.5" y="145.5" width="75" height="86" rx="9.5" id="el_HyGl-wGuUh7"/><path d="M323,148a7,7,0,0,1,7,7v67a7,7,0,0,1-7,7H267a7,7,0,0,1-7-7V155a7,7,0,0,1,7-7h56m0-5H267a12,12,0,0,0-12,12v67a12,12,0,0,0,12,12h56a12,12,0,0,0,12-12V155a12,12,0,0,0-12-12Z" id="el_ByXxZvfuL3Q"/><rect x="266.5" y="261.5" width="75" height="86" rx="9.5" id="el_S1Eg-wf_Ih7"/><path d="M332,264a7,7,0,0,1,7,7v67a7,7,0,0,1-7,7H276a7,7,0,0,1-7-7V271a7,7,0,0,1,7-7h56m0-5H276a12,12,0,0,0-12,12v67a12,12,0,0,0,12,12h56a12,12,0,0,0,12-12V271a12,12,0,0,0-12-12Z" id="el_H1Hx-vGuInm"/><rect x="266.5" y="380.5" width="75" height="86" rx="9.5" id="el_ByIe-vf_I3X"/><path d="M332,383a7,7,0,0,1,7,7v67a7,7,0,0,1-7,7H276a7,7,0,0,1-7-7V390a7,7,0,0,1,7-7h56m0-5H276a12,12,0,0,0-12,12v67a12,12,0,0,0,12,12h56a12,12,0,0,0,12-12V390a12,12,0,0,0-12-12Z" id="el_rkDxZvfuInQ"/><rect x="161.5" y="261.5" width="75" height="86" rx="9.5" id="el_HJOx-vGOIhX"/><path d="M227,264a7,7,0,0,1,7,7v67a7,7,0,0,1-7,7H171a7,7,0,0,1-7-7V271a7,7,0,0,1,7-7h56m0-5H171a12,12,0,0,0-12,12v67a12,12,0,0,0,12,12h56a12,12,0,0,0,12-12V271a12,12,0,0,0-12-12Z" id="el_ByYlbwG_U3X"/><rect x="49.5" y="261.5" width="75" height="86" rx="9.5" id="el_Bkql-vM_L2m"/><path d="M115,264a7,7,0,0,1,7,7v67a7,7,0,0,1-7,7H59a7,7,0,0,1-7-7V271a7,7,0,0,1,7-7h56m0-5H59a12,12,0,0,0-12,12v67a12,12,0,0,0,12,12h56a12,12,0,0,0,12-12V271a12,12,0,0,0-12-12Z" id="el_SJsxZvfd82X"/><rect x="166.5" y="377.5" width="75" height="86" rx="9.5" id="el_H12xWwG_UnQ"/><path d="M232,380a7,7,0,0,1,7,7v67a7,7,0,0,1-7,7H176a7,7,0,0,1-7-7V387a7,7,0,0,1,7-7h56m0-5H176a12,12,0,0,0-12,12v67a12,12,0,0,0,12,12h56a12,12,0,0,0,12-12V387a12,12,0,0,0-12-12Z" id="el_rkpeWPzuU2X"/></g><g id="el_rk0ebDfuI27_H15uGdI2m" data-animator-group="true" data-animator-type="0"><g id="el_rk0ebDfuI27"><rect x="370" width="212" height="237" rx="12" id="el_HJy-bPMuL3X"/></g></g><g id="el_Sklb-vz_L37"><path d="M12,768.5A11.51,11.51,0,0,1,.5,757V260.08l372,235.61V757A11.51,11.51,0,0,1,361,768.5Z" id="el_HJZbbvGdU3X"/><path d="M1,261,372,496V757a11,11,0,0,1-11,11H12A11,11,0,0,1,1,757V261m-1-1.82V757a12,12,0,0,0,12,12H361a12,12,0,0,0,12-12V495.41L0,259.17Z" id="el_SJzbbvM_Uhm"/></g></g></svg>