<svg xmlns="http://www.w3.org/2000/svg" viewBox="0 0 376 290" id="el_SkIe1mCim"><style>@-webkit-keyframes el_By9UeJ70om_rkR8JQRsX_Animation{0%{-webkit-transform: translate(576.8028564453125px, 259.8186340332031px) translate(-576.8028564453125px, -259.8186340332031px) translate(0px, 0px);transform: translate(576.8028564453125px, 259.8186340332031px) translate(-576.8028564453125px, -259.8186340332031px) translate(0px, 0px);}8.89%{-webkit-transform: translate(576.8028564453125px, 259.8186340332031px) translate(-576.8028564453125px, -259.8186340332031px) translate(0px, 5px);transform: translate(576.8028564453125px, 259.8186340332031px) translate(-576.8028564453125px, -259.8186340332031px) translate(0px, 5px);}20%{-webkit-transform: translate(576.8028564453125px, 259.8186340332031px) translate(-576.8028564453125px, -259.8186340332031px) translate(0px, 8px);transform: translate(576.8028564453125px, 259.8186340332031px) translate(-576.8028564453125px, -259.8186340332031px) translate(0px, 8px);}28.89%{-webkit-transform: translate(576.8028564453125px, 259.8186340332031px) translate(-576.8028564453125px, -259.8186340332031px) translate(0px, 10px);transform: translate(576.8028564453125px, 259.8186340332031px) translate(-576.8028564453125px, -259.8186340332031px) translate(0px, 10px);}41.11%{-webkit-transform: translate(576.8028564453125px, 259.8186340332031px) translate(-576.8028564453125px, -259.8186340332031px) translate(0px, 12px);transform: translate(576.8028564453125px, 259.8186340332031px) translate(-576.8028564453125px, -259.8186340332031px) translate(0px, 12px);}52.22%{-webkit-transform: translate(576.8028564453125px, 259.8186340332031px) translate(-576.8028564453125px, -259.8186340332031px) translate(0px, 2px);transform: translate(576.8028564453125px, 259.8186340332031px) translate(-576.8028564453125px, -259.8186340332031px) translate(0px, 2px);}65.56%{-webkit-transform: translate(576.8028564453125px, 259.8186340332031px) translate(-576.8028564453125px, -259.8186340332031px) translate(0px, 7px);transform: translate(576.8028564453125px, 259.8186340332031px) translate(-576.8028564453125px, -259.8186340332031px) translate(0px, 7px);}100%{-webkit-transform: translate(576.8028564453125px, 259.8186340332031px) translate(-576.8028564453125px, -259.8186340332031px) translate(0px, 7px);transform: translate(576.8028564453125px, 259.8186340332031px) translate(-576.8028564453125px, -259.8186340332031px) translate(0px, 7px);}}@keyframes el_By9UeJ70om_rkR8JQRsX_Animation{0%{-webkit-transform: translate(576.8028564453125px, 259.8186340332031px) translate(-576.8028564453125px, -259.8186340332031px) translate(0px, 0px);transform: translate(576.8028564453125px, 259.8186340332031px) translate(-576.8028564453125px, -259.8186340332031px) translate(0px, 0px);}8.89%{-webkit-transform: translate(576.8028564453125px, 259.8186340332031px) translate(-576.8028564453125px, -259.8186340332031px) translate(0px, 5px);transform: translate(576.8028564453125px, 259.8186340332031px) translate(-576.8028564453125px, -259.8186340332031px) translate(0px, 5px);}20%{-webkit-transform: translate(576.8028564453125px, 259.8186340332031px) translate(-576.8028564453125px, -259.8186340332031px) translate(0px, 8px);transform: translate(576.8028564453125px, 259.8186340332031px) translate(-576.8028564453125px, -259.8186340332031px) translate(0px, 8px);}28.89%{-webkit-transform: translate(576.8028564453125px, 259.8186340332031px) translate(-576.8028564453125px, -259.8186340332031px) translate(0px, 10px);transform: translate(576.8028564453125px, 259.8186340332031px) translate(-576.8028564453125px, -259.8186340332031px) translate(0px, 10px);}41.11%{-webkit-transform: translate(576.8028564453125px, 259.8186340332031px) translate(-576.8028564453125px, -259.8186340332031px) translate(0px, 12px);transform: translate(576.8028564453125px, 259.8186340332031px) translate(-576.8028564453125px, -259.8186340332031px) translate(0px, 12px);}52.22%{-webkit-transform: translate(576.8028564453125px, 259.8186340332031px) translate(-576.8028564453125px, -259.8186340332031px) translate(0px, 2px);transform: translate(576.8028564453125px, 259.8186340332031px) translate(-576.8028564453125px, -259.8186340332031px) translate(0px, 2px);}65.56%{-webkit-transform: translate(576.8028564453125px, 259.8186340332031px) translate(-576.8028564453125px, -259.8186340332031px) translate(0px, 7px);transform: translate(576.8028564453125px, 259.8186340332031px) translate(-576.8028564453125px, -259.8186340332031px) translate(0px, 7px);}100%{-webkit-transform: translate(576.8028564453125px, 259.8186340332031px) translate(-576.8028564453125px, -259.8186340332031px) translate(0px, 7px);transform: translate(576.8028564453125px, 259.8186340332031px) translate(-576.8028564453125px, -259.8186340332031px) translate(0px, 7px);}}@-webkit-keyframes el_ryKIxyQ0iX_SyDnJXCjQ_Animation{1.11%{-webkit-transform: translate(657.8028564453125px, 259.8186340332031px) translate(-657.8028564453125px, -259.8186340332031px) translate(0px, 5px);transform: translate(657.8028564453125px, 259.8186340332031px) translate(-657.8028564453125px, -259.8186340332031px) translate(0px, 5px);}8.89%{-webkit-transform: translate(657.8028564453125px, 259.8186340332031px) translate(-657.8028564453125px, -259.8186340332031px) translate(0px, 8px);transform: translate(657.8028564453125px, 259.8186340332031px) translate(-657.8028564453125px, -259.8186340332031px) translate(0px, 8px);}20%{-webkit-transform: translate(657.8028564453125px, 259.8186340332031px) translate(-657.8028564453125px, -259.8186340332031px) translate(0px, 10px);transform: translate(657.8028564453125px, 259.8186340332031px) translate(-657.8028564453125px, -259.8186340332031px) translate(0px, 10px);}32.22%{-webkit-transform: translate(657.8028564453125px, 259.8186340332031px) translate(-657.8028564453125px, -259.8186340332031px) translate(0px, 12px);transform: translate(657.8028564453125px, 259.8186340332031px) translate(-657.8028564453125px, -259.8186340332031px) translate(0px, 12px);}45.56%{-webkit-transform: translate(657.8028564453125px, 259.8186340332031px) translate(-657.8028564453125px, -259.8186340332031px) translate(0px, 2px);transform: translate(657.8028564453125px, 259.8186340332031px) translate(-657.8028564453125px, -259.8186340332031px) translate(0px, 2px);}66.67%{-webkit-transform: translate(657.8028564453125px, 259.8186340332031px) translate(-657.8028564453125px, -259.8186340332031px) translate(0px, 7px);transform: translate(657.8028564453125px, 259.8186340332031px) translate(-657.8028564453125px, -259.8186340332031px) translate(0px, 7px);}0%{-webkit-transform: translate(657.8028564453125px, 259.8186340332031px) translate(-657.8028564453125px, -259.8186340332031px) translate(0px, 5px);transform: translate(657.8028564453125px, 259.8186340332031px) translate(-657.8028564453125px, -259.8186340332031px) translate(0px, 5px);}100%{-webkit-transform: translate(657.8028564453125px, 259.8186340332031px) translate(-657.8028564453125px, -259.8186340332031px) translate(0px, 7px);transform: translate(657.8028564453125px, 259.8186340332031px) translate(-657.8028564453125px, -259.8186340332031px) translate(0px, 7px);}}@keyframes el_ryKIxyQ0iX_SyDnJXCjQ_Animation{1.11%{-webkit-transform: translate(657.8028564453125px, 259.8186340332031px) translate(-657.8028564453125px, -259.8186340332031px) translate(0px, 5px);transform: translate(657.8028564453125px, 259.8186340332031px) translate(-657.8028564453125px, -259.8186340332031px) translate(0px, 5px);}8.89%{-webkit-transform: translate(657.8028564453125px, 259.8186340332031px) translate(-657.8028564453125px, -259.8186340332031px) translate(0px, 8px);transform: translate(657.8028564453125px, 259.8186340332031px) translate(-657.8028564453125px, -259.8186340332031px) translate(0px, 8px);}20%{-webkit-transform: translate(657.8028564453125px, 259.8186340332031px) translate(-657.8028564453125px, -259.8186340332031px) translate(0px, 10px);transform: translate(657.8028564453125px, 259.8186340332031px) translate(-657.8028564453125px, -259.8186340332031px) translate(0px, 10px);}32.22%{-webkit-transform: translate(657.8028564453125px, 259.8186340332031px) translate(-657.8028564453125px, -259.8186340332031px) translate(0px, 12px);transform: translate(657.8028564453125px, 259.8186340332031px) translate(-657.8028564453125px, -259.8186340332031px) translate(0px, 12px);}45.56%{-webkit-transform: translate(657.8028564453125px, 259.8186340332031px) translate(-657.8028564453125px, -259.8186340332031px) translate(0px, 2px);transform: translate(657.8028564453125px, 259.8186340332031px) translate(-657.8028564453125px, -259.8186340332031px) translate(0px, 2px);}66.67%{-webkit-transform: translate(657.8028564453125px, 259.8186340332031px) translate(-657.8028564453125px, -259.8186340332031px) translate(0px, 7px);transform: translate(657.8028564453125px, 259.8186340332031px) translate(-657.8028564453125px, -259.8186340332031px) translate(0px, 7px);}0%{-webkit-transform: translate(657.8028564453125px, 259.8186340332031px) translate(-657.8028564453125px, -259.8186340332031px) translate(0px, 5px);transform: translate(657.8028564453125px, 259.8186340332031px) translate(-657.8028564453125px, -259.8186340332031px) translate(0px, 5px);}100%{-webkit-transform: translate(657.8028564453125px, 259.8186340332031px) translate(-657.8028564453125px, -259.8186340332031px) translate(0px, 7px);transform: translate(657.8028564453125px, 259.8186340332031px) translate(-657.8028564453125px, -259.8186340332031px) translate(0px, 7px);}}@-webkit-keyframes el_Hk_UeyX0j7_SJBs17Rj7_Animation{1.11%{-webkit-transform: translate(510.8028564453125px, 259.8186340332031px) translate(-510.8028564453125px, -259.8186340332031px) translate(0px, 5px);transform: translate(510.8028564453125px, 259.8186340332031px) translate(-510.8028564453125px, -259.8186340332031px) translate(0px, 5px);}11.11%{-webkit-transform: translate(510.8028564453125px, 259.8186340332031px) translate(-510.8028564453125px, -259.8186340332031px) translate(0px, 8px);transform: translate(510.8028564453125px, 259.8186340332031px) translate(-510.8028564453125px, -259.8186340332031px) translate(0px, 8px);}23.33%{-webkit-transform: translate(510.8028564453125px, 259.8186340332031px) translate(-510.8028564453125px, -259.8186340332031px) translate(0px, 10px);transform: translate(510.8028564453125px, 259.8186340332031px) translate(-510.8028564453125px, -259.8186340332031px) translate(0px, 10px);}35.56%{-webkit-transform: translate(510.8028564453125px, 259.8186340332031px) translate(-510.8028564453125px, -259.8186340332031px) translate(0px, 12px);transform: translate(510.8028564453125px, 259.8186340332031px) translate(-510.8028564453125px, -259.8186340332031px) translate(0px, 12px);}52.22%{-webkit-transform: translate(510.8028564453125px, 259.8186340332031px) translate(-510.8028564453125px, -259.8186340332031px) translate(0px, 2px);transform: translate(510.8028564453125px, 259.8186340332031px) translate(-510.8028564453125px, -259.8186340332031px) translate(0px, 2px);}65.56%{-webkit-transform: translate(510.8028564453125px, 259.8186340332031px) translate(-510.8028564453125px, -259.8186340332031px) translate(0px, 7px);transform: translate(510.8028564453125px, 259.8186340332031px) translate(-510.8028564453125px, -259.8186340332031px) translate(0px, 7px);}0%{-webkit-transform: translate(510.8028564453125px, 259.8186340332031px) translate(-510.8028564453125px, -259.8186340332031px) translate(0px, 5px);transform: translate(510.8028564453125px, 259.8186340332031px) translate(-510.8028564453125px, -259.8186340332031px) translate(0px, 5px);}100%{-webkit-transform: translate(510.8028564453125px, 259.8186340332031px) translate(-510.8028564453125px, -259.8186340332031px) translate(0px, 7px);transform: translate(510.8028564453125px, 259.8186340332031px) translate(-510.8028564453125px, -259.8186340332031px) translate(0px, 7px);}}@keyframes el_Hk_UeyX0j7_SJBs17Rj7_Animation{1.11%{-webkit-transform: translate(510.8028564453125px, 259.8186340332031px) translate(-510.8028564453125px, -259.8186340332031px) translate(0px, 5px);transform: translate(510.8028564453125px, 259.8186340332031px) translate(-510.8028564453125px, -259.8186340332031px) translate(0px, 5px);}11.11%{-webkit-transform: translate(510.8028564453125px, 259.8186340332031px) translate(-510.8028564453125px, -259.8186340332031px) translate(0px, 8px);transform: translate(510.8028564453125px, 259.8186340332031px) translate(-510.8028564453125px, -259.8186340332031px) translate(0px, 8px);}23.33%{-webkit-transform: translate(510.8028564453125px, 259.8186340332031px) translate(-510.8028564453125px, -259.8186340332031px) translate(0px, 10px);transform: translate(510.8028564453125px, 259.8186340332031px) translate(-510.8028564453125px, -259.8186340332031px) translate(0px, 10px);}35.56%{-webkit-transform: translate(510.8028564453125px, 259.8186340332031px) translate(-510.8028564453125px, -259.8186340332031px) translate(0px, 12px);transform: translate(510.8028564453125px, 259.8186340332031px) translate(-510.8028564453125px, -259.8186340332031px) translate(0px, 12px);}52.22%{-webkit-transform: translate(510.8028564453125px, 259.8186340332031px) translate(-510.8028564453125px, -259.8186340332031px) translate(0px, 2px);transform: translate(510.8028564453125px, 259.8186340332031px) translate(-510.8028564453125px, -259.8186340332031px) translate(0px, 2px);}65.56%{-webkit-transform: translate(510.8028564453125px, 259.8186340332031px) translate(-510.8028564453125px, -259.8186340332031px) translate(0px, 7px);transform: translate(510.8028564453125px, 259.8186340332031px) translate(-510.8028564453125px, -259.8186340332031px) translate(0px, 7px);}0%{-webkit-transform: translate(510.8028564453125px, 259.8186340332031px) translate(-510.8028564453125px, -259.8186340332031px) translate(0px, 5px);transform: translate(510.8028564453125px, 259.8186340332031px) translate(-510.8028564453125px, -259.8186340332031px) translate(0px, 5px);}100%{-webkit-transform: translate(510.8028564453125px, 259.8186340332031px) translate(-510.8028564453125px, -259.8186340332031px) translate(0px, 7px);transform: translate(510.8028564453125px, 259.8186340332031px) translate(-510.8028564453125px, -259.8186340332031px) translate(0px, 7px);}}#el_SkIe1mCim *{-webkit-animation-duration: 3s;animation-duration: 3s;-webkit-animation-iteration-count: infinite;animation-iteration-count: infinite;-webkit-animation-timing-function: cubic-bezier(0, 0, 1, 1);animation-timing-function: cubic-bezier(0, 0, 1, 1);}#el_SJW8gJQAiQ{fill: #fff;-webkit-transform: translate(-430px, -259.85px);transform: translate(-430px, -259.85px);}#el_BJGIl1m0jQ{-webkit-transform: translate(-430px, -259.85px);transform: translate(-430px, -259.85px);}#el_ByVLl1m0o7{-webkit-transform: translate(-430px, -259.85px);transform: translate(-430px, -259.85px);}#el_BJr8x1QAi7{-webkit-transform: translate(-430px, -259.85px);transform: translate(-430px, -259.85px);}#el_S1UUey7Rj7{-webkit-transform: translate(-430px, -259.85px);transform: translate(-430px, -259.85px);}#el_Hk_UeyX0j7{-webkit-transform: translate(-430px, -259.85px);transform: translate(-430px, -259.85px);}#el_ryKIxyQ0iX{-webkit-transform: translate(-430px, -259.85px);transform: translate(-430px, -259.85px);}#el_By9UeJ70om{-webkit-transform: translate(-430px, -259.85px);transform: translate(-430px, -259.85px);}#el_Hk_UeyX0j7_SJBs17Rj7{-webkit-animation-name: el_Hk_UeyX0j7_SJBs17Rj7_Animation;animation-name: el_Hk_UeyX0j7_SJBs17Rj7_Animation;-webkit-transform: translate(510.8028564453125px, 259.8186340332031px) translate(-510.8028564453125px, -259.8186340332031px) translate(0px, 5px);transform: translate(510.8028564453125px, 259.8186340332031px) translate(-510.8028564453125px, -259.8186340332031px) translate(0px, 5px);}#el_ryKIxyQ0iX_SyDnJXCjQ{-webkit-animation-name: el_ryKIxyQ0iX_SyDnJXCjQ_Animation;animation-name: el_ryKIxyQ0iX_SyDnJXCjQ_Animation;-webkit-transform: translate(657.8028564453125px, 259.8186340332031px) translate(-657.8028564453125px, -259.8186340332031px) translate(0px, 5px);transform: translate(657.8028564453125px, 259.8186340332031px) translate(-657.8028564453125px, -259.8186340332031px) translate(0px, 5px);}#el_By9UeJ70om_rkR8JQRsX{-webkit-animation-name: el_By9UeJ70om_rkR8JQRsX_Animation;animation-name: el_By9UeJ70om_rkR8JQRsX_Animation;-webkit-transform: translate(576.8028564453125px, 259.8186340332031px) translate(-576.8028564453125px, -259.8186340332031px) translate(0px, 0px);transform: translate(576.8028564453125px, 259.8186340332031px) translate(-576.8028564453125px, -259.8186340332031px) translate(0px, 0px);}</style><defs/><title>coffee</title><g id="el_B1g8xJQAjm"><path d="M588.5,549.5c-87.12,0-158-61.23-158-136.5a25.82,25.82,0,0,1,1-7l0-.07V356.5H746.67l.32,0c1.76,0,3.41.13,5,.27,31.55,2.78,55.53,24.14,53.46,47.61-1.9,21.58-25.17,37.85-54.14,37.85h0c-2.25,0-4.55-.1-6.81-.3l-.78-.08-.78-.08-.11.42c-7.56,29.94-26.94,57.16-54.6,76.64C660.21,538.61,624.77,549.5,588.5,549.5ZM746.5,413a120,120,0,0,1-2,21.69l-.17.91.85-.35c16.47-6.76,27.06-19.34,28.31-33.66,1.38-15.68-8.68-31.22-26.27-40.55l-.73-.39Z" id="el_SJW8gJQAiQ"/><path d="M745.66,357H746l.94,0c1.75,0,3.38.13,5,.27,31.27,2.75,55,23.87,53,47.07-1.87,21.32-24.93,37.39-53.64,37.39-2.24,0-4.51-.1-6.77-.3l-.77-.07-.35,0-.86-.09-.21.84c-7.53,29.82-26.85,56.94-54.4,76.35a165,165,0,0,1-45.75,22.44A179.41,179.41,0,0,1,588.5,549c-42.1,0-81.67-14.16-111.42-39.88S431,449.3,431,413a25.31,25.31,0,0,1,1-6.9l0-.13V357H745.66m-2,79.41,1.7-.7c16.64-6.83,27.35-19.57,28.62-34.07,1.4-15.89-8.77-31.62-26.53-41l-1.47-.78V413a118.82,118.82,0,0,1-2,21.6l-.33,1.81m2-80.41H431v49.83a26.36,26.36,0,0,0-1,7.17c0,75.66,71,137,158.5,137,75.89,0,139.31-46.1,154.85-107.67.38,0,.75.09,1.14.12q3.46.3,6.85.3c28.87,0,52.7-16.23,54.64-38.3,2.09-23.79-22.05-45.35-53.91-48.16-1.71-.15-3.4-.23-5.07-.27v0h-1.34ZM745,434.79A119.91,119.91,0,0,0,747,413V361.48c16.84,8.94,27.42,24,26,40.07-1.3,14.69-12.29,26.79-28,33.24Z" id="el_BJGIl1m0jQ"/></g><g id="el_Hk7LlyQRj7"><path d="M517.14,434.32a44,44,0,0,1,34.46,0c1.78.75,2.56-2.16.8-2.89a46.33,46.33,0,0,0-36.06,0c-1.75.73-1,3.64.8,2.89Z" id="el_ByVLl1m0o7"/><path d="M605.5,434.26a39.54,39.54,0,0,1,36.74,0c1.72.87,3.24-1.71,1.52-2.59a42.75,42.75,0,0,0-39.78,0c-1.72.88-.2,3.47,1.52,2.59Z" id="el_BJr8x1QAi7"/><path d="M551.35,481.8c-6.55,20,17.24,31.88,33.75,31.15s37.62-13,34.49-32.21c-.31-1.9-3.21-1.09-2.9.8,2.8,17.11-17.19,27.77-31.59,28.41s-36.8-9.2-30.86-27.35c.6-1.84-2.29-2.63-2.89-.8Z" id="el_S1UUey7Rj7"/></g><g id="el_r1vIeyQCj7"><g id="el_Hk_UeyX0j7_SJBs17Rj7" data-animator-group="true" data-animator-type="0"><path d="M534,259.9c-11.39,2.87-25,8.85-23,23,1.85,13.39,24.65,31,13.11,44.59-1.24,1.46.87,3.6,2.12,2.12,8.58-10.12.78-22.92-5.28-32.08-4.62-7-10.31-16.41-5-24.6,4-6.21,12.12-8.46,18.86-10.16,1.87-.47,1.08-3.37-.79-2.9Z" id="el_Hk_UeyX0j7"/></g><g id="el_ryKIxyQ0iX_SyDnJXCjQ" data-animator-group="true" data-animator-type="0"><path d="M681,259.9c-11.39,2.87-25,8.85-23,23,1.85,13.39,24.65,31,13.11,44.59-1.24,1.46.87,3.6,2.12,2.12,8.58-10.12.78-22.92-5.28-32.08-4.62-7-10.31-16.41-5-24.6,4-6.21,12.12-8.46,18.86-10.16,1.87-.47,1.08-3.37-.79-2.9Z" id="el_ryKIxyQ0iX"/></g><g id="el_By9UeJ70om_rkR8JQRsX" data-animator-group="true" data-animator-type="0"><path d="M600,259.9c-11.39,2.87-25,8.85-23,23,1.85,13.39,24.65,31,13.11,44.59-1.24,1.46.87,3.6,2.12,2.12,8.58-10.12.78-22.92-5.28-32.08-4.62-7-10.31-16.41-5-24.6,4-6.21,12.12-8.46,18.86-10.16,1.87-.47,1.08-3.37-.79-2.9Z" id="el_By9UeJ70om"/></g></g></svg>