<svg xmlns="http://www.w3.org/2000/svg" viewBox="0 0 287 550" id="el_BJErEArU2Q" height="550" width="287"><style>@-webkit-keyframes el_SJLHEABI2Q_B12P0BLhm_Animation{0%{-webkit-transform: translate(139.4999885559082px, 102.50000745450143px) translate(-139.4999885559082px, -102.50000745450143px) translate(0px, 0px);transform: translate(139.4999885559082px, 102.50000745450143px) translate(-139.4999885559082px, -102.50000745450143px) translate(0px, 0px);}100%{-webkit-transform: translate(139.4999885559082px, 102.50000745450143px) translate(-139.4999885559082px, -102.50000745450143px) translate(0px, 180px);transform: translate(139.4999885559082px, 102.50000745450143px) translate(-139.4999885559082px, -102.50000745450143px) translate(0px, 180px);}}@keyframes el_SJLHEABI2Q_B12P0BLhm_Animation{0%{-webkit-transform: translate(139.4999885559082px, 102.50000745450143px) translate(-139.4999885559082px, -102.50000745450143px) translate(0px, 0px);transform: translate(139.4999885559082px, 102.50000745450143px) translate(-139.4999885559082px, -102.50000745450143px) translate(0px, 0px);}100%{-webkit-transform: translate(139.4999885559082px, 102.50000745450143px) translate(-139.4999885559082px, -102.50000745450143px) translate(0px, 180px);transform: translate(139.4999885559082px, 102.50000745450143px) translate(-139.4999885559082px, -102.50000745450143px) translate(0px, 180px);}}@-webkit-keyframes el_SJLHEABI2Q_SJfIArU3X_Animation{0%{-webkit-transform: translate(139.4999885559082px, 102.50000745450143px) rotate(0deg) translate(-139.4999885559082px, -102.50000745450143px);transform: translate(139.4999885559082px, 102.50000745450143px) rotate(0deg) translate(-139.4999885559082px, -102.50000745450143px);}100%{-webkit-transform: translate(139.4999885559082px, 102.50000745450143px) rotate(361deg) translate(-139.4999885559082px, -102.50000745450143px);transform: translate(139.4999885559082px, 102.50000745450143px) rotate(361deg) translate(-139.4999885559082px, -102.50000745450143px);}}@keyframes el_SJLHEABI2Q_SJfIArU3X_Animation{0%{-webkit-transform: translate(139.4999885559082px, 102.50000745450143px) rotate(0deg) translate(-139.4999885559082px, -102.50000745450143px);transform: translate(139.4999885559082px, 102.50000745450143px) rotate(0deg) translate(-139.4999885559082px, -102.50000745450143px);}100%{-webkit-transform: translate(139.4999885559082px, 102.50000745450143px) rotate(361deg) translate(-139.4999885559082px, -102.50000745450143px);transform: translate(139.4999885559082px, 102.50000745450143px) rotate(361deg) translate(-139.4999885559082px, -102.50000745450143px);}}#el_BJErEArU2Q *{-webkit-animation-duration: 3s;animation-duration: 3s;-webkit-animation-iteration-count: infinite;animation-iteration-count: infinite;-webkit-animation-timing-function: cubic-bezier(0, 0, 1, 1);animation-timing-function: cubic-bezier(0, 0, 1, 1);}#el_HJDHEArU2Q{fill: #c63;}#el_SkOBNRSIhQ{fill: #633;}#el_H1cHVCBUh7{fill: #633;}#el_Sy2BVRH82Q{fill: #633;}#el_BJABN0H8nX{fill: #633;}#el_BkeeSNAB8hX{fill: #633;}#el_HyfgrV0S837{fill: #633;}#el_HyHxr4ABI2m{fill: #fff;}#el_SJLHEABI2Q_SJfIArU3X{-webkit-animation-name: el_SJLHEABI2Q_SJfIArU3X_Animation;animation-name: el_SJLHEABI2Q_SJfIArU3X_Animation;-webkit-transform: translate(139.4999885559082px, 102.50000745450143px) rotate(0deg) translate(-139.4999885559082px, -102.50000745450143px);transform: translate(139.4999885559082px, 102.50000745450143px) rotate(0deg) translate(-139.4999885559082px, -102.50000745450143px);}#el_SJLHEABI2Q_B12P0BLhm{-webkit-animation-name: el_SJLHEABI2Q_B12P0BLhm_Animation;animation-name: el_SJLHEABI2Q_B12P0BLhm_Animation;-webkit-transform: translate(139.4999885559082px, 102.50000745450143px) translate(-139.4999885559082px, -102.50000745450143px) translate(0px, 0px);transform: translate(139.4999885559082px, 102.50000745450143px) translate(-139.4999885559082px, -102.50000745450143px) translate(0px, 0px);}</style><defs/><title>Asset 1</title><g id="el_rJrrEASUhm" data-name="Layer 2"><g id="el_SJLHEABI2Q_B12P0BLhm" data-animator-group="true" data-animator-type="0"><g id="el_SJLHEABI2Q_SJfIArU3X" data-animator-group="true" data-animator-type="1"><g id="el_SJLHEABI2Q" data-name="Layer 1"><path d="M139.54,0A102.5,102.5,0,1,0,242,102.5,102.5,102.5,0,0,0,139.54,0ZM68,76.5A14.5,14.5,0,1,1,82.54,91,14.5,14.5,0,0,1,68,76.5ZM96.54,168A14.5,14.5,0,1,1,111,153.5,14.5,14.5,0,0,1,96.54,168ZM146,113a10,10,0,1,1,10-10A10,10,0,0,1,146,113Zm-9-78.5A19.5,19.5,0,1,1,156.54,54,19.5,19.5,0,0,1,137,34.5ZM176,168a9,9,0,1,1,9-9A9,9,0,0,1,176,168Zm32.5-66A12.5,12.5,0,1,1,221,89.5,12.5,12.5,0,0,1,208.54,102Z" id="el_HJDHEArU2Q"/><circle cx="82.54" cy="76.5" r="14" id="el_SkOBNRSIhQ"/><path d="M82.54,63A13.5,13.5,0,1,1,69,76.5,13.52,13.52,0,0,1,82.54,63m0-1A14.5,14.5,0,1,0,97,76.5,14.5,14.5,0,0,0,82.54,62Z" id="el_SJKH40HI3Q"/><circle cx="208.54" cy="89.5" r="12" id="el_H1cHVCBUh7"/><path d="M208.54,78A11.5,11.5,0,1,1,197,89.5,11.51,11.51,0,0,1,208.54,78m0-1A12.5,12.5,0,1,0,221,89.5,12.5,12.5,0,0,0,208.54,77Z" id="el_rkoSVRrI2X"/><circle cx="176.04" cy="159" r="8.5" id="el_Sy2BVRH82Q"/><path d="M176,151a8,8,0,1,1-8,8,8,8,0,0,1,8-8m0-1a9,9,0,1,0,9,9,9,9,0,0,0-9-9Z" id="el_SkaHEArI3m"/><circle cx="156.54" cy="34.5" r="19" id="el_BJABN0H8nX"/><path d="M156.54,16A18.5,18.5,0,1,1,138,34.5,18.52,18.52,0,0,1,156.54,16m0-1A19.5,19.5,0,1,0,176,34.5,19.5,19.5,0,0,0,156.54,15Z" id="el_r1JlSNAS8nX"/><circle cx="146.04" cy="103" r="9.5" id="el_BkeeSNAB8hX"/><path d="M146,94a9,9,0,1,1-9,9,9,9,0,0,1,9-9m0-1a10,10,0,1,0,10,10,10,10,0,0,0-10-10Z" id="el_HJZgrERrL2Q"/><circle cx="96.54" cy="153.5" r="14" id="el_HyfgrV0S837"/><path d="M96.54,140A13.5,13.5,0,1,1,83,153.5,13.52,13.52,0,0,1,96.54,140m0-1A14.5,14.5,0,1,0,111,153.5,14.5,14.5,0,0,0,96.54,139Z" id="el_SyXxBV0BIhX"/></g></g></g><g id="el_BJ4lHECHIhQ"><polygon points="35 549.5 0.56 239.5 286.46 239.5 240.46 549.5 35 549.5" id="el_HyHxr4ABI2m"/><path d="M285.88,240,240,549H35.44L1.12,240H285.88m1.16-1H0L34.55,550H240.89L287,239Z" id="el_rkLlHVRrL3X"/></g></g></svg>