<svg xmlns="http://www.w3.org/2000/svg" viewBox="0 0 288 300" id="el_SkYnIlMLhQ"><style>@-webkit-keyframes el_B1Pe28efIhX_Hyh--G83Q_Animation{0%{-webkit-transform: translate(22.35000228881836px, 163.88999938964844px) rotate(0deg) translate(-22.35000228881836px, -163.88999938964844px);transform: translate(22.35000228881836px, 163.88999938964844px) rotate(0deg) translate(-22.35000228881836px, -163.88999938964844px);}50%{-webkit-transform: translate(22.35000228881836px, 163.88999938964844px) rotate(360deg) translate(-22.35000228881836px, -163.88999938964844px);transform: translate(22.35000228881836px, 163.88999938964844px) rotate(360deg) translate(-22.35000228881836px, -163.88999938964844px);}100%{-webkit-transform: translate(22.35000228881836px, 163.88999938964844px) rotate(360deg) translate(-22.35000228881836px, -163.88999938964844px);transform: translate(22.35000228881836px, 163.88999938964844px) rotate(360deg) translate(-22.35000228881836px, -163.88999938964844px);}}@keyframes el_B1Pe28efIhX_Hyh--G83Q_Animation{0%{-webkit-transform: translate(22.35000228881836px, 163.88999938964844px) rotate(0deg) translate(-22.35000228881836px, -163.88999938964844px);transform: translate(22.35000228881836px, 163.88999938964844px) rotate(0deg) translate(-22.35000228881836px, -163.88999938964844px);}50%{-webkit-transform: translate(22.35000228881836px, 163.88999938964844px) rotate(360deg) translate(-22.35000228881836px, -163.88999938964844px);transform: translate(22.35000228881836px, 163.88999938964844px) rotate(360deg) translate(-22.35000228881836px, -163.88999938964844px);}100%{-webkit-transform: translate(22.35000228881836px, 163.88999938964844px) rotate(360deg) translate(-22.35000228881836px, -163.88999938964844px);transform: translate(22.35000228881836px, 163.88999938964844px) rotate(360deg) translate(-22.35000228881836px, -163.88999938964844px);}}@-webkit-keyframes el_rk8xnUxG8hm_ryUogM837_Animation{0%{-webkit-transform: translate(22.937240600585938px, 163.1300048828125px) rotate(0deg) translate(-22.937240600585938px, -163.1300048828125px);transform: translate(22.937240600585938px, 163.1300048828125px) rotate(0deg) translate(-22.937240600585938px, -163.1300048828125px);}50%{-webkit-transform: translate(22.937240600585938px, 163.1300048828125px) rotate(360deg) translate(-22.937240600585938px, -163.1300048828125px);transform: translate(22.937240600585938px, 163.1300048828125px) rotate(360deg) translate(-22.937240600585938px, -163.1300048828125px);}100%{-webkit-transform: translate(22.937240600585938px, 163.1300048828125px) rotate(360deg) translate(-22.937240600585938px, -163.1300048828125px);transform: translate(22.937240600585938px, 163.1300048828125px) rotate(360deg) translate(-22.937240600585938px, -163.1300048828125px);}}@keyframes el_rk8xnUxG8hm_ryUogM837_Animation{0%{-webkit-transform: translate(22.937240600585938px, 163.1300048828125px) rotate(0deg) translate(-22.937240600585938px, -163.1300048828125px);transform: translate(22.937240600585938px, 163.1300048828125px) rotate(0deg) translate(-22.937240600585938px, -163.1300048828125px);}50%{-webkit-transform: translate(22.937240600585938px, 163.1300048828125px) rotate(360deg) translate(-22.937240600585938px, -163.1300048828125px);transform: translate(22.937240600585938px, 163.1300048828125px) rotate(360deg) translate(-22.937240600585938px, -163.1300048828125px);}100%{-webkit-transform: translate(22.937240600585938px, 163.1300048828125px) rotate(360deg) translate(-22.937240600585938px, -163.1300048828125px);transform: translate(22.937240600585938px, 163.1300048828125px) rotate(360deg) translate(-22.937240600585938px, -163.1300048828125px);}}#el_SkYnIlMLhQ *{-webkit-animation-duration: 3s;animation-duration: 3s;-webkit-animation-iteration-count: infinite;animation-iteration-count: infinite;-webkit-animation-timing-function: cubic-bezier(0, 0, 1, 1);animation-timing-function: cubic-bezier(0, 0, 1, 1);}#el_Bk2hLxGUnm{fill: #3cc;}#el_rk62Ilf82m{fill: #fff;stroke: #3cc;stroke-miterlimit: 10;}#el_rJCh8xGUnX{fill: #fff;stroke: #3cc;stroke-miterlimit: 10;}#el_HJkxhLlzU3Q{fill: #c93;}#el_Hyme2IgG83X{fill: none;}#el_BJEgnUxGUhm{fill: #fff;}#el_rk8xnUxG8hm{fill: #fff;}#el_rk8xnUxG8hm_ryUogM837{-webkit-animation-name: el_rk8xnUxG8hm_ryUogM837_Animation;animation-name: el_rk8xnUxG8hm_ryUogM837_Animation;-webkit-transform: translate(22.937240600585938px, 163.1300048828125px) rotate(0deg) translate(-22.937240600585938px, -163.1300048828125px);transform: translate(22.937240600585938px, 163.1300048828125px) rotate(0deg) translate(-22.937240600585938px, -163.1300048828125px);}#el_B1Pe28efIhX_Hyh--G83Q{-webkit-animation-name: el_B1Pe28efIhX_Hyh--G83Q_Animation;animation-name: el_B1Pe28efIhX_Hyh--G83Q_Animation;-webkit-transform: translate(22.35000228881836px, 163.88999938964844px) rotate(0deg) translate(-22.35000228881836px, -163.88999938964844px);transform: translate(22.35000228881836px, 163.88999938964844px) rotate(0deg) translate(-22.35000228881836px, -163.88999938964844px);}</style><defs/><title>Asset 2</title><g id="el_ry5hUxML2X" data-name="Layer 2"><g id="el_B1snIlMIn7"><path d="M143.71,60.33c-29,0-52.5,26.86-52.5,60s23.5,60,52.5,60,52.5-26.87,52.5-60S172.7,60.33,143.71,60.33Zm-28.5,42.5a10.5,10.5,0,1,1,10.5,10.5A10.5,10.5,0,0,1,115.21,102.83Zm26.73,38.34-23.23-21,49.5.66Zm20.77-27.84a10.5,10.5,0,1,1,10.5-10.5A10.5,10.5,0,0,1,162.71,113.33Z" id="el_Bk2hLxGUnm"/><path d="M136.21,102.83a10.5,10.5,0,1,0-10.5,10.5A10.5,10.5,0,0,0,136.21,102.83Zm-16.5.5a6.5,6.5,0,1,1,6.5,6.5A6.5,6.5,0,0,1,119.71,103.33Z" id="el_rk62Ilf82m"/><path d="M162.71,92.33a10.5,10.5,0,1,0,10.5,10.5A10.5,10.5,0,0,0,162.71,92.33Zm.5,17.5a6.5,6.5,0,1,1,6.5-6.5A6.5,6.5,0,0,1,163.21,109.83Z" id="el_rJCh8xGUnX"/><polygon points="141.94 141.17 168.21 120.83 118.71 120.17 141.94 141.17" id="el_HJkxhLlzU3Q"/><circle cx="126.21" cy="103.33" r="6.5" id="el_SJegnIeMIn7"/><circle cx="163.21" cy="103.33" r="6.5" id="el_H1-x38ezI37"/></g><g id="el_H1zlnIeM83X" data-name="Layer 1"><path d="M288.42,297.54l-1.43-159-18,.16c.55,84.55-54,153.5-122.11,154.11S23,225.46,22,140.92l-22,.2,1.43,159Z" id="el_Hyme2IgG83X"/><path d="M146,292.31c-32.58,0-63.33-15.7-86.6-44.2s-36.28-66.3-36.85-106.69l246-2.21c.31,83.86-54.16,152.49-121.63,153.1Z" id="el_BJEgnUxGUhm"/><path d="M268,139.71c.05,40.3-12.4,78.23-35.12,106.9-22.86,28.85-53.4,44.9-86,45.2H146c-32.42,0-63-15.63-86.21-44C36.71,219.57,23.69,182,23,141.91l245-2.2m1-1L22,140.92c1,84.16,56.31,151.89,124,151.89h.91C214.94,292.2,269.53,223.25,269,138.7Z" id="el_H1SlhUgzIhX"/><g id="el_rk8xnUxG8hm_ryUogM837" data-animator-group="true" data-animator-type="1"><path d="M209.74,135.29l-68,22-72-22-46.75,24c-.06-2.61-.08-5.19,0-7.68.63-40.55,13.84-78.56,37.21-107S114.15.5,146.66.5h1.56C216,1.56,270.14,71,268.84,155.39c0,2.51-.13,5.11-.28,7.74Z" id="el_rk8xnUxG8hm"/></g><g id="el_B1Pe28efIhX_Hyh--G83Q" data-animator-group="true" data-animator-type="1"><path d="M146.66,1h1.55c32.67.51,63.16,16.81,85.85,45.92S269,114.61,268.34,155.38c0,2.27-.11,4.61-.24,7l-58-27.44-.36-.17-.38.13-67.7,21.9L70,134.87l-.39-.12-.36.19L23.39,158.47c-.05-2.33-.05-4.64,0-6.87C24,111.17,37.17,73.27,60.46,44.88S114.3,1,146.66,1m0-1c-67.5,0-123,67.47-124.29,151.59q-.06,4.28.06,8.5l47.28-24.26,72,22,68-22L269,163.89q.25-4.21.32-8.49C270.65,70.63,216.42,1.06,148.22,0Z" id="el_B1Pe28efIhX"/></g></g></g></svg>