<svg version="1.1" id="el_ByKHARi4nQ" xmlns="http://www.w3.org/2000/svg" xmlns:xlink="http://www.w3.org/1999/xlink" x="0px" y="0px" viewBox="0 0 600 600" style="enable-background:new 0 0 1200 1200;" xml:space="preserve" height="600" width="600"><style>@-webkit-keyframes el_HkcHAAoVn7_SyZkyn42m_Animation{
0%{-webkit-transform: translate(117px, 140.79002380371094px) scale(1, 1) translate(-117px, -140.79002380371094px);transform: translate(117px, 140.79002380371094px) scale(1, 1) translate(-117px, -140.79002380371094px);}
95.56%{-webkit-transform: translate(117px, 140.79002380371094px) scale(0.05, 0.05) translate(-117px, -140.79002380371094px);transform: translate(117px, 140.79002380371094px) scale(0.05, 0.05) translate(-117px, -140.79002380371094px);}
100%{-webkit-transform: translate(117px, 140.79002380371094px) scale(0.05, 0.05) translate(-117px, -140.79002380371094px);transform: translate(117px, 140.79002380371094px) scale(0.05, 0.05) translate(-117px, -140.79002380371094px);}}
@keyframes el_HkcHAAoVn7_SyZkyn42m_Animation{
0%{-webkit-transform: translate(117px, 140.79002380371094px) scale(1, 1) translate(-117px, -140.79002380371094px);transform: translate(117px, 140.79002380371094px) scale(1, 1) translate(-117px, -140.79002380371094px);}
95.56%{-webkit-transform: translate(117px, 140.79002380371094px) scale(0.05, 0.05) translate(-117px, -140.79002380371094px);transform: translate(117px, 140.79002380371094px) scale(0.05, 0.05) translate(-117px, -140.79002380371094px);}
100%{-webkit-transform: translate(117px, 140.79002380371094px) scale(0.05, 0.05) translate(-117px, -140.79002380371094px);transform: translate(117px, 140.79002380371094px) scale(0.05, 0.05) translate(-117px, -140.79002380371094px);}}
#el_ByKHARi4nQ *{-webkit-animation-duration: 3s;animation-duration: 3s;-webkit-animation-iteration-count: infinite;animation-iteration-count: infinite;-webkit-animation-timing-function: cubic-bezier(0, 0, 1, 1);animation-timing-function: cubic-bezier(0, 0, 1, 1);}
#el_HkcHAAoVn7{stroke: #66CCCC;stroke-width: 8;stroke-miterlimit: 10;}
#el_HkcHAAoVn7_SyZkyn42m{-webkit-animation-name: el_HkcHAAoVn7_SyZkyn42m_Animation;animation-name: el_HkcHAAoVn7_SyZkyn42m_Animation;-webkit-transform: translate(117px, 140.79002380371094px) scale(1, 1) translate(-117px, -140.79002380371094px);transform: translate(117px, 140.79002380371094px) scale(1, 1) translate(-117px, -140.79002380371094px);}</style>

<g id="el_HkcHAAoVn7_SyZkyn42m" data-animator-group="true" data-animator-type="2"><path d="M501.54,580.45L117,197.33c0,0,9.9-21.21,21.21-16.96s77.76,14.14,111.69,32.52s305.37,219.13,336.47,250.23&#10;&#9;s31.1,31.1,31.1,31.1s25.45-26.86,28.27-57.96c2.83-31.1-4.24-43.83,0-69.27s12.72-45.24,29.69-65.03s94.72-79.17,94.72-79.17&#10;&#9;l110.27-82l12.72,16.96L702.29,361.32l12.72,18.38l196.51-199.34l16.96,14.14L731.98,391.01l18.38,19.79l200.75-196.51l15.55,16.96&#10;&#9;L768.73,432.01l21.21,21.21l189.44-206.41l22.62,18.38c0,0-159.75,213.47-175.3,220.54c-15.55,7.07-130.06,24.03-132.89,21.21&#10;&#9;c-2.83-2.83-67.86,41-67.86,49.48s0,55.14,11.31,53.72c11.31-1.41,8.48,12.72,21.21,19.79c12.72,7.07,28.27,14.14,28.27,14.14&#10;&#9;l220.54,214.89c0,0,19.79,9.9,19.79,32.52s1.41,41-15.55,52.31s-45.24,1.41-50.89-7.07c-5.65-8.48-301.13-295.47-301.13-295.47&#10;&#9;L256.96,949.44c0,0-5.65,5.65-18.38,8.48c-6.36,1.41-16.84-2.76-25.45-7.78c-3.9-2.28-8.25-5.3-11.88-7.76&#10;&#9;c-5.27-3.58-8.99-9.02-10.39-15.24l-0.88-3.89c-2.91-12.92-5.38-27.53-2.31-27.53C193.34,895.71,501.54,580.45,501.54,580.45z" id="el_HkcHAAoVn7"/></g>
</svg>