<svg xmlns="http://www.w3.org/2000/svg" viewBox="-40 -58 300 400" id="el_BJCoJ0z837" height="400" width="300"><style>@-webkit-keyframes el_BJggsk0M8h7_S1jZRfL3X_Animation{0%{-webkit-transform: translate(102.1850021481514px, 86px) scale(1, 1) translate(-102.1850021481514px, -86px);transform: translate(102.1850021481514px, 86px) scale(1, 1) translate(-102.1850021481514px, -86px);}11.11%{-webkit-transform: translate(102.1850021481514px, 86px) scale(1.2, 1.2) translate(-102.1850021481514px, -86px);transform: translate(102.1850021481514px, 86px) scale(1.2, 1.2) translate(-102.1850021481514px, -86px);}26.67%{-webkit-transform: translate(102.1850021481514px, 86px) scale(1, 1) translate(-102.1850021481514px, -86px);transform: translate(102.1850021481514px, 86px) scale(1, 1) translate(-102.1850021481514px, -86px);}40%{-webkit-transform: translate(102.1850021481514px, 86px) scale(1.3, 1.3) translate(-102.1850021481514px, -86px);transform: translate(102.1850021481514px, 86px) scale(1.3, 1.3) translate(-102.1850021481514px, -86px);}53.33%{-webkit-transform: translate(102.1850021481514px, 86px) scale(0.9, 0.9) translate(-102.1850021481514px, -86px);transform: translate(102.1850021481514px, 86px) scale(0.9, 0.9) translate(-102.1850021481514px, -86px);}65.56%{-webkit-transform: translate(102.1850021481514px, 86px) scale(1, 1) translate(-102.1850021481514px, -86px);transform: translate(102.1850021481514px, 86px) scale(1, 1) translate(-102.1850021481514px, -86px);}77.78%{-webkit-transform: translate(102.1850021481514px, 86px) scale(0.5, 0.5) translate(-102.1850021481514px, -86px);transform: translate(102.1850021481514px, 86px) scale(0.5, 0.5) translate(-102.1850021481514px, -86px);}92.22%{-webkit-transform: translate(102.1850021481514px, 86px) scale(1, 1) translate(-102.1850021481514px, -86px);transform: translate(102.1850021481514px, 86px) scale(1, 1) translate(-102.1850021481514px, -86px);}100%{-webkit-transform: translate(102.1850021481514px, 86px) scale(1, 1) translate(-102.1850021481514px, -86px);transform: translate(102.1850021481514px, 86px) scale(1, 1) translate(-102.1850021481514px, -86px);}}@keyframes el_BJggsk0M8h7_S1jZRfL3X_Animation{0%{-webkit-transform: translate(102.1850021481514px, 86px) scale(1, 1) translate(-102.1850021481514px, -86px);transform: translate(102.1850021481514px, 86px) scale(1, 1) translate(-102.1850021481514px, -86px);}11.11%{-webkit-transform: translate(102.1850021481514px, 86px) scale(1.2, 1.2) translate(-102.1850021481514px, -86px);transform: translate(102.1850021481514px, 86px) scale(1.2, 1.2) translate(-102.1850021481514px, -86px);}26.67%{-webkit-transform: translate(102.1850021481514px, 86px) scale(1, 1) translate(-102.1850021481514px, -86px);transform: translate(102.1850021481514px, 86px) scale(1, 1) translate(-102.1850021481514px, -86px);}40%{-webkit-transform: translate(102.1850021481514px, 86px) scale(1.3, 1.3) translate(-102.1850021481514px, -86px);transform: translate(102.1850021481514px, 86px) scale(1.3, 1.3) translate(-102.1850021481514px, -86px);}53.33%{-webkit-transform: translate(102.1850021481514px, 86px) scale(0.9, 0.9) translate(-102.1850021481514px, -86px);transform: translate(102.1850021481514px, 86px) scale(0.9, 0.9) translate(-102.1850021481514px, -86px);}65.56%{-webkit-transform: translate(102.1850021481514px, 86px) scale(1, 1) translate(-102.1850021481514px, -86px);transform: translate(102.1850021481514px, 86px) scale(1, 1) translate(-102.1850021481514px, -86px);}77.78%{-webkit-transform: translate(102.1850021481514px, 86px) scale(0.5, 0.5) translate(-102.1850021481514px, -86px);transform: translate(102.1850021481514px, 86px) scale(0.5, 0.5) translate(-102.1850021481514px, -86px);}92.22%{-webkit-transform: translate(102.1850021481514px, 86px) scale(1, 1) translate(-102.1850021481514px, -86px);transform: translate(102.1850021481514px, 86px) scale(1, 1) translate(-102.1850021481514px, -86px);}100%{-webkit-transform: translate(102.1850021481514px, 86px) scale(1, 1) translate(-102.1850021481514px, -86px);transform: translate(102.1850021481514px, 86px) scale(1, 1) translate(-102.1850021481514px, -86px);}}#el_BJCoJ0z837 *{-webkit-animation-duration: 3s;animation-duration: 3s;-webkit-animation-iteration-count: infinite;animation-iteration-count: infinite;-webkit-animation-timing-function: cubic-bezier(0, 0, 1, 1);animation-timing-function: cubic-bezier(0, 0, 1, 1);}#el_HkZes1RG83X{fill: #f4d373;}#el_S1Xeok0GLhX{fill: #f4d373;-webkit-transform: translate(102.45px, 252.31px) rotate(-84.22deg);transform: translate(102.45px, 252.31px) rotate(-84.22deg);}#el_HySei1AfLhX{fill: #f4d373;-webkit-transform: translate(-17.23px, 7.72px) rotate(-14.1deg);transform: translate(-17.23px, 7.72px) rotate(-14.1deg);}#el_HyweskRfI27{fill: #f4d373;-webkit-transform: translate(-20.69px, 110.11px) rotate(-84.22deg);transform: translate(-20.69px, 110.11px) rotate(-84.22deg);}#el_ryKgjJAfI3Q{fill: #f4d373;-webkit-transform: translate(-7.49px, 47.57px) rotate(-17.96deg);transform: translate(-7.49px, 47.57px) rotate(-17.96deg);}#el_SJogoJAGI3Q{fill: #f4d373;-webkit-transform: translate(-9.18px, 6.55px) rotate(-9.33deg);transform: translate(-9.18px, 6.55px) rotate(-9.33deg);}#el_rkagikCM82X{fill: #f4d373;}#el_SJ1Wok0MUhm{fill: #f4d373;-webkit-transform: translate(23.88px, 160.63px) rotate(-77.75deg);transform: translate(23.88px, 160.63px) rotate(-77.75deg);}#el_rkZ-jJ0zUh7{fill: #f4d373;}#el_S17WoJAfL3m{fill: #f4d373;-webkit-transform: translate(-4.98px, 6.46px) rotate(-4.51deg);transform: translate(-4.98px, 6.46px) rotate(-4.51deg);}#el_BJrbj1AzUnm{fill: #f4d373;}#el_SJPZoJ0G8hQ{fill: #f4d373;}#el_BkKbo1RfUh7{fill: #f4d373;-webkit-transform: translate(44.33px, 192.93px) rotate(-72.98deg);transform: translate(44.33px, 192.93px) rotate(-72.98deg);}#el_Hyn-s1Cf83Q{fill: #f33;}#el_SyRZik0MUnQ{fill: #ff9;}#el_BJMzoJ0zI3m{fill: #f4d373;}#el_H1NziyAfLhQ{fill: #f4d373;}#el_BkSfjy0GL3Q{fill: #fff;}#el_r1LGjyCfInm{fill: #fff;}#el_SkDGi1RG8nQ{fill: #fff;}#el_SJ_MjyRfUhQ{fill: #fff;}#el_BJggsk0M8h7_S1jZRfL3X{-webkit-animation-name: el_BJggsk0M8h7_S1jZRfL3X_Animation;animation-name: el_BJggsk0M8h7_S1jZRfL3X_Animation;-webkit-transform: translate(102.1850021481514px, 86px) scale(1, 1) translate(-102.1850021481514px, -86px);transform: translate(102.1850021481514px, 86px) scale(1, 1) translate(-102.1850021481514px, -86px);}#el_S1Xeok0GLhX_rk_D0f82X{-webkit-transform: translate(190.79999542236328px, 69.48499822616577px) scale(1.5, 1.5) translate(-190.79999542236328px, -69.48499822616577px);transform: translate(190.79999542236328px, 69.48499822616577px) scale(1.5, 1.5) translate(-190.79999542236328px, -69.48499822616577px);}</style><defs/><title>Asset 1</title><g id="el_HkyeoJ0fL37" data-name="Layer 2"><g id="el_BJggsk0M8h7_S1jZRfL3X" data-animator-group="true" data-animator-type="2"><g id="el_BJggsk0M8h7"><rect x="166.07" y="0.5" width="15" height="114" id="el_HkZes1RG83X"/><path d="M180.57,1V114h-14V1h14m1-1h-16V115h16V0Z" id="el_B1fxiJRMU3m"/><rect x="145.76" y="61.76" width="90.08" height="15.45" id="el_S1Xeok0GLhX"/><path d="M188.1,24.44l14.37,1.45-9,88.63-14.38-1.45,9-88.63m-.9-1.1L178,114l16.37,1.66L203.57,25,187.2,23.34Z" id="el_ryVejy0z8hQ"/><rect x="15.07" y="16.5" width="15" height="114" id="el_HySei1AfLhX"/><path d="M15.59,17,43.13,126.59,29.55,130,2,20.41,15.59,17m.73-1.22L.8,19.68l28,111.54,15.52-3.9-28-111.54Z" id="el_H1LlskAM827"/><rect x="-6.43" y="59" width="114" height="15" id="el_HyweskRfI27"/><path d="M49.3,9.58,63.22,11,51.84,123.42,37.91,122,49.3,9.58m-.9-1.09L36.82,122.9l15.92,1.61L64.32,10.1,48.4,8.49Z" id="el_r1dgsyRMUhm"/><rect x="139.07" y="2.44" width="15.45" height="90.08" id="el_ryKgjJAfI3Q"/><path d="M139.94,2.88l27.47,84.74-13.75,4.46L126.19,7.34l13.75-4.46m.64-1.26L124.93,6.7,153,93.34l15.65-5.07L140.58,1.62Z" id="el_ryces1RzI2X"/><rect x="28.07" y="2.5" width="15" height="114" id="el_SJogoJAGI3Q"/><path d="M33.32,2.61,51.64,114.12l-13.82,2.27L19.5,4.88,33.32,2.61m.82-1.15L18.35,4.06,37,117.54l15.79-2.6L34.14,1.46Z" id="el_Hy2ljJCG8hQ"/><rect x="90.07" y="6.5" width="15" height="114" id="el_rkagikCM82X"/><path d="M104.57,7V120h-14V7h14m1-1h-16V121h16V6Z" id="el_S1CesyRGL27"/><rect x="54.57" y="58" width="114" height="15" id="el_SJ1Wok0MUhm"/><path d="M116.72,8.8l13.68,3-24,110.43-13.68-3,24-110.43M116,7.61,91.55,120l15.63,3.4L131.59,11,116,7.61Z" id="el_r1xZik0MU27"/><rect x="121.07" y="29.5" width="15" height="114" id="el_rkZ-jJ0zUh7"/><path d="M135.57,30V143h-14V30h14m1-1h-16V144h16V29Z" id="el_SkMZikRG827"/><rect x="72.07" y="9.5" width="15" height="114" id="el_S17WoJAfL3m"/><path d="M82.11,9.62,91,122.28l-14,1.1L68.15,10.72l14-1.1M83,8.55l-16,1.26,9,114.64,16-1.26L83,8.55Z" id="el_S14WsJAzLnX"/><rect x="54.07" y="29.5" width="15" height="114" id="el_BJrbj1AzUnm"/><path d="M68.57,30V143h-14V30h14m1-1h-16V144h16V29Z" id="el_BJU-ikRMIhX"/><rect x="134.07" y="57.5" width="15" height="114" id="el_SJPZoJ0G8hQ"/><path d="M148.57,58V171h-14V58h14m1-1h-16V172h16V57Z" id="el_BJubokCGI3m"/><rect x="95.57" y="59" width="114" height="15" id="el_BkKbo1RfUh7"/><path d="M162.41,10.43l13.39,4.09L142.73,122.57l-13.39-4.09,33.07-108m-.66-1.25-33.66,110,15.3,4.68,33.66-110-15.3-4.68Z" id="el_H1c-oJCzL2m"/></g></g><g id="el_rJsZiJRMU2X"><polygon points="31.17 283.5 0.58 87.5 219.88 87.5 184.77 283.5 31.17 283.5" id="el_Hyn-s1Cf83Q"/><path d="M219.28,88,184.35,283H31.6L1.17,88H219.28m1.19-1H0L30.74,284H185.19L220.47,87Z" id="el_Bk6bi1CfInX"/><ellipse cx="106.07" cy="186" rx="55" ry="41.5" id="el_SyRZik0MUnQ"/><path d="M106.07,145c30.05,0,54.5,18.39,54.5,41s-24.45,41-54.5,41-54.5-18.39-54.5-41,24.45-41,54.5-41m0-1c-30.65,0-55.5,18.8-55.5,42s24.85,42,55.5,42,55.5-18.8,55.5-42-24.85-42-55.5-42Z" id="el_B1kziJ0MI2Q"/></g><g id="el_HJxfjyCGU2m"><path d="M78.57,193.5A15.5,15.5,0,1,1,94.07,178,15.51,15.51,0,0,1,78.57,193.5Zm-1-24a7.5,7.5,0,1,0,7.5,7.5A7.5,7.5,0,0,0,77.57,169.5Zm8.5-3a3,3,0,1,0,3,3A3,3,0,0,0,86.07,166.5Z" id="el_rkbGi1AGUn7"/><path d="M78.57,163a15,15,0,1,1-15,15,15,15,0,0,1,15-15M83,171.08a8.05,8.05,0,1,0,1.16,1.32,3.47,3.47,0,0,0,2,.6A3.51,3.51,0,1,0,83,171.08M78.57,162a16,16,0,1,0,16,16,16,16,0,0,0-16-16Zm7.5,10a2.5,2.5,0,1,1,2.5-2.5,2.5,2.5,0,0,1-2.5,2.5Zm-8.5,12a7,7,0,1,1,7-7,7,7,0,0,1-7,7Z" id="el_BJMzoJ0zI3m"/><path d="M128.57,193.5a15.5,15.5,0,1,1,15.5-15.5A15.51,15.51,0,0,1,128.57,193.5Zm-2-24a7.5,7.5,0,1,0,7.5,7.5A7.5,7.5,0,0,0,126.57,169.5Zm7.5-3a3,3,0,1,0,3,3A3,3,0,0,0,134.07,166.5Z" id="el_ryQfjk0z8nQ"/><path d="M128.57,163a15,15,0,1,1-15,15,15,15,0,0,1,15-15m2.05,7.1a8,8,0,1,0,2.85,2.85,3.83,3.83,0,0,0,.6.05,3.5,3.5,0,1,0-3.5-3.5,3.83,3.83,0,0,0,.05.6m-2.05-8.1a16,16,0,1,0,16,16,16,16,0,0,0-16-16Zm5.5,10a2.5,2.5,0,1,1,2.5-2.5,2.5,2.5,0,0,1-2.5,2.5Zm-7.5,12a7,7,0,1,1,7-7,7,7,0,0,1-7,7Z" id="el_H1NziyAfLhQ"/><circle cx="77.57" cy="177" r="7" id="el_BkSfjy0GL3Q"/><circle cx="86.07" cy="169.5" r="2.5" id="el_r1LGjyCfInm"/><circle cx="126.57" cy="177" r="7" id="el_SkDGi1RG8nQ"/><circle cx="134.07" cy="169.5" r="2.5" id="el_SJ_MjyRfUhQ"/><path d="M92.33,195.53c5.91,8.36,17.71,8.18,23.11-.6,1-1.65-1.58-3.16-2.59-1.52a10.57,10.57,0,0,1-17.93.61c-1.1-1.57-3.71-.07-2.59,1.51Z" id="el_rJYfiyAfUhQ"/></g></g></svg>