<svg xmlns="http://www.w3.org/2000/svg" viewBox="0 0 233 323" id="el_B1Rfm7Csm"><style>@-webkit-keyframes el_HyrAfXQAo7_Hy-tmmRj7_Animation{0%{-webkit-transform: translate(0.0428466796875px, 70.989990234375px) translate(-0.0428466796875px, -70.989990234375px) translate(5px, 0px);transform: translate(0.0428466796875px, 70.989990234375px) translate(-0.0428466796875px, -70.989990234375px) translate(5px, 0px);}8.89%{-webkit-transform: translate(0.0428466796875px, 70.989990234375px) translate(-0.0428466796875px, -70.989990234375px) translate(12px, 0px);transform: translate(0.0428466796875px, 70.989990234375px) translate(-0.0428466796875px, -70.989990234375px) translate(12px, 0px);}15.56%{-webkit-transform: translate(0.0428466796875px, 70.989990234375px) translate(-0.0428466796875px, -70.989990234375px) translate(7px, 0px);transform: translate(0.0428466796875px, 70.989990234375px) translate(-0.0428466796875px, -70.989990234375px) translate(7px, 0px);}21.11%{-webkit-transform: translate(0.0428466796875px, 70.989990234375px) translate(-0.0428466796875px, -70.989990234375px) translate(8px, 0px);transform: translate(0.0428466796875px, 70.989990234375px) translate(-0.0428466796875px, -70.989990234375px) translate(8px, 0px);}26.67%{-webkit-transform: translate(0.0428466796875px, 70.989990234375px) translate(-0.0428466796875px, -70.989990234375px) translate(8px, 1px);transform: translate(0.0428466796875px, 70.989990234375px) translate(-0.0428466796875px, -70.989990234375px) translate(8px, 1px);}33.33%{-webkit-transform: translate(0.0428466796875px, 70.989990234375px) translate(-0.0428466796875px, -70.989990234375px) translate(8px, 2px);transform: translate(0.0428466796875px, 70.989990234375px) translate(-0.0428466796875px, -70.989990234375px) translate(8px, 2px);}38.89%{-webkit-transform: translate(0.0428466796875px, 70.989990234375px) translate(-0.0428466796875px, -70.989990234375px) translate(10px, 2px);transform: translate(0.0428466796875px, 70.989990234375px) translate(-0.0428466796875px, -70.989990234375px) translate(10px, 2px);}46.67%{-webkit-transform: translate(0.0428466796875px, 70.989990234375px) translate(-0.0428466796875px, -70.989990234375px) translate(12px, 2px);transform: translate(0.0428466796875px, 70.989990234375px) translate(-0.0428466796875px, -70.989990234375px) translate(12px, 2px);}57.78%{-webkit-transform: translate(0.0428466796875px, 70.989990234375px) translate(-0.0428466796875px, -70.989990234375px) translate(5px, 2px);transform: translate(0.0428466796875px, 70.989990234375px) translate(-0.0428466796875px, -70.989990234375px) translate(5px, 2px);}63.33%{-webkit-transform: translate(0.0428466796875px, 70.989990234375px) translate(-0.0428466796875px, -70.989990234375px) translate(6px, 3px);transform: translate(0.0428466796875px, 70.989990234375px) translate(-0.0428466796875px, -70.989990234375px) translate(6px, 3px);}68.89%{-webkit-transform: translate(0.0428466796875px, 70.989990234375px) translate(-0.0428466796875px, -70.989990234375px) translate(8px, 5px);transform: translate(0.0428466796875px, 70.989990234375px) translate(-0.0428466796875px, -70.989990234375px) translate(8px, 5px);}81.11%{-webkit-transform: translate(0.0428466796875px, 70.989990234375px) translate(-0.0428466796875px, -70.989990234375px) translate(-2px, 5px);transform: translate(0.0428466796875px, 70.989990234375px) translate(-0.0428466796875px, -70.989990234375px) translate(-2px, 5px);}95.56%{-webkit-transform: translate(0.0428466796875px, 70.989990234375px) translate(-0.0428466796875px, -70.989990234375px) translate(0px, 5px);transform: translate(0.0428466796875px, 70.989990234375px) translate(-0.0428466796875px, -70.989990234375px) translate(0px, 5px);}100%{-webkit-transform: translate(0.0428466796875px, 70.989990234375px) translate(-0.0428466796875px, -70.989990234375px) translate(0px, 5px);transform: translate(0.0428466796875px, 70.989990234375px) translate(-0.0428466796875px, -70.989990234375px) translate(0px, 5px);}}@keyframes el_HyrAfXQAo7_Hy-tmmRj7_Animation{0%{-webkit-transform: translate(0.0428466796875px, 70.989990234375px) translate(-0.0428466796875px, -70.989990234375px) translate(5px, 0px);transform: translate(0.0428466796875px, 70.989990234375px) translate(-0.0428466796875px, -70.989990234375px) translate(5px, 0px);}8.89%{-webkit-transform: translate(0.0428466796875px, 70.989990234375px) translate(-0.0428466796875px, -70.989990234375px) translate(12px, 0px);transform: translate(0.0428466796875px, 70.989990234375px) translate(-0.0428466796875px, -70.989990234375px) translate(12px, 0px);}15.56%{-webkit-transform: translate(0.0428466796875px, 70.989990234375px) translate(-0.0428466796875px, -70.989990234375px) translate(7px, 0px);transform: translate(0.0428466796875px, 70.989990234375px) translate(-0.0428466796875px, -70.989990234375px) translate(7px, 0px);}21.11%{-webkit-transform: translate(0.0428466796875px, 70.989990234375px) translate(-0.0428466796875px, -70.989990234375px) translate(8px, 0px);transform: translate(0.0428466796875px, 70.989990234375px) translate(-0.0428466796875px, -70.989990234375px) translate(8px, 0px);}26.67%{-webkit-transform: translate(0.0428466796875px, 70.989990234375px) translate(-0.0428466796875px, -70.989990234375px) translate(8px, 1px);transform: translate(0.0428466796875px, 70.989990234375px) translate(-0.0428466796875px, -70.989990234375px) translate(8px, 1px);}33.33%{-webkit-transform: translate(0.0428466796875px, 70.989990234375px) translate(-0.0428466796875px, -70.989990234375px) translate(8px, 2px);transform: translate(0.0428466796875px, 70.989990234375px) translate(-0.0428466796875px, -70.989990234375px) translate(8px, 2px);}38.89%{-webkit-transform: translate(0.0428466796875px, 70.989990234375px) translate(-0.0428466796875px, -70.989990234375px) translate(10px, 2px);transform: translate(0.0428466796875px, 70.989990234375px) translate(-0.0428466796875px, -70.989990234375px) translate(10px, 2px);}46.67%{-webkit-transform: translate(0.0428466796875px, 70.989990234375px) translate(-0.0428466796875px, -70.989990234375px) translate(12px, 2px);transform: translate(0.0428466796875px, 70.989990234375px) translate(-0.0428466796875px, -70.989990234375px) translate(12px, 2px);}57.78%{-webkit-transform: translate(0.0428466796875px, 70.989990234375px) translate(-0.0428466796875px, -70.989990234375px) translate(5px, 2px);transform: translate(0.0428466796875px, 70.989990234375px) translate(-0.0428466796875px, -70.989990234375px) translate(5px, 2px);}63.33%{-webkit-transform: translate(0.0428466796875px, 70.989990234375px) translate(-0.0428466796875px, -70.989990234375px) translate(6px, 3px);transform: translate(0.0428466796875px, 70.989990234375px) translate(-0.0428466796875px, -70.989990234375px) translate(6px, 3px);}68.89%{-webkit-transform: translate(0.0428466796875px, 70.989990234375px) translate(-0.0428466796875px, -70.989990234375px) translate(8px, 5px);transform: translate(0.0428466796875px, 70.989990234375px) translate(-0.0428466796875px, -70.989990234375px) translate(8px, 5px);}81.11%{-webkit-transform: translate(0.0428466796875px, 70.989990234375px) translate(-0.0428466796875px, -70.989990234375px) translate(-2px, 5px);transform: translate(0.0428466796875px, 70.989990234375px) translate(-0.0428466796875px, -70.989990234375px) translate(-2px, 5px);}95.56%{-webkit-transform: translate(0.0428466796875px, 70.989990234375px) translate(-0.0428466796875px, -70.989990234375px) translate(0px, 5px);transform: translate(0.0428466796875px, 70.989990234375px) translate(-0.0428466796875px, -70.989990234375px) translate(0px, 5px);}100%{-webkit-transform: translate(0.0428466796875px, 70.989990234375px) translate(-0.0428466796875px, -70.989990234375px) translate(0px, 5px);transform: translate(0.0428466796875px, 70.989990234375px) translate(-0.0428466796875px, -70.989990234375px) translate(0px, 5px);}}@-webkit-keyframes el_SJlRGXQCs7_B1q-VQAsX_Animation{5.56%{-webkit-transform: translate(106.5px, 2.5px) translate(-106.5px, -2.5px) translate(0px, 2px);transform: translate(106.5px, 2.5px) translate(-106.5px, -2.5px) translate(0px, 2px);}22.22%{-webkit-transform: translate(106.5px, 2.5px) translate(-106.5px, -2.5px) translate(0px, 3px);transform: translate(106.5px, 2.5px) translate(-106.5px, -2.5px) translate(0px, 3px);}40%{-webkit-transform: translate(106.5px, 2.5px) translate(-106.5px, -2.5px) translate(0px, 4px);transform: translate(106.5px, 2.5px) translate(-106.5px, -2.5px) translate(0px, 4px);}0%{-webkit-transform: translate(106.5px, 2.5px) translate(-106.5px, -2.5px) translate(0px, 2px);transform: translate(106.5px, 2.5px) translate(-106.5px, -2.5px) translate(0px, 2px);}100%{-webkit-transform: translate(106.5px, 2.5px) translate(-106.5px, -2.5px) translate(0px, 4px);transform: translate(106.5px, 2.5px) translate(-106.5px, -2.5px) translate(0px, 4px);}}@keyframes el_SJlRGXQCs7_B1q-VQAsX_Animation{5.56%{-webkit-transform: translate(106.5px, 2.5px) translate(-106.5px, -2.5px) translate(0px, 2px);transform: translate(106.5px, 2.5px) translate(-106.5px, -2.5px) translate(0px, 2px);}22.22%{-webkit-transform: translate(106.5px, 2.5px) translate(-106.5px, -2.5px) translate(0px, 3px);transform: translate(106.5px, 2.5px) translate(-106.5px, -2.5px) translate(0px, 3px);}40%{-webkit-transform: translate(106.5px, 2.5px) translate(-106.5px, -2.5px) translate(0px, 4px);transform: translate(106.5px, 2.5px) translate(-106.5px, -2.5px) translate(0px, 4px);}0%{-webkit-transform: translate(106.5px, 2.5px) translate(-106.5px, -2.5px) translate(0px, 2px);transform: translate(106.5px, 2.5px) translate(-106.5px, -2.5px) translate(0px, 2px);}100%{-webkit-transform: translate(106.5px, 2.5px) translate(-106.5px, -2.5px) translate(0px, 4px);transform: translate(106.5px, 2.5px) translate(-106.5px, -2.5px) translate(0px, 4px);}}#el_B1Rfm7Csm *{-webkit-animation-duration: 3s;animation-duration: 3s;-webkit-animation-iteration-count: infinite;animation-iteration-count: infinite;-webkit-animation-timing-function: cubic-bezier(0, 0, 1, 1);animation-timing-function: cubic-bezier(0, 0, 1, 1);}#el_BkWRzXmCsQ{fill: #4cc74c;stroke: #020200;stroke-width: 5px;stroke-miterlimit: 10;}#el_ryGCMXQCs7{fill: #4cc74c;-webkit-transform: translate(-484px, -356px);transform: translate(-484px, -356px);}#el_BkXRMm70j7{-webkit-transform: translate(-484px, -356px);transform: translate(-484px, -356px);}#el_HJECGXmAjX{stroke-miterlimit: 10;fill: none;stroke: #000;}#el_ByIAGmXAsX{fill: #581796;-webkit-transform: translate(-484px, -356px);transform: translate(-484px, -356px);}#el_H1wRzmXRom{-webkit-transform: translate(-484px, -356px);transform: translate(-484px, -356px);}#el_HJ_AfQQAoQ{fill: #fff;-webkit-transform: translate(-484px, -356px);transform: translate(-484px, -356px);}#el_rJFRGm7RsX{fill: #581796;-webkit-transform: translate(-484px, -356px);transform: translate(-484px, -356px);}#el_Sy5Czm7Csm{-webkit-transform: translate(-484px, -356px);transform: translate(-484px, -356px);}#el_rJi0MQ7Cjm{fill: #fff;-webkit-transform: translate(-484px, -356px);transform: translate(-484px, -356px);}#el_BynCz7XCiX{fill: #581796;-webkit-transform: translate(-484px, -356px);transform: translate(-484px, -356px);}#el_HJaAzQQAjm{-webkit-transform: translate(-484px, -356px);transform: translate(-484px, -356px);}#el_ByRCzmQ0iX{fill: #fff;-webkit-transform: translate(-484px, -356px);transform: translate(-484px, -356px);}#el_r11eCGXQCsX{fill: #581796;-webkit-transform: translate(-484px, -356px);transform: translate(-484px, -356px);}#el_rylxAfQX0jm{-webkit-transform: translate(-484px, -356px);transform: translate(-484px, -356px);}#el_By-eAMQX0sQ{fill: #fff;-webkit-transform: translate(-484px, -356px);transform: translate(-484px, -356px);}#el_B1flAzQQRjX{fill: #581796;-webkit-transform: translate(-484px, -356px);transform: translate(-484px, -356px);}#el_BymgAMm7CoQ{-webkit-transform: translate(-484px, -356px);transform: translate(-484px, -356px);}#el_SkVe0f7QAo7{fill: #fff;-webkit-transform: translate(-484px, -356px);transform: translate(-484px, -356px);}#el_Hkrg0fmQ0sX{fill: #581796;-webkit-transform: translate(-484px, -356px);transform: translate(-484px, -356px);}#el_r1UeCf7QAsm{-webkit-transform: translate(-484px, -356px);transform: translate(-484px, -356px);}#el_ryveCzm7Rom{fill: #fff;-webkit-transform: translate(-484px, -356px);transform: translate(-484px, -356px);}#el_rkOeRz7mCo7{fill: #581796;-webkit-transform: translate(-484px, -356px);transform: translate(-484px, -356px);}#el_rkKeRMQ7Rs7{-webkit-transform: translate(-484px, -356px);transform: translate(-484px, -356px);}#el_ry9xCf7m0i7{fill: #fff;-webkit-transform: translate(-484px, -356px);transform: translate(-484px, -356px);}#el_SJlRGXQCs7_B1q-VQAsX{-webkit-animation-name: el_SJlRGXQCs7_B1q-VQAsX_Animation;animation-name: el_SJlRGXQCs7_B1q-VQAsX_Animation;-webkit-transform: translate(106.5px, 2.5px) translate(-106.5px, -2.5px) translate(0px, 2px);transform: translate(106.5px, 2.5px) translate(-106.5px, -2.5px) translate(0px, 2px);}#el_HyrAfXQAo7_Hy-tmmRj7{-webkit-animation-name: el_HyrAfXQAo7_Hy-tmmRj7_Animation;animation-name: el_HyrAfXQAo7_Hy-tmmRj7_Animation;-webkit-transform: translate(0.0428466796875px, 70.989990234375px) translate(-0.0428466796875px, -70.989990234375px) translate(5px, 0px);transform: translate(0.0428466796875px, 70.989990234375px) translate(-0.0428466796875px, -70.989990234375px) translate(5px, 0px);}</style><defs/><title>grapes</title><g id="el_SJlRGXQCs7_B1q-VQAsX" data-animator-group="true" data-animator-type="0"><g id="el_SJlRGXQCs7"><rect x="106.5" y="2.5" width="19" height="93" rx="9.5" id="el_BkWRzXmCsQ"/><path d="M601.44,406.34c-.75-6.42-1.36-13.47,2.24-18.84,1.91-2.85,4.81-4.88,7.72-6.69,9-5.6,18.83-9.78,28.6-13.93-3.81,13.43-13.61,24.7-25.52,32-3.13,1.92-6.44,3.61-9.13,6.1-1.63,1.5-3.72,3.42-5.7,2.44" id="el_ryGCMXQCs7"/><path d="M602.94,406.34c-.52-4.62-1.16-9.59.21-14.13,1.62-5.38,6-8.34,10.61-11.08,8.58-5.14,17.82-9.05,27-13l-2.21-1.69a53.27,53.27,0,0,1-15.2,23.85,67.09,67.09,0,0,1-11,8.06,67.54,67.54,0,0,0-6,3.79c-1.64,1.24-4.12,4.28-6.35,3.78-1.88-.42-2.68,2.48-.8,2.9,4.46,1,7.23-3.18,10.59-5.44,4.69-3.14,9.55-5.73,13.88-9.42a56.8,56.8,0,0,0,17.73-26.72c.41-1.39-1.09-2.17-2.21-1.7-10.9,4.64-22.79,9.12-32.26,16.43-8,6.14-8.08,15.07-7,24.33.22,1.9,3.22,1.92,3,0Z" id="el_BkXRMm70j7"/><line x1="142.5" y1="22.5" x2="125.5" y2="37.5" id="el_HJECGXmAjX"/></g></g><g id="el_HyrAfXQAo7_Hy-tmmRj7" data-animator-group="true" data-animator-type="0"><g id="el_HyrAfXQAo7"><path d="M690.87,552.69A50.86,50.86,0,0,0,649.5,531.5h-.66a51.07,51.07,0,0,0-13.3-19,51,51,0,0,0,15.65-42.66,46,46,0,0,1,39.68,82.81Zm-13.26-61.36.76.08a6.21,6.21,0,0,1,5.24,4.75l.34,1.74,1.75.25a5,5,0,0,0,.76.06,5.77,5.77,0,0,0,4.28-2,6.64,6.64,0,0,0,1.74-5,8.62,8.62,0,0,0-5.62-6.9,17.54,17.54,0,0,0-6.57-1h-.92a5.31,5.31,0,0,0-4.07,1.5,3.69,3.69,0,0,0-.55,3.93,3.27,3.27,0,0,0,2,1.82Z" id="el_ByIAGmXAsX"/><path d="M668.5,469a43.5,43.5,0,0,1,23,80.41,53.35,53.35,0,0,0-41-20.4,53.5,53.5,0,0,0-11.36-16.52,53.38,53.38,0,0,0,14.86-37c0-1.31,0-2.64-.15-4A43,43,0,0,1,668.5,469m7,23.79,1.15.95,1.52.15a3.72,3.72,0,0,1,3,2.76l.68,3.47,3.5.51a8.08,8.08,0,0,0,7.24-2.71A9.11,9.11,0,0,0,695,491a11.17,11.17,0,0,0-7.18-9,19.94,19.94,0,0,0-7.5-1.18h-.95a7.69,7.69,0,0,0-5.9,2.33,6.17,6.17,0,0,0-1,6.63,5.82,5.82,0,0,0,3,3m-7-28.79a48.36,48.36,0,0,0-20,4.33,48.52,48.52,0,0,1-16.73,44.26,48.64,48.64,0,0,1,15.4,21.47c.78,0,1.57-.06,2.36-.06a48.43,48.43,0,0,1,40.57,21.94A48.5,48.5,0,0,0,668.5,464Zm9.19,24.24c-.72,0-1-1.17-.52-1.74a3,3,0,0,1,2.23-.66h.89a15.12,15.12,0,0,1,5.64.83,6.16,6.16,0,0,1,4.06,4.81c.18,2.06-1.51,4.24-3.53,4.24l-.4,0a8.67,8.67,0,0,0-7.44-6.76l-.82-.69Z" id="el_H1wRzmXRom"/><path d="M685.93,486.66a16.88,16.88,0,0,0-6.53-.82,3,3,0,0,0-2.23.66c-.54.6-.17,1.86.63,1.73l.82.69a8.67,8.67,0,0,1,7.44,6.76c2.19.32,4.13-2,3.93-4.21A6.16,6.16,0,0,0,685.93,486.66Z" id="el_HJ_AfQQAoQ"/><path d="M649.5,628.5a46.5,46.5,0,0,1-9.1-.91,51.17,51.17,0,0,0-14.19-32.48A51.22,51.22,0,0,0,652.5,550.5a50.71,50.71,0,0,0-2-14,46,46,0,0,1-1,92Zm9.11-67.17.76.08a6.21,6.21,0,0,1,5.24,4.75l.34,1.74,1.75.25a5,5,0,0,0,.76.06,5.77,5.77,0,0,0,4.28-2,6.64,6.64,0,0,0,1.74-5,8.62,8.62,0,0,0-5.62-6.9,17.54,17.54,0,0,0-6.57-1h-.92a5.31,5.31,0,0,0-4.07,1.5,3.69,3.69,0,0,0-.55,3.93,3.27,3.27,0,0,0,2,1.82Z" id="el_rJFRGm7RsX"/><path d="M653.8,539.21a43.5,43.5,0,1,1-11,86.26,53.78,53.78,0,0,0-12.63-29.78A53.84,53.84,0,0,0,654,560.75a5.7,5.7,0,0,0,2.45,2l1.15,1,1.52.15a3.72,3.72,0,0,1,3,2.76l.68,3.47,3.5.51a8.08,8.08,0,0,0,7.24-2.71A9.11,9.11,0,0,0,676,561a11.17,11.17,0,0,0-7.18-9,19.94,19.94,0,0,0-7.5-1.18h-.95a7.92,7.92,0,0,0-5.38,1.81c0-.71,0-1.43,0-2.15a53.32,53.32,0,0,0-1.2-11.29M649.5,534c-.79,0-1.58,0-2.36.06A48.53,48.53,0,0,1,622,594.47a48.37,48.37,0,0,1,16,35.14A48.5,48.5,0,1,0,649.5,534Zm9.19,24.24c-.72,0-1-1.17-.52-1.74a3,3,0,0,1,2.23-.66h.89a15.12,15.12,0,0,1,5.64.83,6.16,6.16,0,0,1,4.06,4.81c.18,2.06-1.51,4.24-3.53,4.24l-.4,0a8.67,8.67,0,0,0-7.44-6.76l-.82-.69Z" id="el_Sy5Czm7Csm"/><path d="M666.93,556.66a16.88,16.88,0,0,0-6.53-.82,3,3,0,0,0-2.23.66c-.54.6-.17,1.86.63,1.73l.82.69a8.67,8.67,0,0,1,7.44,6.76c2.19.32,4.13-2,3.93-4.21A6.16,6.16,0,0,0,666.93,556.66Z" id="el_rJi0MQ7Cjm"/><path d="M501,546a46,46,0,0,1,48.86-76.09,50.53,50.53,0,0,0-.31,5.62,51.1,51.1,0,0,0,.72,8.6,18.79,18.79,0,0,0-5.93-.77h-.92a5.31,5.31,0,0,0-4.07,1.5,3.69,3.69,0,0,0-.55,3.93,3.27,3.27,0,0,0,2,1.82l.89.74.76.08a6.21,6.21,0,0,1,5.24,4.75l.34,1.74,1.75.25a5,5,0,0,0,.76.06,5.62,5.62,0,0,0,3.68-1.4,50.93,50.93,0,0,0,12.32,16.65,51.28,51.28,0,0,0-8.16,9.94A51,51,0,0,0,501,546Z" id="el_BynCz7XCiX"/><path d="M532.5,469a43,43,0,0,1,14.65,2.54c-.1,1.32-.15,2.65-.15,4q0,2.76.27,5.46a28.1,28.1,0,0,0-3-.13h-.95a7.69,7.69,0,0,0-5.9,2.33,6.17,6.17,0,0,0-1,6.63,5.82,5.82,0,0,0,3,3l1.15.95,1.52.15a3.72,3.72,0,0,1,3,2.76l.68,3.47,3.5.51a8.44,8.44,0,0,0,1.12.08,7.63,7.63,0,0,0,2.59-.45,53.34,53.34,0,0,0,9.81,13.25,54.06,54.06,0,0,0-5.67,7A53.48,53.48,0,0,0,500.54,542a43.5,43.5,0,0,1,32-73m0-5a48.5,48.5,0,0,0-30.9,85.88,48.49,48.49,0,0,1,57.84-23.52,48.92,48.92,0,0,1,10.82-13,48.52,48.52,0,0,1-17.73-45.08,48.36,48.36,0,0,0-20-4.33Zm9.19,24.24c-.72,0-1-1.17-.52-1.74a3,3,0,0,1,2.23-.66h.89a15.12,15.12,0,0,1,5.64.83,6.16,6.16,0,0,1,4.06,4.81c.18,2.06-1.51,4.24-3.53,4.24l-.4,0a8.67,8.67,0,0,0-7.44-6.76l-.82-.69Z" id="el_HJaAzQQAjm"/><path d="M541.8,488.23l.82.69a8.67,8.67,0,0,1,7.44,6.76c2.19.32,4.13-2,3.93-4.21a6.16,6.16,0,0,0-4.06-4.81,16.88,16.88,0,0,0-6.53-.82,3,3,0,0,0-2.23.66C540.63,487.1,541,488.36,541.8,488.23Z" id="el_ByRCzmQ0iX"/><path d="M622.36,591.5A51.19,51.19,0,0,0,595,579.79a52.24,52.24,0,0,0,.52-7.29A50.86,50.86,0,0,0,563.19,525a46.44,46.44,0,0,1,7.18-8.4,50.42,50.42,0,0,0,30.13,9.86,51,51,0,0,0,7-.48,3,3,0,0,0,.25.75,3.27,3.27,0,0,0,2,1.82l.89.74.76.08a6.21,6.21,0,0,1,5.24,4.75l.34,1.74,1.75.25a5,5,0,0,0,.76.06,5.77,5.77,0,0,0,4.28-2,6.64,6.64,0,0,0,1.74-5,8.55,8.55,0,0,0-5.22-6.73,50.79,50.79,0,0,0,11.45-6.68,46,46,0,0,1-9.35,75.67Z" id="el_r11eCGXQCsX"/><path d="M631.55,519.06a43.49,43.49,0,0,1-8.9,69.45,53.69,53.69,0,0,0-24.9-10.87c.17-1.71.25-3.43.25-5.14A53.34,53.34,0,0,0,567,524a42.26,42.26,0,0,1,3.58-4.09A53.52,53.52,0,0,0,606,528.72a5.77,5.77,0,0,0,2.48,2.07l1.15,1,1.52.15a3.72,3.72,0,0,1,3,2.76l.68,3.47,3.5.51a8.08,8.08,0,0,0,7.24-2.71A9.11,9.11,0,0,0,628,529a10.32,10.32,0,0,0-2.82-6,54,54,0,0,0,6.4-3.92m.19-6.47a48.47,48.47,0,0,1-61.48.82,48.92,48.92,0,0,0-10.82,13,48.52,48.52,0,0,1,32.61,55.71A48.25,48.25,0,0,1,622,594.47a48.47,48.47,0,0,0,9.78-81.88Zm-21,13.65c-.72,0-1-1.17-.52-1.74a3,3,0,0,1,2.23-.66h.89a15.12,15.12,0,0,1,5.64.83,6.16,6.16,0,0,1,4.06,4.81c.18,2.06-1.51,4.24-3.53,4.24l-.4,0a8.67,8.67,0,0,0-7.44-6.76l-.82-.69Z" id="el_rylxAfQX0jm"/><path d="M610.8,526.23l.82.69a8.67,8.67,0,0,1,7.44,6.76c2.19.32,4.13-2,3.93-4.21a6.16,6.16,0,0,0-4.06-4.81,16.88,16.88,0,0,0-6.53-.82,3,3,0,0,0-2.23.66C609.63,525.1,610,526.36,610.8,526.23Z" id="el_By-eAMQX0sQ"/><path d="M600.5,521.5a46,46,0,0,1-46-46,47.25,47.25,0,0,1,.5-6.8,46,46,0,0,1,91,0,47.25,47.25,0,0,1,.5,6.8,46,46,0,0,1-46,46Zm9.11-67.17.76.08a6.21,6.21,0,0,1,5.24,4.75l.34,1.74,1.75.25a5,5,0,0,0,.76.06,5.77,5.77,0,0,0,4.28-2,6.64,6.64,0,0,0,1.74-5,8.62,8.62,0,0,0-5.62-6.9,17.54,17.54,0,0,0-6.57-1h-.92a5.31,5.31,0,0,0-4.07,1.5,3.69,3.69,0,0,0-.55,3.93,3.27,3.27,0,0,0,2,1.82Z" id="el_B1flAzQQRjX"/><path d="M600.5,432A43.51,43.51,0,1,1,572,442.67,43.45,43.45,0,0,1,600.5,432m7,23.79,1.15.95,1.52.15a3.72,3.72,0,0,1,3,2.76l.68,3.47,3.5.51a8.08,8.08,0,0,0,7.24-2.71A9.11,9.11,0,0,0,627,454a11.17,11.17,0,0,0-7.18-9,19.94,19.94,0,0,0-7.5-1.18h-.95a7.69,7.69,0,0,0-5.9,2.33,6.17,6.17,0,0,0-1,6.63,5.82,5.82,0,0,0,3,3m-7-28.79a48.48,48.48,0,1,0,48,41.33,48.52,48.52,0,0,0-48-41.33Zm9.19,24.24c-.72,0-1-1.17-.52-1.74a3,3,0,0,1,2.23-.66h.89a15.12,15.12,0,0,1,5.64.83,6.16,6.16,0,0,1,4.06,4.81c.18,2.06-1.51,4.24-3.53,4.24l-.4,0a8.67,8.67,0,0,0-7.44-6.76l-.82-.69Z" id="el_BymgAMm7CoQ"/><path d="M609.8,451.23l.82.69a8.67,8.67,0,0,1,7.44,6.76c2.19.32,4.13-2,3.93-4.21a6.16,6.16,0,0,0-4.06-4.81,16.88,16.88,0,0,0-6.53-.82,3,3,0,0,0-2.23.66C608.63,450.1,609,451.36,609.8,451.23Z" id="el_SkVe0f7QAo7"/><path d="M589.5,676.5a46.06,46.06,0,0,1-46-46,46.93,46.93,0,0,1,.53-7h.47A51.13,51.13,0,0,0,594,584.72a46,46,0,0,1,41.46,44.94v.41c0,.14,0,.29,0,.43A46.06,46.06,0,0,1,589.5,676.5Zm9.11-67.17.76.08a6.21,6.21,0,0,1,5.24,4.75l.34,1.74,1.75.25a5,5,0,0,0,.76.06,5.77,5.77,0,0,0,4.28-2,6.64,6.64,0,0,0,1.74-5,8.65,8.65,0,0,0-5.62-6.91,17.64,17.64,0,0,0-6.56-1h-.93a5.32,5.32,0,0,0-4.07,1.5,3.69,3.69,0,0,0-.55,3.93,3.27,3.27,0,0,0,2,1.82Z" id="el_Hkrg0fmQ0sX"/><path d="M595.87,587.47A43.49,43.49,0,0,1,633,629.7c0,.15,0,.3,0,.44s0,.24,0,.36a43.5,43.5,0,0,1-87,0,43,43,0,0,1,.24-4.53,53.65,53.65,0,0,0,49.63-38.5m.58,23.32,1.15,1,1.52.15a3.72,3.72,0,0,1,3,2.76l.68,3.47,3.5.51a8.08,8.08,0,0,0,7.24-2.71A9.11,9.11,0,0,0,616,609a11.17,11.17,0,0,0-7.18-9,19.94,19.94,0,0,0-7.5-1.18h-.95a7.69,7.69,0,0,0-5.9,2.33,6.17,6.17,0,0,0-1,6.63,5.82,5.82,0,0,0,3,3m-4.4-28.72A48.51,48.51,0,0,1,544.5,621c-.86,0-1.71,0-2.55-.07a48.5,48.5,0,1,0,96,9.57c0-.3,0-.59,0-.89a48.49,48.49,0,0,0-45.93-47.54Zm6.64,24.17c-.72,0-1-1.17-.52-1.74a3,3,0,0,1,2.23-.66h.89a15.12,15.12,0,0,1,5.64.83,6.16,6.16,0,0,1,4.06,4.81c.18,2.06-1.51,4.24-3.53,4.24l-.4,0a8.67,8.67,0,0,0-7.44-6.76l-.82-.69Z" id="el_r1UeCf7QAsm"/><path d="M611,609.47a6.16,6.16,0,0,0-4.06-4.81,16.88,16.88,0,0,0-6.53-.82,3,3,0,0,0-2.23.66c-.54.6-.17,1.86.63,1.73l.82.69a8.67,8.67,0,0,1,7.44,6.76C609.25,614,611.19,611.67,611,609.47Z" id="el_ryveCzm7Rom"/><path d="M544.5,618.5c-.81,0-1.62,0-2.42-.06a46.09,46.09,0,1,1,2.42.06Zm9.11-67.17.76.08a6.21,6.21,0,0,1,5.24,4.75l.34,1.74,1.75.25a5,5,0,0,0,.76.06,5.77,5.77,0,0,0,4.28-2,6.64,6.64,0,0,0,1.74-5,8.62,8.62,0,0,0-5.62-6.9,17.54,17.54,0,0,0-6.57-1h-.92a5.31,5.31,0,0,0-4.07,1.5,3.69,3.69,0,0,0-.55,3.93,3.27,3.27,0,0,0,2,1.82Z" id="el_rkOeRz7mCo7"/><path d="M544.5,529A43.48,43.48,0,0,1,588,572.5a44.36,44.36,0,0,1-.85,8.59A43.59,43.59,0,0,1,544.5,616c-.74,0-1.52,0-2.29-.06A43.47,43.47,0,0,1,501,572.5a43,43,0,0,1,5-20.28A43.44,43.44,0,0,1,544.5,529m7,23.79,1.15,1,1.52.15a3.72,3.72,0,0,1,3,2.76l.68,3.47,3.5.51a8.08,8.08,0,0,0,7.24-2.71A9.11,9.11,0,0,0,571,551a11.17,11.17,0,0,0-7.18-9,19.94,19.94,0,0,0-7.5-1.18h-.95a7.69,7.69,0,0,0-5.9,2.33,6.17,6.17,0,0,0-1,6.63,5.82,5.82,0,0,0,3,3m-7-28.79A48.5,48.5,0,0,0,542,620.93c.84.05,1.69.07,2.55.07a48.5,48.5,0,0,0,0-97Zm9.19,24.24c-.72,0-1-1.17-.52-1.74a3,3,0,0,1,2.23-.66h.89a15.12,15.12,0,0,1,5.64.83,6.16,6.16,0,0,1,4.06,4.81c.18,2.06-1.51,4.24-3.53,4.24l-.4,0a8.67,8.67,0,0,0-7.44-6.76l-.82-.69Z" id="el_rkKeRMQ7Rs7"/><path d="M553.8,548.23l.82.69a8.67,8.67,0,0,1,7.44,6.76c2.19.32,4.13-2,3.93-4.21a6.16,6.16,0,0,0-4.06-4.81,16.88,16.88,0,0,0-6.53-.82,3,3,0,0,0-2.23.66C552.63,547.1,553,548.36,553.8,548.23Z" id="el_ry9xCf7m0i7"/></g></g></svg>