<svg xmlns="http://www.w3.org/2000/svg" viewBox="0 0 574 459" id="el_SJYuAeS82Q"><style>@-webkit-keyframes el_BkmxOAxrI2m_BydJbSL3Q_Animation{0%{-webkit-transform: translate(251.06280517578125px, 279.42381286621094px) translate(-251.06280517578125px, -279.42381286621094px) translate(0px, 0px);transform: translate(251.06280517578125px, 279.42381286621094px) translate(-251.06280517578125px, -279.42381286621094px) translate(0px, 0px);}21.11%{-webkit-transform: translate(251.06280517578125px, 279.42381286621094px) translate(-251.06280517578125px, -279.42381286621094px) translate(-30px, 30px);transform: translate(251.06280517578125px, 279.42381286621094px) translate(-251.06280517578125px, -279.42381286621094px) translate(-30px, 30px);}33.33%{-webkit-transform: translate(251.06280517578125px, 279.42381286621094px) translate(-251.06280517578125px, -279.42381286621094px) translate(-50px, 50px);transform: translate(251.06280517578125px, 279.42381286621094px) translate(-251.06280517578125px, -279.42381286621094px) translate(-50px, 50px);}43.33%{-webkit-transform: translate(251.06280517578125px, 279.42381286621094px) translate(-251.06280517578125px, -279.42381286621094px) translate(-80px, 80px);transform: translate(251.06280517578125px, 279.42381286621094px) translate(-251.06280517578125px, -279.42381286621094px) translate(-80px, 80px);}56.67%{-webkit-transform: translate(251.06280517578125px, 279.42381286621094px) translate(-251.06280517578125px, -279.42381286621094px) translate(-100px, 100px);transform: translate(251.06280517578125px, 279.42381286621094px) translate(-251.06280517578125px, -279.42381286621094px) translate(-100px, 100px);}68.89%{-webkit-transform: translate(251.06280517578125px, 279.42381286621094px) translate(-251.06280517578125px, -279.42381286621094px) translate(-150px, 150px);transform: translate(251.06280517578125px, 279.42381286621094px) translate(-251.06280517578125px, -279.42381286621094px) translate(-150px, 150px);}81.11%{-webkit-transform: translate(251.06280517578125px, 279.42381286621094px) translate(-251.06280517578125px, -279.42381286621094px) translate(-180px, 150px);transform: translate(251.06280517578125px, 279.42381286621094px) translate(-251.06280517578125px, -279.42381286621094px) translate(-180px, 150px);}100%{-webkit-transform: translate(251.06280517578125px, 279.42381286621094px) translate(-251.06280517578125px, -279.42381286621094px) translate(-180px, 150px);transform: translate(251.06280517578125px, 279.42381286621094px) translate(-251.06280517578125px, -279.42381286621094px) translate(-180px, 150px);}}@keyframes el_BkmxOAxrI2m_BydJbSL3Q_Animation{0%{-webkit-transform: translate(251.06280517578125px, 279.42381286621094px) translate(-251.06280517578125px, -279.42381286621094px) translate(0px, 0px);transform: translate(251.06280517578125px, 279.42381286621094px) translate(-251.06280517578125px, -279.42381286621094px) translate(0px, 0px);}21.11%{-webkit-transform: translate(251.06280517578125px, 279.42381286621094px) translate(-251.06280517578125px, -279.42381286621094px) translate(-30px, 30px);transform: translate(251.06280517578125px, 279.42381286621094px) translate(-251.06280517578125px, -279.42381286621094px) translate(-30px, 30px);}33.33%{-webkit-transform: translate(251.06280517578125px, 279.42381286621094px) translate(-251.06280517578125px, -279.42381286621094px) translate(-50px, 50px);transform: translate(251.06280517578125px, 279.42381286621094px) translate(-251.06280517578125px, -279.42381286621094px) translate(-50px, 50px);}43.33%{-webkit-transform: translate(251.06280517578125px, 279.42381286621094px) translate(-251.06280517578125px, -279.42381286621094px) translate(-80px, 80px);transform: translate(251.06280517578125px, 279.42381286621094px) translate(-251.06280517578125px, -279.42381286621094px) translate(-80px, 80px);}56.67%{-webkit-transform: translate(251.06280517578125px, 279.42381286621094px) translate(-251.06280517578125px, -279.42381286621094px) translate(-100px, 100px);transform: translate(251.06280517578125px, 279.42381286621094px) translate(-251.06280517578125px, -279.42381286621094px) translate(-100px, 100px);}68.89%{-webkit-transform: translate(251.06280517578125px, 279.42381286621094px) translate(-251.06280517578125px, -279.42381286621094px) translate(-150px, 150px);transform: translate(251.06280517578125px, 279.42381286621094px) translate(-251.06280517578125px, -279.42381286621094px) translate(-150px, 150px);}81.11%{-webkit-transform: translate(251.06280517578125px, 279.42381286621094px) translate(-251.06280517578125px, -279.42381286621094px) translate(-180px, 150px);transform: translate(251.06280517578125px, 279.42381286621094px) translate(-251.06280517578125px, -279.42381286621094px) translate(-180px, 150px);}100%{-webkit-transform: translate(251.06280517578125px, 279.42381286621094px) translate(-251.06280517578125px, -279.42381286621094px) translate(-180px, 150px);transform: translate(251.06280517578125px, 279.42381286621094px) translate(-251.06280517578125px, -279.42381286621094px) translate(-180px, 150px);}}#el_SJYuAeS82Q *{-webkit-animation-duration: 3s;animation-duration: 3s;-webkit-animation-iteration-count: infinite;animation-iteration-count: infinite;-webkit-animation-timing-function: cubic-bezier(0, 0, 1, 1);animation-timing-function: cubic-bezier(0, 0, 1, 1);}#el_H12dAeSUhm{fill: #fc9;}#el_SkT_Rxr8n7{fill: #fc9;}#el_HyCuAgBI2Q{fill: #bc5e4b;}#el_HJygdAlrI3X{fill: #bc5e4b;}#el_B1xxuAxS83X{fill: #bc5e4b;}#el_HkzeOReHU2Q{fill: #ff3;}#el_By4gu0gSI2m{fill: #fff;}#el_BkmxOAxrI2m_BydJbSL3Q{-webkit-animation-name: el_BkmxOAxrI2m_BydJbSL3Q_Animation;animation-name: el_BkmxOAxrI2m_BydJbSL3Q_Animation;-webkit-transform: translate(251.06280517578125px, 279.42381286621094px) translate(-251.06280517578125px, -279.42381286621094px) translate(0px, 0px);transform: translate(251.06280517578125px, 279.42381286621094px) translate(-251.06280517578125px, -279.42381286621094px) translate(0px, 0px);}</style><defs/><title>Asset 1</title><g id="el_B19_RxHL2X" data-name="Layer 2"><g id="el_Sko_0eHL3Q" data-name="Layer 1"><path d="M241.88,199.21a22.47,22.47,0,0,0-2.37-4.38L226,175.57a22.29,22.29,0,0,0-31-5.45L9.45,300.16a22.31,22.31,0,0,0-5.45,31L17.5,350.4a22,22,0,0,0,3.33,3.72l.48-.36Z" id="el_H12dAeSUhm"/><path d="M321.51,294.83,308,275.57a21.42,21.42,0,0,0-3.54-3.92c-.47.36-.93.71-1.42,1.05L83.55,426.51A22.56,22.56,0,0,0,86,431.13L99.5,450.4a22.32,22.32,0,0,0,31,5.45l185.58-130A22.31,22.31,0,0,0,321.51,294.83Z" id="el_SkT_Rxr8n7"/><path d="M91.45,400.16,277,270.12a22.29,22.29,0,0,1,27.43,1.53,47.78,47.78,0,0,0,10.26-65.31h0a47.79,47.79,0,0,0-66.36-11.68l-6.49,4.55a22.31,22.31,0,0,1-7.82,26.6l-185.58,130a22.3,22.3,0,0,1-27.65-1.73,47.78,47.78,0,0,0-11.19,66h0A47.77,47.77,0,0,0,76,431.8l7.56-5.29A22.3,22.3,0,0,1,91.45,400.16Z" id="el_HyCuAgBI2Q"/><path d="M48.48,355.85l185.58-130a22.31,22.31,0,0,0,7.82-26.6L21.31,353.76l-.48.36A22.3,22.3,0,0,0,48.48,355.85Z" id="el_HJygdAlrI3X"/><path d="M304.47,271.65A22.29,22.29,0,0,0,277,270.12l-185.59,130a22.3,22.3,0,0,0-7.9,26.35L303.05,272.7C303.54,272.36,304,272,304.47,271.65Z" id="el_B1xxuAxS83X"/><g id="el_H1ZgO0grI3Q"><path d="M283.83,239.11c-6.36-16.77-25-23.26-41.23-16.58-19.71,8.11-29.62,29.68-35.68,48.7-3.33,10.44-5.66,21.48-10.49,31.37s-12.69,16.67-22.7,21.37a76,76,0,0,1-32.12,7.26c-11.58,0-23-2.23-34.54-.29-22.15,3.72-39.84,21.89-47.8,42.17-2.8,7.13,8.71,10.23,11.48,3.16,6.2-15.8,20.57-30.2,37.61-33.51,10.36-2,21,.11,31.41.35a86,86,0,0,0,29.49-4.61c8.94-3,17.52-7.24,24.78-13.33,7.42-6.23,12.15-14.55,15.67-23.45,7.2-18.28,9.73-38.42,21.5-54.67,5.41-7.48,13.23-14.46,22.83-15.23,7.67-.62,15.48,3,18.31,10.46,2.69,7.09,14.21,4,11.48-3.17Z" id="el_HkzeOReHU2Q"/></g></g><g id="el_BkmxOAxrI2m_BydJbSL3Q" data-animator-group="true" data-animator-type="0"><g id="el_BkmxOAxrI2m"><path d="M557.67,241.43c-18.28,25.5-73.33,35.93-108.12,37.66-21,1-35.67.1-58.49-7.54-12.31-4.12.52-38-14.16-35.56-53,8.88-41.33-24-40.78-32.31,1.89-28.4-27.92.91-32-23-2.25-13.21-34.35-9.22-26.95-19.44,9.25-12.78,8.72-23.46-11.48-29.84-31.12-9.83-5.62-65.26,12.37-90.37,39.4-55,133.92-54.65,211.13.69S597.06,186.46,557.67,241.43Z" id="el_By4gu0gSI2m"/></g></g></g></svg>