<svg xmlns="http://www.w3.org/2000/svg" viewBox="0 0 252 464" id="el_BJVDqJ34n7" height="464" width="252"><style>@-webkit-keyframes el_SyqvqkhV37_Animation{0%{opacity: 1;}35.56%{opacity: 0.55;}78.89%{opacity: 0.75;}100%{opacity: 0.75;}}@keyframes el_SyqvqkhV37_Animation{0%{opacity: 1;}35.56%{opacity: 0.55;}78.89%{opacity: 0.75;}100%{opacity: 0.75;}}@-webkit-keyframes el_Byiw9J343m_Animation{1.11%{opacity: 1;}47.78%{opacity: 0.1;}95.56%{opacity: 0.9;}0%{opacity: 1;}100%{opacity: 0.9;}}@keyframes el_Byiw9J343m_Animation{1.11%{opacity: 1;}47.78%{opacity: 0.1;}95.56%{opacity: 0.9;}0%{opacity: 1;}100%{opacity: 0.9;}}@-webkit-keyframes el_Hknvqk2EhX_Animation{0%{opacity: 1;}21.11%{opacity: 0.2;}57.78%{opacity: 0.8;}92.22%{opacity: 1;}100%{opacity: 1;}}@keyframes el_Hknvqk2EhX_Animation{0%{opacity: 1;}21.11%{opacity: 0.2;}57.78%{opacity: 0.8;}92.22%{opacity: 1;}100%{opacity: 1;}}@-webkit-keyframes el_SJ6wcy34nQ_Animation{7.78%{opacity: 1;}61.11%{opacity: 0.2;}95.56%{opacity: 1;}0%{opacity: 1;}100%{opacity: 1;}}@keyframes el_SJ6wcy34nQ_Animation{7.78%{opacity: 1;}61.11%{opacity: 0.2;}95.56%{opacity: 1;}0%{opacity: 1;}100%{opacity: 1;}}@-webkit-keyframes el_Sy0P9y2N3X_Animation{0%{opacity: 1;}88.89%{opacity: 0.19;}100%{opacity: 0.19;}}@keyframes el_Sy0P9y2N3X_Animation{0%{opacity: 1;}88.89%{opacity: 0.19;}100%{opacity: 0.19;}}@-webkit-keyframes el_H1bePqJnVh7_Hy0sJ2N27_Animation{0%{-webkit-transform: translate(241.61363220214844px, 250.42283630371094px) translate(-241.61363220214844px, -250.42283630371094px) translate(-10px, -50px);transform: translate(241.61363220214844px, 250.42283630371094px) translate(-241.61363220214844px, -250.42283630371094px) translate(-10px, -50px);}23.33%{-webkit-transform: translate(241.61363220214844px, 250.42283630371094px) translate(-241.61363220214844px, -250.42283630371094px) translate(-25px, 10px);transform: translate(241.61363220214844px, 250.42283630371094px) translate(-241.61363220214844px, -250.42283630371094px) translate(-25px, 10px);}52.22%{-webkit-transform: translate(241.61363220214844px, 250.42283630371094px) translate(-241.61363220214844px, -250.42283630371094px) translate(-25px, 80px);transform: translate(241.61363220214844px, 250.42283630371094px) translate(-241.61363220214844px, -250.42283630371094px) translate(-25px, 80px);}80%{-webkit-transform: translate(241.61363220214844px, 250.42283630371094px) translate(-241.61363220214844px, -250.42283630371094px) translate(-25px, 100px);transform: translate(241.61363220214844px, 250.42283630371094px) translate(-241.61363220214844px, -250.42283630371094px) translate(-25px, 100px);}96.67%{-webkit-transform: translate(241.61363220214844px, 250.42283630371094px) translate(-241.61363220214844px, -250.42283630371094px) translate(-25px, 200px);transform: translate(241.61363220214844px, 250.42283630371094px) translate(-241.61363220214844px, -250.42283630371094px) translate(-25px, 200px);}100%{-webkit-transform: translate(241.61363220214844px, 250.42283630371094px) translate(-241.61363220214844px, -250.42283630371094px) translate(-25px, 200px);transform: translate(241.61363220214844px, 250.42283630371094px) translate(-241.61363220214844px, -250.42283630371094px) translate(-25px, 200px);}}@keyframes el_H1bePqJnVh7_Hy0sJ2N27_Animation{0%{-webkit-transform: translate(241.61363220214844px, 250.42283630371094px) translate(-241.61363220214844px, -250.42283630371094px) translate(-10px, -50px);transform: translate(241.61363220214844px, 250.42283630371094px) translate(-241.61363220214844px, -250.42283630371094px) translate(-10px, -50px);}23.33%{-webkit-transform: translate(241.61363220214844px, 250.42283630371094px) translate(-241.61363220214844px, -250.42283630371094px) translate(-25px, 10px);transform: translate(241.61363220214844px, 250.42283630371094px) translate(-241.61363220214844px, -250.42283630371094px) translate(-25px, 10px);}52.22%{-webkit-transform: translate(241.61363220214844px, 250.42283630371094px) translate(-241.61363220214844px, -250.42283630371094px) translate(-25px, 80px);transform: translate(241.61363220214844px, 250.42283630371094px) translate(-241.61363220214844px, -250.42283630371094px) translate(-25px, 80px);}80%{-webkit-transform: translate(241.61363220214844px, 250.42283630371094px) translate(-241.61363220214844px, -250.42283630371094px) translate(-25px, 100px);transform: translate(241.61363220214844px, 250.42283630371094px) translate(-241.61363220214844px, -250.42283630371094px) translate(-25px, 100px);}96.67%{-webkit-transform: translate(241.61363220214844px, 250.42283630371094px) translate(-241.61363220214844px, -250.42283630371094px) translate(-25px, 200px);transform: translate(241.61363220214844px, 250.42283630371094px) translate(-241.61363220214844px, -250.42283630371094px) translate(-25px, 200px);}100%{-webkit-transform: translate(241.61363220214844px, 250.42283630371094px) translate(-241.61363220214844px, -250.42283630371094px) translate(-25px, 200px);transform: translate(241.61363220214844px, 250.42283630371094px) translate(-241.61363220214844px, -250.42283630371094px) translate(-25px, 200px);}}#el_BJVDqJ34n7 *{-webkit-animation-duration: 3s;animation-duration: 3s;-webkit-animation-iteration-count: infinite;animation-iteration-count: infinite;-webkit-animation-timing-function: cubic-bezier(0, 0, 1, 1);animation-timing-function: cubic-bezier(0, 0, 1, 1);}#el_SkDDcJnVhX{fill: #c96;stroke: #000;stroke-miterlimit: 10;}#el_S1OD9kn4hQ{stroke: #000;stroke-miterlimit: 10;fill: #f9c;}#el_SyqvqkhV37{stroke: #000;stroke-miterlimit: 10;fill: none;-webkit-animation-name: el_SyqvqkhV37_Animation;animation-name: el_SyqvqkhV37_Animation;opacity: 1;}#el_Byiw9J343m{stroke: #000;stroke-miterlimit: 10;fill: none;-webkit-animation-name: el_Byiw9J343m_Animation;animation-name: el_Byiw9J343m_Animation;opacity: 1;}#el_Hknvqk2EhX{stroke: #000;stroke-miterlimit: 10;fill: none;-webkit-animation-name: el_Hknvqk2EhX_Animation;animation-name: el_Hknvqk2EhX_Animation;opacity: 1;}#el_SJ6wcy34nQ{stroke: #000;stroke-miterlimit: 10;fill: none;-webkit-animation-name: el_SJ6wcy34nQ_Animation;animation-name: el_SJ6wcy34nQ_Animation;opacity: 1;}#el_Sy0P9y2N3X{stroke: #000;stroke-miterlimit: 10;fill: none;-webkit-animation-name: el_Sy0P9y2N3X_Animation;animation-name: el_Sy0P9y2N3X_Animation;opacity: 1;}#el_Byllw5yh43m{stroke: #000;stroke-miterlimit: 10;fill: #f9c;}#el_r1GxP9J24n7{fill: #f9c;}#el_H1bePqJnVh7_Hy0sJ2N27{-webkit-animation-name: el_H1bePqJnVh7_Hy0sJ2N27_Animation;animation-name: el_H1bePqJnVh7_Hy0sJ2N27_Animation;-webkit-transform: translate(241.61363220214844px, 250.42283630371094px) translate(-241.61363220214844px, -250.42283630371094px) translate(-10px, -50px);transform: translate(241.61363220214844px, 250.42283630371094px) translate(-241.61363220214844px, -250.42283630371094px) translate(-10px, -50px);}</style><defs/><title>Asset 1</title><g id="el_S1SvqJ2E3Q" data-name="Layer 2"><g id="el_By8Pqy3Nnm" data-name="top and bottom"><polygon points="7.67 168.89 110.45 462.73 227.46 159.39 7.67 168.89" id="el_SkDDcJnVhX"/><path d="M242.5,124.08c0,68.25-241.35,68.25-241.35,0S55.18.5,121.82.5,242.5,55.83,242.5,124.08Z" id="el_S1OD9kn4hQ"/></g><g id="el_rytP5y342Q" data-name="cone line"><line x1="177" y1="289" x2="77" y2="368" id="el_SyqvqkhV37"/><line x1="85" y1="184" x2="187" y2="264" id="el_Byiw9J343m"/><line x1="51" y1="294" x2="147" y2="369" id="el_Hknvqk2EhX"/><line x1="21" y1="207" x2="166" y2="320" id="el_SJ6wcy34nQ"/><line x1="212" y1="191" x2="46" y2="279" id="el_Sy0P9y2N3X"/></g><g id="el_ByklDqkhVnX" data-name="ice cream round"><path d="M212.12,137.06a30.4,30.4,0,0,0-22.78,10,30.4,30.4,0,0,0-22.78-10,30.73,30.73,0,0,0-19.78,7.05A30.75,30.75,0,0,0,127,137.06c-11.57,0-21.6,6.17-26.38,15.1-4.79-8.93-14.81-15.1-26.38-15.1a30.46,30.46,0,0,0-22.18,9.31,30.46,30.46,0,0,0-22.18-9.31C13.68,137.06.5,149.15.5,164s13.18,26.94,29.38,26.94a30.46,30.46,0,0,0,22.18-9.31,30.46,30.46,0,0,0,22.18,9.31c11.57,0,21.59-6.17,26.38-15.1,4.78,8.93,14.81,15.1,26.38,15.1a30.75,30.75,0,0,0,19.78-7.05,30.73,30.73,0,0,0,19.78,7.05,30.4,30.4,0,0,0,22.78-10,30.4,30.4,0,0,0,22.78,10c16.2,0,29.38-12.09,29.38-26.94S228.32,137.06,212.12,137.06Z" id="el_Byllw5yh43m"/></g><g id="el_H1bePqJnVh7_Hy0sJ2N27" data-animator-group="true" data-animator-type="0"><g id="el_H1bePqJnVh7"><path d="M235.67,239.67a122.76,122.76,0,0,0-3.58,21.72c-.14,1.85-.11,4,1.32,5.16,1.09.88,2.62.88,4,.84l12-.34c5.08-12,0-27.33-11.29-33.85A55.51,55.51,0,0,1,234,250.74" id="el_r1GxP9J24n7"/><path d="M235,239.47a133.09,133.09,0,0,0-2.83,14.42c-.42,3.14-1.53,7.4-.68,10.53.63,2.38,2,3.28,4.37,3.69,4.21.74,9.3-.19,13.58-.31a.77.77,0,0,0,.72-.55,28.83,28.83,0,0,0-11.64-34.7.75.75,0,0,0-1.12.65,60.5,60.5,0,0,1-4.09,17.34c-.36.9,1.09,1.29,1.44.4a61.57,61.57,0,0,0,4.15-17.74l-1.13.65A27.45,27.45,0,0,1,249.92,263c-.87,3.72-3,3.33-6.51,3.43-4.21.12-10.1,1-10.57-5.08-.54-6.8,1.91-14.94,3.56-21.52.23-.94-1.22-1.34-1.45-.4Z" id="el_r17xDq12E3X"/></g></g></g></svg>