<svg xmlns="http://www.w3.org/2000/svg" viewBox="-103 -35.5 600 500" id="el_Bk0FJK7InX" height="500" width="600"><style>@-webkit-keyframes el_SkPeKyF7UhQ_Animation{0%{opacity: 1;}38.89%{opacity: 0;}93.33%{opacity: 1;}100%{opacity: 1;}}@keyframes el_SkPeKyF7UhQ_Animation{0%{opacity: 1;}38.89%{opacity: 0;}93.33%{opacity: 1;}100%{opacity: 1;}}@-webkit-keyframes el_HkjeYJYQL27_Animation{0%{opacity: 1;}38.89%{opacity: 0;}93.33%{opacity: 1;}100%{opacity: 1;}}@keyframes el_HkjeYJYQL27_Animation{0%{opacity: 1;}38.89%{opacity: 0;}93.33%{opacity: 1;}100%{opacity: 1;}}#el_Bk0FJK7InX *{-webkit-animation-duration: 3s;animation-duration: 3s;-webkit-animation-iteration-count: infinite;animation-iteration-count: infinite;-webkit-animation-timing-function: cubic-bezier(0, 0, 1, 1);animation-timing-function: cubic-bezier(0, 0, 1, 1);}#el_r1feF1t7I3X{fill: #f66;}#el_HkmxtJtX8hQ{fill: #f66;}#el_S14xKJY7Ih7{fill: #f66;}#el_SJIltkY7U2X{fill: #fffb66;}#el_ry_etytXUnm{fill: #f66;}#el_S1txFkt7Lnm{fill: #f66;}#el_rJ5lKJFQI2Q{fill: #f66;}#el_Hy3xt1KX8h7{fill: #fffb66;}#el_HkjeYJYQL27{-webkit-animation-name: el_HkjeYJYQL27_Animation;animation-name: el_HkjeYJYQL27_Animation;opacity: 1;}#el_SkPeKyF7UhQ{-webkit-animation-name: el_SkPeKyF7UhQ_Animation;animation-name: el_SkPeKyF7UhQ_Animation;opacity: 1;}</style><defs/><title>Asset 1</title><g id="el_S11gKyFQ82X" data-name="Layer 2"><g id="el_ByxlFyKQIhX" data-name="Layer 1"><g id="el_SkbgF1t7I2Q"><path d="M168,120H149.6a11.86,11.86,0,0,1-6.6,2H30a11.86,11.86,0,0,1-6.6-2H12A12,12,0,0,0,0,132V417a12,12,0,0,0,12,12H168a12,12,0,0,0,12-12V132A12,12,0,0,0,168,120Z" id="el_r1feF1t7I3X"/><path d="M143,122a11.86,11.86,0,0,0,6.6-2,12,12,0,0,0,5.4-10V82a12,12,0,0,0-12-12H102.61l.39,2H64l.37-2H30A12,12,0,0,0,18,82v28a12,12,0,0,0,5.4,10,11.86,11.86,0,0,0,6.6,2Z" id="el_HkmxtJtX8hQ"/><polygon points="103 72 102.61 70 88.82 0 77.29 0 64.41 70 64.04 72 103 72" id="el_S14xKJY7Ih7"/></g><g id="el_rJrxKkKXI27"><path d="M382,120H363.6a12,12,0,0,0,5.4-10V82a12,12,0,0,0-12-12H316.61L302.82,0H291.29L278.41,70H244a12,12,0,0,0-12,12v28a12,12,0,0,0,5.4,10H226a12,12,0,0,0-12,12V417a12,12,0,0,0,12,12H382a12,12,0,0,0,12-12V132A12,12,0,0,0,382,120Z" id="el_SJIltkY7U2X"/></g><g id="el_SkPeKyF7UhQ" data-name="ketch"><path d="M382,120H363.6a11.86,11.86,0,0,1-6.6,2H244a11.86,11.86,0,0,1-6.6-2H226a12,12,0,0,0-12,12V417a12,12,0,0,0,12,12H382a12,12,0,0,0,12-12V132A12,12,0,0,0,382,120Z" id="el_ry_etytXUnm"/><path d="M357,122a11.86,11.86,0,0,0,6.6-2,12,12,0,0,0,5.4-10V82a12,12,0,0,0-12-12H316.61l.39,2H278l.37-2H244a12,12,0,0,0-12,12v28a12,12,0,0,0,5.4,10,11.86,11.86,0,0,0,6.6,2Z" id="el_S1txFkt7Lnm"/><polygon points="317 72 316.61 70 302.82 0 291.29 0 278.41 70 278.04 72 317 72" id="el_rJ5lKJFQI2Q"/></g><g id="el_HkjeYJYQL27" data-name="must"><path d="M168,120H149.6a12,12,0,0,0,5.4-10V82a12,12,0,0,0-12-12H102.61L88.82,0H77.29L64.41,70H30A12,12,0,0,0,18,82v28a12,12,0,0,0,5.4,10H12A12,12,0,0,0,0,132V417a12,12,0,0,0,12,12H168a12,12,0,0,0,12-12V132A12,12,0,0,0,168,120Z" id="el_Hy3xt1KX8h7"/></g></g></g></svg>