<svg xmlns="http://www.w3.org/2000/svg" viewBox="0 0 275 315" id="el_B1Yrc3iVhm"><style>@-webkit-keyframes el_Bk8lB93sVnX_Hk3Cpo43X_Animation{18.89%{-webkit-transform: translate(170.08999633789062px, 191.82000732421875px) scale(1, 1) translate(-170.08999633789062px, -191.82000732421875px);transform: translate(170.08999633789062px, 191.82000732421875px) scale(1, 1) translate(-170.08999633789062px, -191.82000732421875px);}66.67%{-webkit-transform: translate(170.08999633789062px, 191.82000732421875px) scale(1.8, 1.8) translate(-170.08999633789062px, -191.82000732421875px);transform: translate(170.08999633789062px, 191.82000732421875px) scale(1.8, 1.8) translate(-170.08999633789062px, -191.82000732421875px);}95.56%{-webkit-transform: translate(170.08999633789062px, 191.82000732421875px) scale(0.8, 0.8) translate(-170.08999633789062px, -191.82000732421875px);transform: translate(170.08999633789062px, 191.82000732421875px) scale(0.8, 0.8) translate(-170.08999633789062px, -191.82000732421875px);}0%{-webkit-transform: translate(170.08999633789062px, 191.82000732421875px) scale(1, 1) translate(-170.08999633789062px, -191.82000732421875px);transform: translate(170.08999633789062px, 191.82000732421875px) scale(1, 1) translate(-170.08999633789062px, -191.82000732421875px);}100%{-webkit-transform: translate(170.08999633789062px, 191.82000732421875px) scale(0.8, 0.8) translate(-170.08999633789062px, -191.82000732421875px);transform: translate(170.08999633789062px, 191.82000732421875px) scale(0.8, 0.8) translate(-170.08999633789062px, -191.82000732421875px);}}@keyframes el_Bk8lB93sVnX_Hk3Cpo43X_Animation{18.89%{-webkit-transform: translate(170.08999633789062px, 191.82000732421875px) scale(1, 1) translate(-170.08999633789062px, -191.82000732421875px);transform: translate(170.08999633789062px, 191.82000732421875px) scale(1, 1) translate(-170.08999633789062px, -191.82000732421875px);}66.67%{-webkit-transform: translate(170.08999633789062px, 191.82000732421875px) scale(1.8, 1.8) translate(-170.08999633789062px, -191.82000732421875px);transform: translate(170.08999633789062px, 191.82000732421875px) scale(1.8, 1.8) translate(-170.08999633789062px, -191.82000732421875px);}95.56%{-webkit-transform: translate(170.08999633789062px, 191.82000732421875px) scale(0.8, 0.8) translate(-170.08999633789062px, -191.82000732421875px);transform: translate(170.08999633789062px, 191.82000732421875px) scale(0.8, 0.8) translate(-170.08999633789062px, -191.82000732421875px);}0%{-webkit-transform: translate(170.08999633789062px, 191.82000732421875px) scale(1, 1) translate(-170.08999633789062px, -191.82000732421875px);transform: translate(170.08999633789062px, 191.82000732421875px) scale(1, 1) translate(-170.08999633789062px, -191.82000732421875px);}100%{-webkit-transform: translate(170.08999633789062px, 191.82000732421875px) scale(0.8, 0.8) translate(-170.08999633789062px, -191.82000732421875px);transform: translate(170.08999633789062px, 191.82000732421875px) scale(0.8, 0.8) translate(-170.08999633789062px, -191.82000732421875px);}}@-webkit-keyframes el_SydxSc2jV3Q_HJGnTs437_Animation{0%{-webkit-transform: translate(100.08999633789062px, 181.82000732421875px) scale(1, 1) translate(-100.08999633789062px, -181.82000732421875px);transform: translate(100.08999633789062px, 181.82000732421875px) scale(1, 1) translate(-100.08999633789062px, -181.82000732421875px);}42.22%{-webkit-transform: translate(100.08999633789062px, 181.82000732421875px) scale(1.5, 1.5) translate(-100.08999633789062px, -181.82000732421875px);transform: translate(100.08999633789062px, 181.82000732421875px) scale(1.5, 1.5) translate(-100.08999633789062px, -181.82000732421875px);}81.11%{-webkit-transform: translate(100.08999633789062px, 181.82000732421875px) scale(1, 1) translate(-100.08999633789062px, -181.82000732421875px);transform: translate(100.08999633789062px, 181.82000732421875px) scale(1, 1) translate(-100.08999633789062px, -181.82000732421875px);}100%{-webkit-transform: translate(100.08999633789062px, 181.82000732421875px) scale(1, 1) translate(-100.08999633789062px, -181.82000732421875px);transform: translate(100.08999633789062px, 181.82000732421875px) scale(1, 1) translate(-100.08999633789062px, -181.82000732421875px);}}@keyframes el_SydxSc2jV3Q_HJGnTs437_Animation{0%{-webkit-transform: translate(100.08999633789062px, 181.82000732421875px) scale(1, 1) translate(-100.08999633789062px, -181.82000732421875px);transform: translate(100.08999633789062px, 181.82000732421875px) scale(1, 1) translate(-100.08999633789062px, -181.82000732421875px);}42.22%{-webkit-transform: translate(100.08999633789062px, 181.82000732421875px) scale(1.5, 1.5) translate(-100.08999633789062px, -181.82000732421875px);transform: translate(100.08999633789062px, 181.82000732421875px) scale(1.5, 1.5) translate(-100.08999633789062px, -181.82000732421875px);}81.11%{-webkit-transform: translate(100.08999633789062px, 181.82000732421875px) scale(1, 1) translate(-100.08999633789062px, -181.82000732421875px);transform: translate(100.08999633789062px, 181.82000732421875px) scale(1, 1) translate(-100.08999633789062px, -181.82000732421875px);}100%{-webkit-transform: translate(100.08999633789062px, 181.82000732421875px) scale(1, 1) translate(-100.08999633789062px, -181.82000732421875px);transform: translate(100.08999633789062px, 181.82000732421875px) scale(1, 1) translate(-100.08999633789062px, -181.82000732421875px);}}@-webkit-keyframes el_SygxH93sEhQ_Animation{0%{opacity: 1;}22.22%{opacity: 0.8;}44.44%{opacity: 0.6;}80%{opacity: 0;}97.78%{opacity: 0.9;}100%{opacity: 0.9;}}@keyframes el_SygxH93sEhQ_Animation{0%{opacity: 1;}22.22%{opacity: 0.8;}44.44%{opacity: 0.6;}80%{opacity: 0;}97.78%{opacity: 0.9;}100%{opacity: 0.9;}}@-webkit-keyframes el_BJylB93jN2X_Animation{0%{opacity: 1;}22.22%{opacity: 0.8;}55.56%{opacity: 0.6;}80%{opacity: 0;}97.78%{opacity: 0.9;}100%{opacity: 0.9;}}@keyframes el_BJylB93jN2X_Animation{0%{opacity: 1;}22.22%{opacity: 0.8;}55.56%{opacity: 0.6;}80%{opacity: 0;}97.78%{opacity: 0.9;}100%{opacity: 0.9;}}@-webkit-keyframes el_BJBgHq2oEhQ_Animation{0%{opacity: 0.8;}41.11%{opacity: 0;}80%{opacity: 1;}100%{opacity: 1;}}@keyframes el_BJBgHq2oEhQ_Animation{0%{opacity: 0.8;}41.11%{opacity: 0;}80%{opacity: 1;}100%{opacity: 1;}}@-webkit-keyframes el_S1EeB9hjV3m_Animation{0%{opacity: 0.8;}41.11%{opacity: 0;}80%{opacity: 1;}100%{opacity: 1;}}@keyframes el_S1EeB9hjV3m_Animation{0%{opacity: 0.8;}41.11%{opacity: 0;}80%{opacity: 1;}100%{opacity: 1;}}#el_B1Yrc3iVhm *{-webkit-animation-duration: 3s;animation-duration: 3s;-webkit-animation-iteration-count: infinite;animation-iteration-count: infinite;-webkit-animation-timing-function: cubic-bezier(0, 0, 1, 1);animation-timing-function: cubic-bezier(0, 0, 1, 1);}#el_SkhBqniVh7{fill: #ecef73;stroke: #000;stroke-miterlimit: 10;stroke-width: 2px;}#el_Sk0S5hoVh7{stroke: #000;stroke-miterlimit: 10;fill: #c63;}#el_BJylB93jN2X{fill: #c96;-webkit-animation-name: el_BJylB93jN2X_Animation;animation-name: el_BJylB93jN2X_Animation;opacity: 1;}#el_Hk-xSqniV37{stroke: #000;stroke-miterlimit: 10;fill: #c66;}#el_HkGlr5noN37{stroke: #000;stroke-miterlimit: 10;fill: #c66;}#el_rymlr9hiN27{stroke: #000;stroke-miterlimit: 10;fill: #c66;}#el_S1EeB9hjV3m{fill: #c96;-webkit-animation-name: el_S1EeB9hjV3m_Animation;animation-name: el_S1EeB9hjV3m_Animation;opacity: 0.8;}#el_r1Per9njV3Q{fill: #ecef73;stroke: #000;stroke-miterlimit: 10;stroke-width: 4px;}#el_BkteBchiNnQ{fill: #ecef73;stroke: #000;stroke-miterlimit: 10;stroke-width: 4px;}#el_BJBgHq2oEhQ{-webkit-animation-name: el_BJBgHq2oEhQ_Animation;animation-name: el_BJBgHq2oEhQ_Animation;opacity: 0.8;}#el_SygxH93sEhQ{-webkit-animation-name: el_SygxH93sEhQ_Animation;animation-name: el_SygxH93sEhQ_Animation;opacity: 1;}#el_SydxSc2jV3Q_S1V9aiEn7{-webkit-transform: translate(100.08999633789062px, 181.82000732421875px) rotate(722deg) translate(-100.08999633789062px, -181.82000732421875px);transform: translate(100.08999633789062px, 181.82000732421875px) rotate(722deg) translate(-100.08999633789062px, -181.82000732421875px);}#el_SydxSc2jV3Q_HJGnTs437{-webkit-animation-name: el_SydxSc2jV3Q_HJGnTs437_Animation;animation-name: el_SydxSc2jV3Q_HJGnTs437_Animation;-webkit-transform: translate(100.08999633789062px, 181.82000732421875px) scale(1, 1) translate(-100.08999633789062px, -181.82000732421875px);transform: translate(100.08999633789062px, 181.82000732421875px) scale(1, 1) translate(-100.08999633789062px, -181.82000732421875px);}#el_Bk8lB93sVnX_Hk3Cpo43X{-webkit-animation-name: el_Bk8lB93sVnX_Hk3Cpo43X_Animation;animation-name: el_Bk8lB93sVnX_Hk3Cpo43X_Animation;-webkit-transform: translate(170.08999633789062px, 191.82000732421875px) scale(1, 1) translate(-170.08999633789062px, -191.82000732421875px);transform: translate(170.08999633789062px, 191.82000732421875px) scale(1, 1) translate(-170.08999633789062px, -191.82000732421875px);}</style><defs/><title>Asset 2</title><g id="el_SyqS93jEnQ" data-name="Layer 2"><g id="el_S1src3oN3m"><polygon points="86.75 9.2 266.68 171.03 81.94 270.14 37.31 294.07 1.6 313.24 86.75 9.2" id="el_SkhBqniVh7"/></g><g id="el_ByaHc2iE2X"><path d="M199.13,65.1c52.59,47.13,85.56,96.12,73.64,109.42S70.4,17.16,82.32,3.86,146.54,18,199.13,65.1Z" id="el_Sk0S5hoVh7"/><path d="M99,112.49l19.18-.2.14,14.76a3.09,3.09,0,0,1-.57,2.26,3,3,0,0,1-2,.67,53.81,53.81,0,0,1-19.94-2.19c1.76,3.26.44,7.59-2.39,10s-6.78,3.09-10.47,2.71a11,11,0,0,1-4.36-1.25,10.21,10.21,0,0,1-3.08-2.92c-4.37-6-4.41-14-4.26-21.39a14,14,0,0,1,.61-4.6c1.06-2.81,3.82-4.61,5.37-7.19a9.1,9.1,0,0,1,1.53-2.23,5.05,5.05,0,0,1,2-.93A14.13,14.13,0,0,1,98.44,112.7" id="el_BJylB93jN2X"/><path d="M99,114l19.18-.2-1.5-1.5.08,8.31c0,3.29,1.29,7-2.84,8-5.38,1.29-12.58-.78-17.71-2.26-1-.29-2.29.76-1.84,1.85,3.88,9.5-11.12,14.36-16.9,8.18-4.24-4.52-4.7-11.58-4.75-17.43,0-2.93-.34-6.5,1.1-9.18a37.46,37.46,0,0,1,4.71-5.86c6.73-7.57,17.37.7,18.38,8.8.23,1.89,3.24,1.92,3,0-1.12-9-8.65-15.94-18-14.47-4.7.74-6.88,4.93-9.58,8.5-3.08,4.08-2.72,8.91-2.58,13.83.26,8.67,2.69,20.25,13,21.4,8.24.92,18.33-5.21,14.51-14.57l-1.85,1.84a59.42,59.42,0,0,0,13,2.33c2.57.14,6.86.84,9.17-.44,1.79-1,2.07-2.14,2.23-4.07.42-4.82-.09-9.91-.14-14.76a1.52,1.52,0,0,0-1.5-1.5L99,111a1.5,1.5,0,0,0,0,3Z" id="el_SygxH93sEhQ"/><circle cx="178.59" cy="140.32" r="28.5" id="el_Hk-xSqniV37"/><path d="M154.22,213.32c9.18,14.78-44.35,48-53.52,33.23a31.5,31.5,0,1,1,53.52-33.23Z" id="el_HkGlr5noN37"/><circle cx="52.59" cy="192.32" r="13.5" id="el_rymlr9hiN27"/><path d="M52.05,255.1c-.51-3,.4-6.13-.64-8.95a13.69,13.69,0,0,0-2.54-3.88c-4.73-5.69-10-11.72-17.21-13.39a10.29,10.29,0,0,0-4.24-.2A9.82,9.82,0,0,0,24.27,230c-.93,3.79-2,7.55-2.81,11.37-.43,2.11-.87,4.2-1.32,6.29a6.49,6.49,0,0,0,1.74,1c-.73.33-1.46.67-2.18,1-1.75,8-3.68,15.93-6,23.71L15.1,275l14.38-12.69.3-.55a14.11,14.11,0,0,0,21.66-1.91,5,5,0,0,0,.92-2A8.54,8.54,0,0,0,52.05,255.1Z" id="el_S1EeB9hjV3m"/><path d="M53.18,255.1c-.27-3,.35-6.34-.68-9.25-.76-2.11-2.37-3.83-3.79-5.51C45,236,41,231.51,35.67,229.09c-3.16-1.44-9.17-3.06-12.08,0-1.43,1.5-1.62,5.27-2.1,7.2-.92,3.66-1.65,7.35-2.43,11a1.17,1.17,0,0,0,.51,1.27,6.53,6.53,0,0,0,1.74,1v-1.94c-2.52,1.15-2.49.91-3.1,3.54-.85,3.68-1.68,7.35-2.61,11q-.7,2.73-1.45,5.44c-.39,1.41-1.83,4.11-1.57,5.41s.8,1.67,1.72,2.72a1.15,1.15,0,0,0,1.59,0l9.35-8.25c1.77-1.56,4.34-3.12,5.52-5.22l-1.77.23c4.55,4.1,10.67,5.76,16.5,3.4,4.76-1.93,8.67-5.81,7.65-11.11-.28-1.42-2.45-.82-2.17.59.92,4.77-4.24,8.08-8.18,9a13.46,13.46,0,0,1-12.21-3.49,1.13,1.13,0,0,0-1.77.23c-1.26,2.26-4.66,4.31-6.6,6l-7.91,7h1.59c-2-2.29,1.4-9.48,2.11-12.29.83-3.32,1.1-10.77,4.45-12.3a1.13,1.13,0,0,0,0-1.94c-2.25-1.06.9-9.57,1.45-11.71.73-2.87.78-5.77,4.93-6.26,2.51-.3,5.57,1.17,7.65,2.35a35.9,35.9,0,0,1,8.68,7.63c1.52,1.71,3.54,3.67,4.6,5.68,1.58,3,.88,6.57,1.17,9.77C51.06,256.54,53.31,256.55,53.18,255.1Z" id="el_BJBgHq2oEhQ"/><g id="el_Bk8lB93sVnX_Hk3Cpo43X" data-animator-group="true" data-animator-type="2"><circle cx="170.09" cy="191.82" r="13" id="el_Bk8lB93sVnX"/></g><circle cx="171.09" cy="191.82" r="7" id="el_r1Per9njV3Q"/><g id="el_SydxSc2jV3Q_HJGnTs437" data-animator-group="true" data-animator-type="2"><circle cx="100.09" cy="181.82" r="13" id="el_SydxSc2jV3Q"/></g><circle cx="100.09" cy="181.82" r="7" id="el_BkteBchiNnQ"/></g></g></svg>