<svg xmlns="http://www.w3.org/2000/svg" viewBox="0 0 253 334" id="el_SkYlmHXCjX"><style>@-webkit-keyframes el_rkC-xXHX0s7_H1oQrXRjm_Animation{0%{-webkit-transform: translate(196.3377685546875px, 280.2379150390625px) translate(-196.3377685546875px, -280.2379150390625px) translate(-20px, -180px);transform: translate(196.3377685546875px, 280.2379150390625px) translate(-196.3377685546875px, -280.2379150390625px) translate(-20px, -180px);}10%{-webkit-transform: translate(196.3377685546875px, 280.2379150390625px) translate(-196.3377685546875px, -280.2379150390625px) translate(-2px, -150px);transform: translate(196.3377685546875px, 280.2379150390625px) translate(-196.3377685546875px, -280.2379150390625px) translate(-2px, -150px);}21.11%{-webkit-transform: translate(196.3377685546875px, 280.2379150390625px) translate(-196.3377685546875px, -280.2379150390625px) translate(-3px, -120px);transform: translate(196.3377685546875px, 280.2379150390625px) translate(-196.3377685546875px, -280.2379150390625px) translate(-3px, -120px);}33.33%{-webkit-transform: translate(196.3377685546875px, 280.2379150390625px) translate(-196.3377685546875px, -280.2379150390625px) translate(-2px, -100px);transform: translate(196.3377685546875px, 280.2379150390625px) translate(-196.3377685546875px, -280.2379150390625px) translate(-2px, -100px);}43.33%{-webkit-transform: translate(196.3377685546875px, 280.2379150390625px) translate(-196.3377685546875px, -280.2379150390625px) translate(-2px, -80px);transform: translate(196.3377685546875px, 280.2379150390625px) translate(-196.3377685546875px, -280.2379150390625px) translate(-2px, -80px);}53.33%{-webkit-transform: translate(196.3377685546875px, 280.2379150390625px) translate(-196.3377685546875px, -280.2379150390625px) translate(-3px, -62px);transform: translate(196.3377685546875px, 280.2379150390625px) translate(-196.3377685546875px, -280.2379150390625px) translate(-3px, -62px);}63.33%{-webkit-transform: translate(196.3377685546875px, 280.2379150390625px) translate(-196.3377685546875px, -280.2379150390625px) translate(-5px, -30px);transform: translate(196.3377685546875px, 280.2379150390625px) translate(-196.3377685546875px, -280.2379150390625px) translate(-5px, -30px);}75.56%{-webkit-transform: translate(196.3377685546875px, 280.2379150390625px) translate(-196.3377685546875px, -280.2379150390625px) translate(-5px, -5px);transform: translate(196.3377685546875px, 280.2379150390625px) translate(-196.3377685546875px, -280.2379150390625px) translate(-5px, -5px);}84.44%{-webkit-transform: translate(196.3377685546875px, 280.2379150390625px) translate(-196.3377685546875px, -280.2379150390625px) translate(-5px, 2px);transform: translate(196.3377685546875px, 280.2379150390625px) translate(-196.3377685546875px, -280.2379150390625px) translate(-5px, 2px);}96.67%{-webkit-transform: translate(196.3377685546875px, 280.2379150390625px) translate(-196.3377685546875px, -280.2379150390625px) translate(-5px, 0px);transform: translate(196.3377685546875px, 280.2379150390625px) translate(-196.3377685546875px, -280.2379150390625px) translate(-5px, 0px);}100%{-webkit-transform: translate(196.3377685546875px, 280.2379150390625px) translate(-196.3377685546875px, -280.2379150390625px) translate(-5px, 0px);transform: translate(196.3377685546875px, 280.2379150390625px) translate(-196.3377685546875px, -280.2379150390625px) translate(-5px, 0px);}}@keyframes el_rkC-xXHX0s7_H1oQrXRjm_Animation{0%{-webkit-transform: translate(196.3377685546875px, 280.2379150390625px) translate(-196.3377685546875px, -280.2379150390625px) translate(-20px, -180px);transform: translate(196.3377685546875px, 280.2379150390625px) translate(-196.3377685546875px, -280.2379150390625px) translate(-20px, -180px);}10%{-webkit-transform: translate(196.3377685546875px, 280.2379150390625px) translate(-196.3377685546875px, -280.2379150390625px) translate(-2px, -150px);transform: translate(196.3377685546875px, 280.2379150390625px) translate(-196.3377685546875px, -280.2379150390625px) translate(-2px, -150px);}21.11%{-webkit-transform: translate(196.3377685546875px, 280.2379150390625px) translate(-196.3377685546875px, -280.2379150390625px) translate(-3px, -120px);transform: translate(196.3377685546875px, 280.2379150390625px) translate(-196.3377685546875px, -280.2379150390625px) translate(-3px, -120px);}33.33%{-webkit-transform: translate(196.3377685546875px, 280.2379150390625px) translate(-196.3377685546875px, -280.2379150390625px) translate(-2px, -100px);transform: translate(196.3377685546875px, 280.2379150390625px) translate(-196.3377685546875px, -280.2379150390625px) translate(-2px, -100px);}43.33%{-webkit-transform: translate(196.3377685546875px, 280.2379150390625px) translate(-196.3377685546875px, -280.2379150390625px) translate(-2px, -80px);transform: translate(196.3377685546875px, 280.2379150390625px) translate(-196.3377685546875px, -280.2379150390625px) translate(-2px, -80px);}53.33%{-webkit-transform: translate(196.3377685546875px, 280.2379150390625px) translate(-196.3377685546875px, -280.2379150390625px) translate(-3px, -62px);transform: translate(196.3377685546875px, 280.2379150390625px) translate(-196.3377685546875px, -280.2379150390625px) translate(-3px, -62px);}63.33%{-webkit-transform: translate(196.3377685546875px, 280.2379150390625px) translate(-196.3377685546875px, -280.2379150390625px) translate(-5px, -30px);transform: translate(196.3377685546875px, 280.2379150390625px) translate(-196.3377685546875px, -280.2379150390625px) translate(-5px, -30px);}75.56%{-webkit-transform: translate(196.3377685546875px, 280.2379150390625px) translate(-196.3377685546875px, -280.2379150390625px) translate(-5px, -5px);transform: translate(196.3377685546875px, 280.2379150390625px) translate(-196.3377685546875px, -280.2379150390625px) translate(-5px, -5px);}84.44%{-webkit-transform: translate(196.3377685546875px, 280.2379150390625px) translate(-196.3377685546875px, -280.2379150390625px) translate(-5px, 2px);transform: translate(196.3377685546875px, 280.2379150390625px) translate(-196.3377685546875px, -280.2379150390625px) translate(-5px, 2px);}96.67%{-webkit-transform: translate(196.3377685546875px, 280.2379150390625px) translate(-196.3377685546875px, -280.2379150390625px) translate(-5px, 0px);transform: translate(196.3377685546875px, 280.2379150390625px) translate(-196.3377685546875px, -280.2379150390625px) translate(-5px, 0px);}100%{-webkit-transform: translate(196.3377685546875px, 280.2379150390625px) translate(-196.3377685546875px, -280.2379150390625px) translate(-5px, 0px);transform: translate(196.3377685546875px, 280.2379150390625px) translate(-196.3377685546875px, -280.2379150390625px) translate(-5px, 0px);}}@-webkit-keyframes el_ryLgxmBXAsm_BJHy_7Co7_Animation{0%{-webkit-transform: translate(99.36243057250977px, 225.12376403808594px) rotate(0deg) translate(-99.36243057250977px, -225.12376403808594px);transform: translate(99.36243057250977px, 225.12376403808594px) rotate(0deg) translate(-99.36243057250977px, -225.12376403808594px);}87.78%{-webkit-transform: translate(99.36243057250977px, 225.12376403808594px) rotate(722deg) translate(-99.36243057250977px, -225.12376403808594px);transform: translate(99.36243057250977px, 225.12376403808594px) rotate(722deg) translate(-99.36243057250977px, -225.12376403808594px);}100%{-webkit-transform: translate(99.36243057250977px, 225.12376403808594px) rotate(722deg) translate(-99.36243057250977px, -225.12376403808594px);transform: translate(99.36243057250977px, 225.12376403808594px) rotate(722deg) translate(-99.36243057250977px, -225.12376403808594px);}}@keyframes el_ryLgxmBXAsm_BJHy_7Co7_Animation{0%{-webkit-transform: translate(99.36243057250977px, 225.12376403808594px) rotate(0deg) translate(-99.36243057250977px, -225.12376403808594px);transform: translate(99.36243057250977px, 225.12376403808594px) rotate(0deg) translate(-99.36243057250977px, -225.12376403808594px);}87.78%{-webkit-transform: translate(99.36243057250977px, 225.12376403808594px) rotate(722deg) translate(-99.36243057250977px, -225.12376403808594px);transform: translate(99.36243057250977px, 225.12376403808594px) rotate(722deg) translate(-99.36243057250977px, -225.12376403808594px);}100%{-webkit-transform: translate(99.36243057250977px, 225.12376403808594px) rotate(722deg) translate(-99.36243057250977px, -225.12376403808594px);transform: translate(99.36243057250977px, 225.12376403808594px) rotate(722deg) translate(-99.36243057250977px, -225.12376403808594px);}}#el_SkYlmHXCjX *{-webkit-animation-duration: 3s;animation-duration: 3s;-webkit-animation-iteration-count: infinite;animation-iteration-count: infinite;-webkit-animation-timing-function: cubic-bezier(0, 0, 1, 1);animation-timing-function: cubic-bezier(0, 0, 1, 1);}#el_Sy2emHmCs7{fill: #c24c3e;stroke: #000;stroke-miterlimit: 10;}#el_SyaxmBQRoQ{stroke: #000;stroke-miterlimit: 10;fill: #fff;}#el_BJRemSmRi7{stroke: #000;stroke-miterlimit: 10;fill: #fff;}#el_rJ1lemBQRo7{stroke: #000;stroke-miterlimit: 10;fill: #fff;}#el_rkgxx7BXCiX{stroke: #000;stroke-miterlimit: 10;fill: #fff;}#el_Sy-ex7H7Csm{stroke: #000;stroke-miterlimit: 10;fill: #fff;}#el_ByzlemSQCjQ{fill: #f9ee8f;}#el_HJQggQr7AsQ{fill: #c24c3e;-webkit-transform: translate(-700.75px, -367.75px);transform: translate(-700.75px, -367.75px);}#el_H1NeemrQ0iX{fill: #ef1f0f;-webkit-transform: translate(-700.75px, -367.75px);transform: translate(-700.75px, -367.75px);}#el_r1rggXBQCim{fill: #c24c3e;-webkit-transform: translate(-700.75px, -367.75px);transform: translate(-700.75px, -367.75px);}#el_ryLgxmBXAsm{isolation: isolate;}#el_H1vxx7SXCsQ{fill: #c24c3e;isolation: isolate;font-size: 30px;font-family: Krungthep;-webkit-transform: translate(57.96px, 228.5px) rotate(-16.99deg);transform: translate(57.96px, 228.5px) rotate(-16.99deg);}#el_SJtge7HXCiQ{fill: #c24c3e;isolation: isolate;font-size: 30px;font-family: Krungthep;-webkit-transform: translate(68.47px, 262.93px) rotate(-16.99deg);transform: translate(68.47px, 262.93px) rotate(-16.99deg);}#el_B1nxxXBm0sm{stroke: #000;stroke-miterlimit: 10;fill: #f9ee8f;stroke-width: 0.5px;-webkit-transform: translate(-700.75px, -367.75px);transform: translate(-700.75px, -367.75px);}#el_SkpxemBmCj7{stroke-miterlimit: 10;fill: #f9ee8f;stroke-width: 0.5px;stroke: #020001;-webkit-transform: translate(-700.75px, -367.75px);transform: translate(-700.75px, -367.75px);}#el_rJAlgQrQCoX{stroke: #000;stroke-miterlimit: 10;fill: #f9ee8f;stroke-width: 0.5px;-webkit-transform: translate(-700.75px, -367.75px);transform: translate(-700.75px, -367.75px);}#el_By1ZeXrQAom{stroke: #000;stroke-miterlimit: 10;fill: #f9ee8f;stroke-width: 0.5px;-webkit-transform: translate(-700.75px, -367.75px);transform: translate(-700.75px, -367.75px);}#el_Hke-xQBXRoX{stroke-miterlimit: 10;fill: #f9ee8f;stroke-width: 0.5px;stroke: #020001;-webkit-transform: translate(-700.75px, -367.75px);transform: translate(-700.75px, -367.75px);}#el_By--lXSm0om{stroke-miterlimit: 10;fill: #f9ee8f;stroke-width: 0.5px;stroke: #020001;-webkit-transform: translate(-700.75px, -367.75px);transform: translate(-700.75px, -367.75px);}#el_r1fZl7SmRi7{stroke-miterlimit: 10;fill: #f9ee8f;stroke-width: 0.5px;stroke: #050003;-webkit-transform: translate(-700.75px, -367.75px);transform: translate(-700.75px, -367.75px);}#el_SkQWgmHQCiX{fill: #f9ee8f;-webkit-transform: translate(-700.75px, -367.75px);transform: translate(-700.75px, -367.75px);}#el_S1E-gXHQAjm{stroke-miterlimit: 10;fill: #f9ee8f;stroke-width: 0.5px;stroke: #020001;-webkit-transform: translate(-700.75px, -367.75px);transform: translate(-700.75px, -367.75px);}#el_ByHWxXHmRsQ{stroke-miterlimit: 10;fill: #f9ee8f;stroke-width: 0.5px;stroke: #020001;-webkit-transform: translate(-700.75px, -367.75px);transform: translate(-700.75px, -367.75px);}#el_rk8-lXrX0o7{stroke: #000;stroke-miterlimit: 10;fill: #f9ee8f;stroke-width: 0.5px;-webkit-transform: translate(-700.75px, -367.75px);transform: translate(-700.75px, -367.75px);}#el_SkDbxmBXCiX{stroke-miterlimit: 10;fill: #f9ee8f;stroke-width: 0.5px;stroke: #0a0106;-webkit-transform: translate(-700.75px, -367.75px);transform: translate(-700.75px, -367.75px);}#el_BJ_Wg7BmRs7{stroke: #000;stroke-miterlimit: 10;fill: #f9ee8f;stroke-width: 0.5px;-webkit-transform: translate(-700.75px, -367.75px);transform: translate(-700.75px, -367.75px);}#el_S1YbxmBmRiX{stroke-miterlimit: 10;fill: #f9ee8f;stroke-width: 0.5px;stroke: #0c0107;-webkit-transform: translate(-700.75px, -367.75px);transform: translate(-700.75px, -367.75px);}#el_Bk5WxXHmCsQ{stroke: #000;stroke-miterlimit: 10;fill: #f9ee8f;stroke-width: 0.5px;-webkit-transform: translate(-700.75px, -367.75px);transform: translate(-700.75px, -367.75px);}#el_rJsZx7BX0iQ{stroke: #000;stroke-miterlimit: 10;fill: #f9ee8f;stroke-width: 0.5px;-webkit-transform: translate(-700.75px, -367.75px);transform: translate(-700.75px, -367.75px);}#el_BynWx7BX0o7{stroke: #000;stroke-miterlimit: 10;fill: #f9ee8f;stroke-width: 0.5px;-webkit-transform: translate(-700.75px, -367.75px);transform: translate(-700.75px, -367.75px);}#el_S1aZgQS7Csm{stroke: #000;stroke-miterlimit: 10;fill: #f9ee8f;stroke-width: 0.5px;-webkit-transform: translate(-700.75px, -367.75px);transform: translate(-700.75px, -367.75px);}#el_Hyyfx7rXCj7{stroke: #000;stroke-miterlimit: 10;fill: #f9ee8f;stroke-width: 0.5px;-webkit-transform: translate(-700.75px, -367.75px);transform: translate(-700.75px, -367.75px);}#el_HJGMlQr7AjQ{-webkit-transform: translate(-700.75px, -367.75px);transform: translate(-700.75px, -367.75px);}#el_S1mGlQS7AiQ{-webkit-transform: translate(-700.75px, -367.75px);transform: translate(-700.75px, -367.75px);}#el_ryLzeXS7AsQ{fill: #fff;}#el_H1FMlmBQ0sX{fill: #fff;}#el_ryLgxmBXAsm_BJHy_7Co7{-webkit-animation-name: el_ryLgxmBXAsm_BJHy_7Co7_Animation;animation-name: el_ryLgxmBXAsm_BJHy_7Co7_Animation;-webkit-transform: translate(99.36243057250977px, 225.12376403808594px) rotate(0deg) translate(-99.36243057250977px, -225.12376403808594px);transform: translate(99.36243057250977px, 225.12376403808594px) rotate(0deg) translate(-99.36243057250977px, -225.12376403808594px);}#el_rkC-xXHX0s7_H1oQrXRjm{-webkit-animation-name: el_rkC-xXHX0s7_H1oQrXRjm_Animation;animation-name: el_rkC-xXHX0s7_H1oQrXRjm_Animation;-webkit-animation-timing-function: cubic-bezier(0.42, 0, 1, 1);animation-timing-function: cubic-bezier(0.42, 0, 1, 1);-webkit-transform: translate(196.3377685546875px, 280.2379150390625px) translate(-196.3377685546875px, -280.2379150390625px) translate(-20px, -180px);transform: translate(196.3377685546875px, 280.2379150390625px) translate(-196.3377685546875px, -280.2379150390625px) translate(-20px, -180px);}</style><defs/><title>popcorn</title><g id="el_Hk5xXBXRjQ"><g id="el_r1oxXHQAim" data-name="box"><polygon points="7.75 130.75 31.75 333.75 178.75 333.75 195.75 130.75 7.75 130.75" id="el_Sy2emHmCs7"/><rect x="34.75" y="130.75" width="11" height="203" id="el_SyaxmBQRoQ"/><rect x="165.75" y="130.75" width="11" height="203" id="el_BJRemSmRi7"/><rect x="140.75" y="130.75" width="11" height="203" id="el_rJ1lemBQRo7"/><rect x="68.75" y="130.75" width="11" height="203" id="el_rkgxx7BXCiX"/><rect x="104.75" y="130.75" width="11" height="203" id="el_Sy-ex7H7Csm"/><circle cx="104.75" cy="228.75" r="62.5" id="el_ByzlemSQCjQ"/><path d="M805.5,659.5a63,63,0,1,1,63-63A63.07,63.07,0,0,1,805.5,659.5Zm0-125a62,62,0,1,0,62,62A62.07,62.07,0,0,0,805.5,534.5Z" id="el_HJQggQr7AsQ"/><path d="M805.5,659.5a63,63,0,1,1,63-63A63.07,63.07,0,0,1,805.5,659.5Zm0-125a62,62,0,1,0,62,62A62.07,62.07,0,0,0,805.5,534.5Z" id="el_H1NeemrQ0iX"/><path d="M805.5,660A63.5,63.5,0,1,1,869,596.5,63.58,63.58,0,0,1,805.5,660ZM743,596.5a62.5,62.5,0,0,0,125,0,62.5,62.5,0,0,1-125,0ZM805.5,535A61.5,61.5,0,1,0,867,596.5,61.57,61.57,0,0,0,805.5,535Z" id="el_r1rggXBQCim"/><g id="el_ryLgxmBXAsm_BJHy_7Co7" data-animator-group="true" data-animator-type="1"><g id="el_ryLgxmBXAsm"><text id="el_H1vxx7SXCsQ"><tspan xml:space="preserve" id="el_HyuexmB7RoQ"> POP</tspan></text><text id="el_SJtge7HXCiQ">CORN</text></g></g></g></g><g id="el_H19ll7BQCiQ"><g id="el_ByoxeXrmRj7" data-name="popcorn"><path d="M752.67,488.86A12.86,12.86,0,0,0,753,486a13,13,0,0,0-13-13,11.9,11.9,0,0,0-1.59.11,12.93,12.93,0,0,0-17,.13A13,13,0,0,0,706,486a13,13,0,0,0,1.27,5.57,13,13,0,0,0,12.16,22.64,18.9,18.9,0,0,0,26.4-1.22H746a13,13,0,0,0,6.67-24.14Z" id="el_B1nxxXBm0sm"/><path d="M814.67,480.86A12.86,12.86,0,0,0,815,478a13,13,0,0,0-13-13,11.9,11.9,0,0,0-1.59.11,12.93,12.93,0,0,0-17,.13A13,13,0,0,0,768,478a13,13,0,0,0,1.27,5.57,13,13,0,0,0,12.16,22.64,18.9,18.9,0,0,0,26.4-1.22H808a13,13,0,0,0,6.67-24.14Z" id="el_SkpxemBmCj7"/><path d="M844.67,484.86A12.86,12.86,0,0,0,845,482a13,13,0,0,0-13-13,11.9,11.9,0,0,0-1.59.11,12.93,12.93,0,0,0-17,.13A13,13,0,0,0,798,482a13,13,0,0,0,1.27,5.57,13,13,0,0,0,12.16,22.64,18.9,18.9,0,0,0,26.4-1.22H838a13,13,0,0,0,6.67-24.14Z" id="el_rJAlgQrQCoX"/><path d="M896.67,479.86A12.86,12.86,0,0,0,897,477a13,13,0,0,0-13-13,11.9,11.9,0,0,0-1.59.11,12.93,12.93,0,0,0-17,.13A13,13,0,0,0,850,477a13,13,0,0,0,1.27,5.57,13,13,0,0,0,12.16,22.64,18.9,18.9,0,0,0,26.4-1.22H890a13,13,0,0,0,6.67-24.14Z" id="el_By1ZeXrQAom"/><path d="M873.67,480.86A12.86,12.86,0,0,0,874,478a13,13,0,0,0-13-13,11.9,11.9,0,0,0-1.59.11,12.93,12.93,0,0,0-17,.13A13,13,0,0,0,827,478a13,13,0,0,0,1.27,5.57,13,13,0,0,0,12.16,22.64,18.9,18.9,0,0,0,26.4-1.22H867a13,13,0,0,0,6.67-24.14Z" id="el_Hke-xQBXRoX"/><path d="M791.67,481.86A12.86,12.86,0,0,0,792,479a13,13,0,0,0-13-13,11.9,11.9,0,0,0-1.59.11,12.93,12.93,0,0,0-17,.13A13,13,0,0,0,745,479a13,13,0,0,0,1.27,5.57,13,13,0,0,0,12.16,22.64,18.9,18.9,0,0,0,26.4-1.22H785a13,13,0,0,0,6.67-24.14Z" id="el_By--lXSm0om"/><path d="M842.67,450.86A12.86,12.86,0,0,0,843,448a13,13,0,0,0-13-13,11.9,11.9,0,0,0-1.59.11,12.93,12.93,0,0,0-17,.13A13,13,0,0,0,796,448a13,13,0,0,0,1.27,5.57,13,13,0,0,0,12.16,22.64,18.9,18.9,0,0,0,26.4-1.22H836a13,13,0,0,0,6.67-24.14Z" id="el_r1fZl7SmRi7"/><path d="M794.64,424.75a12.88,12.88,0,0,0,.31-2.87A13,13,0,0,0,781.88,409a11.9,11.9,0,0,0-1.59.12,12.94,12.94,0,0,0-17,.22A12.94,12.94,0,0,0,748,422.13a12.91,12.91,0,0,0,1.3,5.56,13,13,0,0,0,12.27,22.57,18.89,18.89,0,0,0,26.39-1.35h.17a13,13,0,0,0,6.56-24.17Z" id="el_SkQWgmHQCiX"/><path d="M804.67,448.86A12.86,12.86,0,0,0,805,446a13,13,0,0,0-13-13,11.9,11.9,0,0,0-1.59.11,12.93,12.93,0,0,0-17,.13A13,13,0,0,0,758,446a13,13,0,0,0,1.27,5.57,13,13,0,0,0,12.16,22.64,18.9,18.9,0,0,0,26.4-1.22H798a13,13,0,0,0,6.67-24.14Z" id="el_S1E-gXHQAjm"/><path d="M897.67,453.86A12.86,12.86,0,0,0,898,451a13,13,0,0,0-13-13,11.9,11.9,0,0,0-1.59.11,12.93,12.93,0,0,0-17,.13A13,13,0,0,0,851,451a13,13,0,0,0,1.27,5.57,13,13,0,0,0,12.16,22.64,18.9,18.9,0,0,0,26.4-1.22H891a13,13,0,0,0,6.67-24.14Z" id="el_ByHWxXHmRsQ"/><path d="M769.67,450.86A12.86,12.86,0,0,0,770,448a13,13,0,0,0-13-13,11.9,11.9,0,0,0-1.59.11,12.93,12.93,0,0,0-17,.13A13,13,0,0,0,723,448a13,13,0,0,0,1.27,5.57,13,13,0,0,0,12.16,22.64,18.9,18.9,0,0,0,26.4-1.22H763a13,13,0,0,0,6.67-24.14Z" id="el_rk8-lXrX0o7"/><path d="M891.67,427.86A12.86,12.86,0,0,0,892,425a13,13,0,0,0-13-13,11.9,11.9,0,0,0-1.59.11,12.93,12.93,0,0,0-17,.13A13,13,0,0,0,845,425a13,13,0,0,0,1.27,5.57,13,13,0,0,0,12.16,22.64,18.9,18.9,0,0,0,26.4-1.22H885a13,13,0,0,0,6.67-24.14Z" id="el_SkDbxmBXCiX"/><path d="M777.67,414.86A12.86,12.86,0,0,0,778,412a13,13,0,0,0-13-13,11.9,11.9,0,0,0-1.59.11,12.93,12.93,0,0,0-17,.13A13,13,0,0,0,731,412a13,13,0,0,0,1.27,5.57,13,13,0,0,0,12.16,22.64,18.9,18.9,0,0,0,26.4-1.22H771a13,13,0,0,0,6.67-24.14Z" id="el_BJ_Wg7BmRs7"/><path d="M874.67,411.86A12.86,12.86,0,0,0,875,409a13,13,0,0,0-13-13,11.9,11.9,0,0,0-1.59.11,12.93,12.93,0,0,0-17,.13A13,13,0,0,0,828,409a13,13,0,0,0,1.27,5.57,13,13,0,0,0,12.16,22.64,18.9,18.9,0,0,0,26.4-1.22H868a13,13,0,0,0,6.67-24.14Z" id="el_S1YbxmBmRiX"/><path d="M816.67,402.86A12.86,12.86,0,0,0,817,400a13,13,0,0,0-13-13,11.9,11.9,0,0,0-1.59.11,12.93,12.93,0,0,0-17,.13A13,13,0,0,0,770,400a13,13,0,0,0,1.27,5.57,13,13,0,0,0,12.16,22.64,18.9,18.9,0,0,0,26.4-1.22H810a13,13,0,0,0,6.67-24.14Z" id="el_Bk5WxXHmCsQ"/><path d="M751.67,446.86A12.86,12.86,0,0,0,752,444a13,13,0,0,0-13-13,11.9,11.9,0,0,0-1.59.11,12.93,12.93,0,0,0-17,.13A13,13,0,0,0,705,444a13,13,0,0,0,1.27,5.57,13,13,0,0,0,12.16,22.64,18.9,18.9,0,0,0,26.4-1.22H745a13,13,0,0,0,6.67-24.14Z" id="el_rJsZx7BX0iQ"/><path d="M837.64,411.75a12.88,12.88,0,0,0,.31-2.87A13,13,0,0,0,824.88,396a11.9,11.9,0,0,0-1.59.12,12.94,12.94,0,0,0-17,.22A12.94,12.94,0,0,0,791,409.13a12.91,12.91,0,0,0,1.3,5.56,13,13,0,0,0,12.27,22.57,18.89,18.89,0,0,0,26.39-1.35h.17a13,13,0,0,0,6.56-24.17Z" id="el_BynWx7BX0o7"/><path d="M846.67,386.86A12.86,12.86,0,0,0,847,384a13,13,0,0,0-13-13,11.9,11.9,0,0,0-1.59.11,12.93,12.93,0,0,0-17,.13A13,13,0,0,0,800,384a13,13,0,0,0,1.27,5.57,13,13,0,0,0,12.16,22.64,18.9,18.9,0,0,0,26.4-1.22H840a13,13,0,0,0,6.67-24.14Z" id="el_S1aZgQS7Csm"/></g></g><g id="el_rkC-xXHX0s7_H1oQrXRjm" data-animator-group="true" data-animator-type="0"><g id="el_rkC-xXHX0s7"><path id="el_Hyyfx7rXCj7" data-name="single" d="M947.67,666.86A12.86,12.86,0,0,0,948,664a13,13,0,0,0-13-13,11.9,11.9,0,0,0-1.59.11,12.93,12.93,0,0,0-17,.13A13,13,0,0,0,901,664a13,13,0,0,0,1.27,5.57,13,13,0,0,0,12.16,22.64,18.9,18.9,0,0,0,26.4-1.22H941a13,13,0,0,0,6.67-24.14Z"/></g></g><g id="el_H1efgXr70jm"><g id="el_S1-Mg7B7AjQ" data-name="face"><path d="M793.51,467.47c.91,10.54,12.14,17.87,22.72,17.81s20.31-5.67,28.82-11.95c3.05-2.25,6.23-4.94,7-8.67Z" id="el_HJGMlQr7AjQ"/><path d="M792,467.47c1.59,12.39,14,20,25.88,19.26,7.52-.45,14.59-3.48,21-7.37,5.63-3.44,12.7-7.55,14.6-14.3a1.52,1.52,0,0,0-1.45-1.9L793.5,466c-1.92.09-1.93,3.09,0,3L852,466.16c-.48-.63-1-1.27-1.45-1.9-1.65,5.85-8.35,9.53-13.23,12.5-5.09,3.11-10.62,5.7-16.55,6.64-10.84,1.73-24.22-3.92-25.76-15.94C794.77,465.58,791.77,465.56,792,467.47Z" id="el_S1mGlQS7AiQ"/><g id="el_HyVfemS70im"><circle cx="79.75" cy="74.75" r="15.5" id="el_HkrMgQrQRj7"/><circle cx="84.25" cy="70.25" r="5" id="el_ryLzeXS7AsQ"/></g><g id="el_ryDGgQBQRjm" data-name="eye"><circle cx="140.75" cy="76.75" r="15.5" id="el_Hk_zg7rXAjm"/><circle cx="145.25" cy="72.25" r="5" id="el_H1FMlmBQ0sX"/></g></g></g></svg>