<svg xmlns="http://www.w3.org/2000/svg" viewBox="-61.5 -96.5 300 300" id="el_BJNhHQmIhX" height="300" width="300"><style>@-webkit-keyframes el_B1ylnrmm8nX_S1mqV78nm_Animation{0%{-webkit-transform: translate(177.36268615722656px, 0.47728556394577026px) translate(-177.36268615722656px, -0.47728556394577026px) translate(0px, 0px);transform: translate(177.36268615722656px, 0.47728556394577026px) translate(-177.36268615722656px, -0.47728556394577026px) translate(0px, 0px);}13.33%{-webkit-transform: translate(177.36268615722656px, 0.47728556394577026px) translate(-177.36268615722656px, -0.47728556394577026px) translate(0px, -20px);transform: translate(177.36268615722656px, 0.47728556394577026px) translate(-177.36268615722656px, -0.47728556394577026px) translate(0px, -20px);}33.33%{-webkit-transform: translate(177.36268615722656px, 0.47728556394577026px) translate(-177.36268615722656px, -0.47728556394577026px) translate(0px, 0px);transform: translate(177.36268615722656px, 0.47728556394577026px) translate(-177.36268615722656px, -0.47728556394577026px) translate(0px, 0px);}50%{-webkit-transform: translate(177.36268615722656px, 0.47728556394577026px) translate(-177.36268615722656px, -0.47728556394577026px) translate(0px, -25px);transform: translate(177.36268615722656px, 0.47728556394577026px) translate(-177.36268615722656px, -0.47728556394577026px) translate(0px, -25px);}66.67%{-webkit-transform: translate(177.36268615722656px, 0.47728556394577026px) translate(-177.36268615722656px, -0.47728556394577026px) translate(0px, 0px);transform: translate(177.36268615722656px, 0.47728556394577026px) translate(-177.36268615722656px, -0.47728556394577026px) translate(0px, 0px);}83.33%{-webkit-transform: translate(177.36268615722656px, 0.47728556394577026px) translate(-177.36268615722656px, -0.47728556394577026px) translate(0px, -25px);transform: translate(177.36268615722656px, 0.47728556394577026px) translate(-177.36268615722656px, -0.47728556394577026px) translate(0px, -25px);}100%{-webkit-transform: translate(177.36268615722656px, 0.47728556394577026px) translate(-177.36268615722656px, -0.47728556394577026px) translate(0px, -25px);transform: translate(177.36268615722656px, 0.47728556394577026px) translate(-177.36268615722656px, -0.47728556394577026px) translate(0px, -25px);}}@keyframes el_B1ylnrmm8nX_S1mqV78nm_Animation{0%{-webkit-transform: translate(177.36268615722656px, 0.47728556394577026px) translate(-177.36268615722656px, -0.47728556394577026px) translate(0px, 0px);transform: translate(177.36268615722656px, 0.47728556394577026px) translate(-177.36268615722656px, -0.47728556394577026px) translate(0px, 0px);}13.33%{-webkit-transform: translate(177.36268615722656px, 0.47728556394577026px) translate(-177.36268615722656px, -0.47728556394577026px) translate(0px, -20px);transform: translate(177.36268615722656px, 0.47728556394577026px) translate(-177.36268615722656px, -0.47728556394577026px) translate(0px, -20px);}33.33%{-webkit-transform: translate(177.36268615722656px, 0.47728556394577026px) translate(-177.36268615722656px, -0.47728556394577026px) translate(0px, 0px);transform: translate(177.36268615722656px, 0.47728556394577026px) translate(-177.36268615722656px, -0.47728556394577026px) translate(0px, 0px);}50%{-webkit-transform: translate(177.36268615722656px, 0.47728556394577026px) translate(-177.36268615722656px, -0.47728556394577026px) translate(0px, -25px);transform: translate(177.36268615722656px, 0.47728556394577026px) translate(-177.36268615722656px, -0.47728556394577026px) translate(0px, -25px);}66.67%{-webkit-transform: translate(177.36268615722656px, 0.47728556394577026px) translate(-177.36268615722656px, -0.47728556394577026px) translate(0px, 0px);transform: translate(177.36268615722656px, 0.47728556394577026px) translate(-177.36268615722656px, -0.47728556394577026px) translate(0px, 0px);}83.33%{-webkit-transform: translate(177.36268615722656px, 0.47728556394577026px) translate(-177.36268615722656px, -0.47728556394577026px) translate(0px, -25px);transform: translate(177.36268615722656px, 0.47728556394577026px) translate(-177.36268615722656px, -0.47728556394577026px) translate(0px, -25px);}100%{-webkit-transform: translate(177.36268615722656px, 0.47728556394577026px) translate(-177.36268615722656px, -0.47728556394577026px) translate(0px, -25px);transform: translate(177.36268615722656px, 0.47728556394577026px) translate(-177.36268615722656px, -0.47728556394577026px) translate(0px, -25px);}}@-webkit-keyframes el_Skux3SXXUnX_SJlAX7I3X_Animation{0%{-webkit-transform: translate(82.9925422668457px, 95.68528747558594px) translate(-82.9925422668457px, -95.68528747558594px) translate(0px, 0px);transform: translate(82.9925422668457px, 95.68528747558594px) translate(-82.9925422668457px, -95.68528747558594px) translate(0px, 0px);}13.33%{-webkit-transform: translate(82.9925422668457px, 95.68528747558594px) translate(-82.9925422668457px, -95.68528747558594px) translate(0px, -15px);transform: translate(82.9925422668457px, 95.68528747558594px) translate(-82.9925422668457px, -95.68528747558594px) translate(0px, -15px);}33.33%{-webkit-transform: translate(82.9925422668457px, 95.68528747558594px) translate(-82.9925422668457px, -95.68528747558594px) translate(0px, 10px);transform: translate(82.9925422668457px, 95.68528747558594px) translate(-82.9925422668457px, -95.68528747558594px) translate(0px, 10px);}50%{-webkit-transform: translate(82.9925422668457px, 95.68528747558594px) translate(-82.9925422668457px, -95.68528747558594px) translate(0px, -20px);transform: translate(82.9925422668457px, 95.68528747558594px) translate(-82.9925422668457px, -95.68528747558594px) translate(0px, -20px);}66.67%{-webkit-transform: translate(82.9925422668457px, 95.68528747558594px) translate(-82.9925422668457px, -95.68528747558594px) translate(0px, 0px);transform: translate(82.9925422668457px, 95.68528747558594px) translate(-82.9925422668457px, -95.68528747558594px) translate(0px, 0px);}83.33%{-webkit-transform: translate(82.9925422668457px, 95.68528747558594px) translate(-82.9925422668457px, -95.68528747558594px) translate(0px, -15px);transform: translate(82.9925422668457px, 95.68528747558594px) translate(-82.9925422668457px, -95.68528747558594px) translate(0px, -15px);}100%{-webkit-transform: translate(82.9925422668457px, 95.68528747558594px) translate(-82.9925422668457px, -95.68528747558594px) translate(0px, -15px);transform: translate(82.9925422668457px, 95.68528747558594px) translate(-82.9925422668457px, -95.68528747558594px) translate(0px, -15px);}}@keyframes el_Skux3SXXUnX_SJlAX7I3X_Animation{0%{-webkit-transform: translate(82.9925422668457px, 95.68528747558594px) translate(-82.9925422668457px, -95.68528747558594px) translate(0px, 0px);transform: translate(82.9925422668457px, 95.68528747558594px) translate(-82.9925422668457px, -95.68528747558594px) translate(0px, 0px);}13.33%{-webkit-transform: translate(82.9925422668457px, 95.68528747558594px) translate(-82.9925422668457px, -95.68528747558594px) translate(0px, -15px);transform: translate(82.9925422668457px, 95.68528747558594px) translate(-82.9925422668457px, -95.68528747558594px) translate(0px, -15px);}33.33%{-webkit-transform: translate(82.9925422668457px, 95.68528747558594px) translate(-82.9925422668457px, -95.68528747558594px) translate(0px, 10px);transform: translate(82.9925422668457px, 95.68528747558594px) translate(-82.9925422668457px, -95.68528747558594px) translate(0px, 10px);}50%{-webkit-transform: translate(82.9925422668457px, 95.68528747558594px) translate(-82.9925422668457px, -95.68528747558594px) translate(0px, -20px);transform: translate(82.9925422668457px, 95.68528747558594px) translate(-82.9925422668457px, -95.68528747558594px) translate(0px, -20px);}66.67%{-webkit-transform: translate(82.9925422668457px, 95.68528747558594px) translate(-82.9925422668457px, -95.68528747558594px) translate(0px, 0px);transform: translate(82.9925422668457px, 95.68528747558594px) translate(-82.9925422668457px, -95.68528747558594px) translate(0px, 0px);}83.33%{-webkit-transform: translate(82.9925422668457px, 95.68528747558594px) translate(-82.9925422668457px, -95.68528747558594px) translate(0px, -15px);transform: translate(82.9925422668457px, 95.68528747558594px) translate(-82.9925422668457px, -95.68528747558594px) translate(0px, -15px);}100%{-webkit-transform: translate(82.9925422668457px, 95.68528747558594px) translate(-82.9925422668457px, -95.68528747558594px) translate(0px, -15px);transform: translate(82.9925422668457px, 95.68528747558594px) translate(-82.9925422668457px, -95.68528747558594px) translate(0px, -15px);}}@-webkit-keyframes el_BJ82SXmL2m_HkTt77Un7_Animation{0%{-webkit-transform: translate(0.49272462725639343px, 6.077053070068359px) translate(-0.49272462725639343px, -6.077053070068359px) translate(0px, 0px);transform: translate(0.49272462725639343px, 6.077053070068359px) translate(-0.49272462725639343px, -6.077053070068359px) translate(0px, 0px);}13.33%{-webkit-transform: translate(0.49272462725639343px, 6.077053070068359px) translate(-0.49272462725639343px, -6.077053070068359px) translate(0px, -20px);transform: translate(0.49272462725639343px, 6.077053070068359px) translate(-0.49272462725639343px, -6.077053070068359px) translate(0px, -20px);}33.33%{-webkit-transform: translate(0.49272462725639343px, 6.077053070068359px) translate(-0.49272462725639343px, -6.077053070068359px) translate(0px, 0px);transform: translate(0.49272462725639343px, 6.077053070068359px) translate(-0.49272462725639343px, -6.077053070068359px) translate(0px, 0px);}50%{-webkit-transform: translate(0.49272462725639343px, 6.077053070068359px) translate(-0.49272462725639343px, -6.077053070068359px) translate(0px, -25px);transform: translate(0.49272462725639343px, 6.077053070068359px) translate(-0.49272462725639343px, -6.077053070068359px) translate(0px, -25px);}66.67%{-webkit-transform: translate(0.49272462725639343px, 6.077053070068359px) translate(-0.49272462725639343px, -6.077053070068359px) translate(0px, 0px);transform: translate(0.49272462725639343px, 6.077053070068359px) translate(-0.49272462725639343px, -6.077053070068359px) translate(0px, 0px);}83.33%{-webkit-transform: translate(0.49272462725639343px, 6.077053070068359px) translate(-0.49272462725639343px, -6.077053070068359px) translate(0px, -25px);transform: translate(0.49272462725639343px, 6.077053070068359px) translate(-0.49272462725639343px, -6.077053070068359px) translate(0px, -25px);}100%{-webkit-transform: translate(0.49272462725639343px, 6.077053070068359px) translate(-0.49272462725639343px, -6.077053070068359px) translate(0px, -25px);transform: translate(0.49272462725639343px, 6.077053070068359px) translate(-0.49272462725639343px, -6.077053070068359px) translate(0px, -25px);}}@keyframes el_BJ82SXmL2m_HkTt77Un7_Animation{0%{-webkit-transform: translate(0.49272462725639343px, 6.077053070068359px) translate(-0.49272462725639343px, -6.077053070068359px) translate(0px, 0px);transform: translate(0.49272462725639343px, 6.077053070068359px) translate(-0.49272462725639343px, -6.077053070068359px) translate(0px, 0px);}13.33%{-webkit-transform: translate(0.49272462725639343px, 6.077053070068359px) translate(-0.49272462725639343px, -6.077053070068359px) translate(0px, -20px);transform: translate(0.49272462725639343px, 6.077053070068359px) translate(-0.49272462725639343px, -6.077053070068359px) translate(0px, -20px);}33.33%{-webkit-transform: translate(0.49272462725639343px, 6.077053070068359px) translate(-0.49272462725639343px, -6.077053070068359px) translate(0px, 0px);transform: translate(0.49272462725639343px, 6.077053070068359px) translate(-0.49272462725639343px, -6.077053070068359px) translate(0px, 0px);}50%{-webkit-transform: translate(0.49272462725639343px, 6.077053070068359px) translate(-0.49272462725639343px, -6.077053070068359px) translate(0px, -25px);transform: translate(0.49272462725639343px, 6.077053070068359px) translate(-0.49272462725639343px, -6.077053070068359px) translate(0px, -25px);}66.67%{-webkit-transform: translate(0.49272462725639343px, 6.077053070068359px) translate(-0.49272462725639343px, -6.077053070068359px) translate(0px, 0px);transform: translate(0.49272462725639343px, 6.077053070068359px) translate(-0.49272462725639343px, -6.077053070068359px) translate(0px, 0px);}83.33%{-webkit-transform: translate(0.49272462725639343px, 6.077053070068359px) translate(-0.49272462725639343px, -6.077053070068359px) translate(0px, -25px);transform: translate(0.49272462725639343px, 6.077053070068359px) translate(-0.49272462725639343px, -6.077053070068359px) translate(0px, -25px);}100%{-webkit-transform: translate(0.49272462725639343px, 6.077053070068359px) translate(-0.49272462725639343px, -6.077053070068359px) translate(0px, -25px);transform: translate(0.49272462725639343px, 6.077053070068359px) translate(-0.49272462725639343px, -6.077053070068359px) translate(0px, -25px);}}@-webkit-keyframes el_S1BhSQ7Ihm_H16wXQU2X_Animation{0%{-webkit-transform: translate(88.92770692706108px, 54.116930186748505px) scale(1.5, 1.5) translate(-88.92770692706108px, -54.116930186748505px);transform: translate(88.92770692706108px, 54.116930186748505px) scale(1.5, 1.5) translate(-88.92770692706108px, -54.116930186748505px);}100%{-webkit-transform: translate(88.92770692706108px, 54.116930186748505px) scale(1.5, 1.5) translate(-88.92770692706108px, -54.116930186748505px);transform: translate(88.92770692706108px, 54.116930186748505px) scale(1.5, 1.5) translate(-88.92770692706108px, -54.116930186748505px);}}@keyframes el_S1BhSQ7Ihm_H16wXQU2X_Animation{0%{-webkit-transform: translate(88.92770692706108px, 54.116930186748505px) scale(1.5, 1.5) translate(-88.92770692706108px, -54.116930186748505px);transform: translate(88.92770692706108px, 54.116930186748505px) scale(1.5, 1.5) translate(-88.92770692706108px, -54.116930186748505px);}100%{-webkit-transform: translate(88.92770692706108px, 54.116930186748505px) scale(1.5, 1.5) translate(-88.92770692706108px, -54.116930186748505px);transform: translate(88.92770692706108px, 54.116930186748505px) scale(1.5, 1.5) translate(-88.92770692706108px, -54.116930186748505px);}}#el_BJNhHQmIhX *{-webkit-animation-duration: 3s;animation-duration: 3s;-webkit-animation-iteration-count: infinite;animation-iteration-count: infinite;-webkit-animation-timing-function: cubic-bezier(0, 0, 1, 1);animation-timing-function: cubic-bezier(0, 0, 1, 1);}#el_rkPnS7mLn7{fill: #fff;stroke: #000;stroke-miterlimit: 10;}#el_HJOhHXm83Q{fill: #fff;stroke: #000;stroke-miterlimit: 10;}#el_HJxxhSQXI3m{stroke: #000;stroke-miterlimit: 10;fill: #666;}#el_HyZxnr77Uhm{stroke: #000;stroke-miterlimit: 10;fill: #666;}#el_HJMl3Sm7I3X{fill: #666;}#el_BJmehBQX8hm{fill: #666;}#el_ByNl2HQQLn7{fill: #666;}#el_B1SxhrQmInQ{fill: #666;}#el_HyIe2r778hQ{fill: #666;}#el_r1Kl2H7m8hQ{-webkit-transform: translate(-20.32px, 158.7px) rotate(-65.37deg);transform: translate(-20.32px, 158.7px) rotate(-65.37deg);}#el_BJ5enHQ7I2Q{-webkit-transform: translate(-10.64px, 153.78px) rotate(-65.37deg);transform: translate(-10.64px, 153.78px) rotate(-65.37deg);}#el_r1oehSmXI2X{-webkit-transform: translate(-17.64px, 142.87px) rotate(-65.37deg);transform: translate(-17.64px, 142.87px) rotate(-65.37deg);}#el_Hy3x3SmX8h7{-webkit-transform: translate(-24.98px, 151.43px) rotate(-65.37deg);transform: translate(-24.98px, 151.43px) rotate(-65.37deg);}#el_Sy6x2SmXU3Q{-webkit-transform: translate(-36.01px, 148.24px) rotate(-65.37deg);transform: translate(-36.01px, 148.24px) rotate(-65.37deg);}#el_ByClnr7XU2m{-webkit-transform: translate(-32.65px, 161.48px) rotate(-65.37deg);transform: translate(-32.65px, 161.48px) rotate(-65.37deg);}#el_r1yW2BXQ8n7{fill: #eae9d6;-webkit-transform: translate(-20.35px, 21.18px) rotate(-15.33deg);transform: translate(-20.35px, 21.18px) rotate(-15.33deg);}#el_SygZ2BXXLhQ{fill: #eae9d6;-webkit-transform: translate(-41.18px, 46.68px) rotate(-30deg);transform: translate(-41.18px, 46.68px) rotate(-30deg);}#el_SJb-hBQ7U3X{fill: #eae9d6;-webkit-transform: translate(-49.86px, 69.86px) rotate(-39.07deg);transform: translate(-49.86px, 69.86px) rotate(-39.07deg);}#el_H1z-3HmXUhm{fill: #eae9d6;-webkit-transform: translate(-35.76px, 32.18px) rotate(-26.11deg);transform: translate(-35.76px, 32.18px) rotate(-26.11deg);}#el_rJ7Z3BQQU37{fill: #eae9d6;-webkit-transform: translate(-36.85px, 42.84px) rotate(-30deg);transform: translate(-36.85px, 42.84px) rotate(-30deg);}#el_ryEZhH7XI3Q{fill: #eae9d6;-webkit-transform: translate(-46.01px, 47.96px) rotate(-32.79deg);transform: translate(-46.01px, 47.96px) rotate(-32.79deg);}#el_S1BhSQ7Ihm_H16wXQU2X{-webkit-animation-name: el_S1BhSQ7Ihm_H16wXQU2X_Animation;animation-name: el_S1BhSQ7Ihm_H16wXQU2X_Animation;-webkit-transform: translate(88.92770692706108px, 54.116930186748505px) scale(1.5, 1.5) translate(-88.92770692706108px, -54.116930186748505px);transform: translate(88.92770692706108px, 54.116930186748505px) scale(1.5, 1.5) translate(-88.92770692706108px, -54.116930186748505px);}#el_BJ82SXmL2m_HkTt77Un7{-webkit-animation-name: el_BJ82SXmL2m_HkTt77Un7_Animation;animation-name: el_BJ82SXmL2m_HkTt77Un7_Animation;-webkit-transform: translate(0.49272462725639343px, 6.077053070068359px) translate(-0.49272462725639343px, -6.077053070068359px) translate(0px, 0px);transform: translate(0.49272462725639343px, 6.077053070068359px) translate(-0.49272462725639343px, -6.077053070068359px) translate(0px, 0px);}#el_Skux3SXXUnX_SypaQmLh7{-webkit-transform: translate(82.9925422668457px, 95.68528747558594px) scale(1, 1) translate(-82.9925422668457px, -95.68528747558594px);transform: translate(82.9925422668457px, 95.68528747558594px) scale(1, 1) translate(-82.9925422668457px, -95.68528747558594px);}#el_Skux3SXXUnX_SJlAX7I3X{-webkit-animation-name: el_Skux3SXXUnX_SJlAX7I3X_Animation;animation-name: el_Skux3SXXUnX_SJlAX7I3X_Animation;-webkit-transform: translate(82.9925422668457px, 95.68528747558594px) translate(-82.9925422668457px, -95.68528747558594px) translate(0px, 0px);transform: translate(82.9925422668457px, 95.68528747558594px) translate(-82.9925422668457px, -95.68528747558594px) translate(0px, 0px);}#el_B1ylnrmm8nX_S1mqV78nm{-webkit-animation-name: el_B1ylnrmm8nX_S1mqV78nm_Animation;animation-name: el_B1ylnrmm8nX_S1mqV78nm_Animation;-webkit-transform: translate(177.36268615722656px, 0.47728556394577026px) translate(-177.36268615722656px, -0.47728556394577026px) translate(0px, 0px);transform: translate(177.36268615722656px, 0.47728556394577026px) translate(-177.36268615722656px, -0.47728556394577026px) translate(0px, 0px);}</style><defs/><title>Asset 1</title><g id="el_S1BhSQ7Ihm_H16wXQU2X" data-animator-group="true" data-animator-type="2"><g id="el_S1BhSQ7Ihm" data-name="Layer 2"><g id="el_BJ82SXmL2m_HkTt77Un7" data-animator-group="true" data-animator-type="0"><g id="el_BJ82SXmL2m"><path d="M42.05,55.47c8.08-2.95,16.05-2.89,21-.34a11.87,11.87,0,0,0-1.5-7.44L41,12.07A12,12,0,0,0,24.62,7.68L6.49,18.15A12,12,0,0,0,2.1,34.54L22.66,70.15A11.83,11.83,0,0,0,24.92,73C24.71,66.64,31.74,59.24,42.05,55.47Z" id="el_rkPnS7mLn7"/><path d="M67.65,60a9.05,9.05,0,0,0-4.58-4.84c-5-2.55-12.94-2.61-21,.34C31.74,59.24,24.71,66.64,24.92,73a7.53,7.53,0,0,0,.46,2.43C27.84,82.14,39.3,84.15,51,79.89S70.11,66.71,67.65,60ZM36.51,74.18a1,1,0,1,1,1-1A1,1,0,0,1,36.51,74.18Zm5-2a1,1,0,1,1,1-1A1,1,0,0,1,41.51,72.18Zm5-2a1,1,0,1,1,1-1A1,1,0,0,1,46.51,70.18Zm5-3a1,1,0,1,1,1-1A1,1,0,0,1,51.51,67.18Zm5-2a1,1,0,1,1,1-1A1,1,0,0,1,56.51,65.18Z" id="el_HJOhHXm83Q"/><circle cx="56.51" cy="64.18" r="1" id="el_B1K3SXQLnQ"/><circle cx="36.51" cy="73.18" r="1" id="el_S193rXXLhX"/><circle cx="46.51" cy="69.18" r="1" id="el_S1s3rXmI2m"/><circle cx="41.51" cy="71.18" r="1" id="el_Hy2nBX7UhX"/><circle cx="51.51" cy="66.18" r="1" id="el_H162B7QL3X"/><path d="M30.11,51.17c6.58,2.16,12.34-3.79,11.45-10.41a7.23,7.23,0,0,0-5-6c-2.14-.81-4.4-.72-6.61-1.14a9,9,0,0,1-3.14-1c-6.9-4.81,4.58-11.58,6.67-5.83.66,1.8,3.56,1,2.89-.79-2.85-7.84-13.73-4.72-14.65,2.83-.41,3.35,1.75,5.67,4.68,6.86a23.69,23.69,0,0,0,5.71,1.13c3.62.52,7.19,1.1,6.33,6.74a5.76,5.76,0,0,1-7.56,4.69c-1.84-.6-2.63,2.29-.8,2.89Z" id="el_r1ChrQQInX"/></g></g><g id="el_B1ylnrmm8nX_S1mqV78nm" data-animator-group="true" data-animator-type="0"><g id="el_B1ylnrmm8nX"><path d="M138.07,51.36C144.55,57,148.33,64,148.48,69.62a11.88,11.88,0,0,0,5.81-4.89l21.32-35.16a12,12,0,0,0-4-16.49L153.68,2.23a12,12,0,0,0-16.49,4L115.87,41.43a12,12,0,0,0-1.38,3.33C119.93,41.54,129.81,44.13,138.07,51.36Z" id="el_HJxxhSQXI3m"/><path d="M146.45,76a9,9,0,0,0,2-6.34C148.33,64,144.55,57,138.07,51.36c-8.26-7.23-18.14-9.82-23.58-6.6a8,8,0,0,0-1.91,1.57c-4.73,5.41-1,16.42,8.37,24.6S141.72,81.37,146.45,76ZM119,55.51a1,1,0,1,1,1.36.4A1,1,0,0,1,119,55.51Zm4.16,3.42a1,1,0,1,1,1.36.4A1,1,0,0,1,123.16,58.93Zm4.16,3.42a1,1,0,1,1,1.36.4A1,1,0,0,1,127.32,62.35Zm5,2.94a1,1,0,1,1,1.36.4A1,1,0,0,1,132.36,65.29Zm4.16,3.42a1,1,0,1,1,1.36.4A1,1,0,0,1,136.52,68.71Z" id="el_HyZxnr77Uhm"/><circle cx="137.4" cy="68.23" r="1" id="el_HJMl3Sm7I3X"/><circle cx="119.88" cy="55.03" r="1" id="el_BJmehBQX8hm"/><circle cx="128.2" cy="61.87" r="1" id="el_ByNl2HQQLn7"/><circle cx="124.04" cy="58.45" r="1" id="el_B1SxhrQmInQ"/><circle cx="133.24" cy="64.81" r="1" id="el_HyIe2r778hQ"/><path d="M138.84,31c-1.37,5.77,2.53,9.62,7.6,11.55a1.53,1.53,0,0,0,1.7-.69c4.8-7.39,10.89-13.88,16-21.13,1-1.38-1.29-3.15-2.36-1.82L150,33.49l2.36,1.82,4.51-7a1.51,1.51,0,0,0-.23-1.82c-5.83-5.91-14.25-2.8-17.66,4.06-.86,1.72,1.73,3.24,2.59,1.51,2.5-5,8.46-8,12.95-3.45l-.24-1.82-4.51,7c-.92,1.4,1.28,3.16,2.35,1.81L163.86,21l-2.35-1.82c-5.07,7.26-11.15,13.72-16,21.13l1.69-.69c-3.4-1.3-6.49-3.73-5.51-7.86C142.18,29.88,139.29,29.08,138.84,31Z" id="el_HJDg3SmmLhQ"/></g></g><g id="el_Skux3SXXUnX_SJlAX7I3X" data-animator-group="true" data-animator-type="0"><g id="el_Skux3SXXUnX"><ellipse cx="113.51" cy="95.18" rx="1.5" ry="0.5" id="el_r1Kl2H7m8hQ"/><ellipse cx="114.51" cy="85.18" rx="1.5" ry="0.5" id="el_BJ5enHQ7I2Q"/><ellipse cx="102.51" cy="85.18" rx="1.5" ry="0.5" id="el_r1oehSmXI2X"/><ellipse cx="105.51" cy="95.18" rx="1.5" ry="0.5" id="el_Hy3x3SmX8h7"/><ellipse cx="97.51" cy="102.18" rx="1.5" ry="0.5" id="el_Sy6x2SmXU3Q"/><ellipse cx="109.51" cy="106.18" rx="1.5" ry="0.5" id="el_ByClnr7XU2m"/><ellipse cx="68.51" cy="86.18" rx="0.5" ry="1.5" id="el_r1yW2BXQ8n7"/><ellipse cx="66.51" cy="100.18" rx="0.5" ry="1.5" id="el_SygZ2BXXLhQ"/><ellipse cx="73.51" cy="105.18" rx="0.5" ry="1.5" id="el_SJb-hBQ7U3X"/><ellipse cx="51.51" cy="93.18" rx="0.5" ry="1.5" id="el_H1z-3HmXUhm"/><ellipse cx="61.51" cy="90.18" rx="0.5" ry="1.5" id="el_rJ7Z3BQQU37"/><ellipse cx="58.51" cy="102.18" rx="0.5" ry="1.5" id="el_ryEZhH7XI3Q"/></g></g></g></g></svg>