<svg xmlns="http://www.w3.org/2000/svg" viewBox="-116 -117.5 600 400" id="el_rJXeVkWmRoX" height="400" width="600"><style>@-webkit-keyframes el_rJkbNy-XRjX_ryQmiiNnQ_Animation{0%{-webkit-transform: translate(196.7905731201172px, 97.20468139648438px) scale(1, 1) translate(-196.7905731201172px, -97.20468139648438px);transform: translate(196.7905731201172px, 97.20468139648438px) scale(1, 1) translate(-196.7905731201172px, -97.20468139648438px);}33.33%{-webkit-transform: translate(196.7905731201172px, 97.20468139648438px) scale(2, 2) translate(-196.7905731201172px, -97.20468139648438px);transform: translate(196.7905731201172px, 97.20468139648438px) scale(2, 2) translate(-196.7905731201172px, -97.20468139648438px);}100%{-webkit-transform: translate(196.7905731201172px, 97.20468139648438px) scale(0.9, 0.9) translate(-196.7905731201172px, -97.20468139648438px);transform: translate(196.7905731201172px, 97.20468139648438px) scale(0.9, 0.9) translate(-196.7905731201172px, -97.20468139648438px);}}@keyframes el_rJkbNy-XRjX_ryQmiiNnQ_Animation{0%{-webkit-transform: translate(196.7905731201172px, 97.20468139648438px) scale(1, 1) translate(-196.7905731201172px, -97.20468139648438px);transform: translate(196.7905731201172px, 97.20468139648438px) scale(1, 1) translate(-196.7905731201172px, -97.20468139648438px);}33.33%{-webkit-transform: translate(196.7905731201172px, 97.20468139648438px) scale(2, 2) translate(-196.7905731201172px, -97.20468139648438px);transform: translate(196.7905731201172px, 97.20468139648438px) scale(2, 2) translate(-196.7905731201172px, -97.20468139648438px);}100%{-webkit-transform: translate(196.7905731201172px, 97.20468139648438px) scale(0.9, 0.9) translate(-196.7905731201172px, -97.20468139648438px);transform: translate(196.7905731201172px, 97.20468139648438px) scale(0.9, 0.9) translate(-196.7905731201172px, -97.20468139648438px);}}@-webkit-keyframes el_HJ4lEk-mRom_B1rSsoN2X_Animation{0%{-webkit-transform: translate(184px, 82.72000122070312px) scale(1, 1) translate(-184px, -82.72000122070312px);transform: translate(184px, 82.72000122070312px) scale(1, 1) translate(-184px, -82.72000122070312px);}33.33%{-webkit-transform: translate(184px, 82.72000122070312px) scale(2, 2) translate(-184px, -82.72000122070312px);transform: translate(184px, 82.72000122070312px) scale(2, 2) translate(-184px, -82.72000122070312px);}100%{-webkit-transform: translate(184px, 82.72000122070312px) scale(0.9, 0.9) translate(-184px, -82.72000122070312px);transform: translate(184px, 82.72000122070312px) scale(0.9, 0.9) translate(-184px, -82.72000122070312px);}}@keyframes el_HJ4lEk-mRom_B1rSsoN2X_Animation{0%{-webkit-transform: translate(184px, 82.72000122070312px) scale(1, 1) translate(-184px, -82.72000122070312px);transform: translate(184px, 82.72000122070312px) scale(1, 1) translate(-184px, -82.72000122070312px);}33.33%{-webkit-transform: translate(184px, 82.72000122070312px) scale(2, 2) translate(-184px, -82.72000122070312px);transform: translate(184px, 82.72000122070312px) scale(2, 2) translate(-184px, -82.72000122070312px);}100%{-webkit-transform: translate(184px, 82.72000122070312px) scale(0.9, 0.9) translate(-184px, -82.72000122070312px);transform: translate(184px, 82.72000122070312px) scale(0.9, 0.9) translate(-184px, -82.72000122070312px);}}#el_rJXeVkWmRoX *{-webkit-animation-duration: 3s;animation-duration: 3s;-webkit-animation-iteration-count: infinite;animation-iteration-count: infinite;-webkit-animation-timing-function: cubic-bezier(0, 0, 1, 1);animation-timing-function: cubic-bezier(0, 0, 1, 1);}#el_r1BxVkWQRiX{fill: #fc3;-webkit-transform: translate(-248px, -511px);transform: translate(-248px, -511px);}#el_HkIgE1Z7As7{-webkit-transform: translate(-248px, -511px);transform: translate(-248px, -511px);}#el_B1OgVJ-Q0sm{fill: #72461f;}#el_HJKeE1ZmRoQ{fill: #41c42d;-webkit-transform: translate(-248px, -511px);transform: translate(-248px, -511px);}#el_ryceEJb7Cim{fill: #41c42d;-webkit-transform: translate(-248px, -511px);transform: translate(-248px, -511px);}#el_ByixVJZXRim{fill: #f45314;-webkit-transform: translate(-248px, -511px);transform: translate(-248px, -511px);}#el_SknxNyb7Rj7{fill: #f45314;-webkit-transform: translate(-248px, -511px);transform: translate(-248px, -511px);}#el_S16xNJbXAsm{fill: #fc3;-webkit-transform: translate(-248px, -511px);transform: translate(-248px, -511px);}#el_S1AxEkZXRiX{-webkit-transform: translate(-248px, -511px);transform: translate(-248px, -511px);}#el_SJlWEkbQAjQ{fill: #72461f;-webkit-transform: translate(-248px, -511px);transform: translate(-248px, -511px);}#el_BJZZEyWQAjm{fill: #72461f;-webkit-transform: translate(-248px, -511px);transform: translate(-248px, -511px);}#el_HkMW4J-mCjm{fill: #72461f;-webkit-transform: translate(-248px, -511px);transform: translate(-248px, -511px);}#el_rymZVk-XAim{fill: #72461f;-webkit-transform: translate(-248px, -511px);transform: translate(-248px, -511px);}#el_HkEbVyWmAsQ{fill: #72461f;-webkit-transform: translate(-248px, -511px);transform: translate(-248px, -511px);}#el_rJH-4ybQCiX{fill: #72461f;-webkit-transform: translate(-248px, -511px);transform: translate(-248px, -511px);}#el_H1I-41-XRj7{fill: #72461f;-webkit-transform: translate(-248px, -511px);transform: translate(-248px, -511px);}#el_ryPZ4JZmAjX{fill: #72461f;-webkit-transform: translate(-248px, -511px);transform: translate(-248px, -511px);}#el_B1OW4JbXCom{fill: #72461f;-webkit-transform: translate(-248px, -511px);transform: translate(-248px, -511px);}#el_HJ4lEk-mRom_B1rSsoN2X{-webkit-animation-name: el_HJ4lEk-mRom_B1rSsoN2X_Animation;animation-name: el_HJ4lEk-mRom_B1rSsoN2X_Animation;}#el_rJkbNy-XRjX_ryQmiiNnQ{-webkit-animation-name: el_rJkbNy-XRjX_ryQmiiNnQ_Animation;animation-name: el_rJkbNy-XRjX_ryQmiiNnQ_Animation;}</style><defs/><title>taco</title><g id="el_HJ4lEk-mRom_B1rSsoN2X" data-animator-group="true" data-animator-type="2"><g id="el_HJ4lEk-mRom"><path d="M407.5,664.44c-41.71,0-80.56-4-109.41-11.2C257.52,643.08,249,629.83,249,620.5,249,561.22,320.1,513,407.5,513S566,561.22,566,620.5c0,9.33-8.52,22.58-49.09,32.74C488.06,660.46,449.21,664.44,407.5,664.44Z" id="el_r1BxVkWQRiX"/><path d="M407.5,514C494.35,514,565,561.78,565,620.5c0,6.47-4.3,12.51-12.79,18-8.23,5.3-20.19,9.94-35.54,13.79-28.77,7.2-67.54,11.17-109.17,11.17s-80.4-4-109.17-11.17c-15.35-3.85-27.31-8.49-35.54-13.79C254.3,633,250,627,250,620.5,250,561.78,320.65,514,407.5,514m0-2C319.41,512,248,560.58,248,620.5c0,30,79.75,44.94,159.5,44.94S567,650.46,567,620.5C567,560.58,495.59,512,407.5,512Z" id="el_HkIgE1Z7As7"/><g id="el_ByvxVJbm0im"><rect x="20" y="63" width="112" height="81" rx="38.05" id="el_B1OgVJ-Q0sm"/><path d="M360,573.5c0,19.61-71,19.61-71,0a35.5,35.5,0,0,1,71,0Z" id="el_HJKeE1ZmRoQ"/><path d="M431,546.5c0,19.61-71,19.61-71,0a35.5,35.5,0,0,1,71,0Z" id="el_ryceEJb7Cim"/><path d="M396,560.5c0,19.61-71,19.61-71,0a35.5,35.5,0,0,1,71,0Z" id="el_ByixVJZXRim"/><path d="M467,548.5c0,19.61-71,19.61-71,0a35.5,35.5,0,0,1,71,0Z" id="el_SknxNyb7Rj7"/></g><path d="M456.5,675.44c-41.71,0-80.56-4-109.41-11.2C306.52,654.08,298,640.83,298,631.5,298,572.22,369.1,524,456.5,524S615,572.22,615,631.5c0,9.33-8.52,22.58-49.09,32.74C537.06,671.46,498.21,675.44,456.5,675.44Z" id="el_S16xNJbXAsm"/><path d="M456.5,525C543.35,525,614,572.78,614,631.5c0,6.47-4.3,12.51-12.79,18-8.23,5.3-20.19,9.94-35.54,13.79-28.77,7.2-67.54,11.17-109.17,11.17s-80.4-4-109.17-11.17c-15.35-3.85-27.31-8.49-35.54-13.79C303.3,644,299,638,299,631.5,299,572.78,369.65,525,456.5,525m0-2C368.41,523,297,571.58,297,631.5c0,30,79.75,44.94,159.5,44.94S616,661.46,616,631.5C616,571.58,544.59,523,456.5,523Z" id="el_S1AxEkZXRiX"/></g></g><g id="el_rJkbNy-XRjX_ryQmiiNnQ" data-animator-group="true" data-animator-type="2"><g id="el_rJkbNy-XRjX"><path d="M392.44,578.05a33.91,33.91,0,0,0,30.37,3.61c1.8-.65,1-3.55-.8-2.9a31.07,31.07,0,0,1-28.05-3.3c-1.62-1.07-3.12,1.53-1.52,2.59Z" id="el_SJlWEkbQAjQ"/><path d="M466.44,578.05a33.91,33.91,0,0,0,30.37,3.61c1.8-.65,1-3.55-.8-2.9a31.07,31.07,0,0,1-28.05-3.3c-1.62-1.07-3.12,1.53-1.52,2.59Z" id="el_BJZZEyWQAjm"/><path d="M414.73,582.84l1.87,5.68c.6,1.83,3.5,1.05,2.89-.79L417.62,582c-.6-1.82-3.5-1-2.89.8Z" id="el_HkMW4J-mCjm"/><path d="M397,578.85l-3.92,6.54a1.5,1.5,0,0,0,2.59,1.51l3.92-6.54a1.5,1.5,0,0,0-2.59-1.51Z" id="el_rymZVk-XAim"/><path d="M406.23,584.31V589a1.5,1.5,0,0,0,3,0v-4.73a1.5,1.5,0,0,0-3,0Z" id="el_HkEbVyWmAsQ"/><path d="M491.73,581.84l1.87,5.68c.6,1.83,3.5,1.05,2.89-.79L494.62,581c-.6-1.82-3.5-1-2.89.8Z" id="el_rJH-4ybQCiX"/><path d="M468,578.85l-3.92,6.54a1.5,1.5,0,0,0,2.59,1.51l3.92-6.54a1.5,1.5,0,0,0-2.59-1.51Z" id="el_H1I-41-XRj7"/><path d="M480.23,584.31V589a1.5,1.5,0,0,0,3,0v-4.73a1.5,1.5,0,0,0-3,0Z" id="el_ryPZ4JZmAjX"/><path d="M425.14,616.43c-7.43,16.27,13,24.38,25.64,24.76,15,.45,27.47-11.12,24.51-26.67-.36-1.89-3.25-1.09-2.89.8,2.42,12.75-7.56,22.63-19.91,22.89-10.23.21-31.43-5.65-24.76-20.27.8-1.74-1.79-3.27-2.59-1.51Z" id="el_B1OW4JbXCom"/></g></g></svg>